SplineFontDB: 3.0
FontName: NeutonCursive-Regular
FullName: Neuton Cursive
FamilyName: Neuton Cursive
Weight: Regular
Copyright: Copyright (c) 2010, Brian M Zick (http://21326.info/),\nwith Reserved Font Name "Neuton".\nThis Font Software is licensed under the SIL Open Font License, Version 1.1.\nThis license is available with a FAQ at: http://scripts.sil.org/OFL
Version: 1.101
ItalicAngle: 0
UnderlinePosition: -440
UnderlineWidth: 220
Ascent: 1638
Descent: 410
LayerCount: 2
Layer: 0 0 "Back"  1
Layer: 1 0 "Fore"  0
NeedsXUIDChange: 1
FSType: 0
OS2Version: 0
OS2_WeightWidthSlopeOnly: 0
OS2_UseTypoMetrics: 0
CreationTime: 1300472668
ModificationTime: 1314359706
PfmFamily: 17
TTFWeight: 400
TTFWidth: 5
LineGap: 0
VLineGap: 0
OS2TypoAscent: 2106
OS2TypoAOffset: 0
OS2TypoDescent: -485
OS2TypoDOffset: 0
OS2TypoLinegap: 0
OS2WinAscent: 2106
OS2WinAOffset: 0
OS2WinDescent: 486
OS2WinDOffset: 0
HheadAscent: 2106
HheadAOffset: 0
HheadDescent: -485
HheadDOffset: 0
OS2Vendor: 'PfEd'
MarkAttachClasses: 1
DEI: 91125
LangName: 1033 "" "" "" "" "" "" "" "" "" "Brian M Zick" "" "" "http://21326.info/" "Copyright (c) 2011, Brian Zick (http://21326.info/),+AAoA-with Reserved Font Name +ACIA-Neuton+ACIA.+AAoACgAA-This Font Software is licensed under the SIL Open Font License, Version 1.1.+AAoA-This license is available with a FAQ at: http://scripts.sil.org/OFL" "http://scripts.sil.org/OFL" 
Encoding: UnicodeBmp
Compacted: 1
UnicodeInterp: none
NameList: Adobe Glyph List
DisplaySize: -24
AntiAlias: 1
FitToEm: 1
WinInfo: 0 50 16
BeginPrivate: 12
BlueValues 37 [-44 0 1090 1110 1432 1460 1540 1576]
OtherBlues 11 [-472 -448]
BlueFuzz 1 1
BlueScale 6 0.0225
BlueShift 1 7
ExpansionFactor 4 0.06
ForceBold 5 false
LanguageGroup 1 0
StdVW 5 [204]
StdHW 5 [128]
StemSnapH 48 [94 102 112 118 122 128 132 138 182 188 192 216]
StemSnapV 33 [174 178 192 196 204 208 250 256]
EndPrivate
BeginChars: 65538 367

StartChar: .notdef
Encoding: 65536 -1 0
Width: 1496
VWidth: 0
Flags: WO
HStem: 0 136<272 1088> 1864 136<272 1088>
VStem: 136 136<136 1864> 1088 136<136 1864>
LayerCount: 2
Fore
SplineSet
272 136 m 1
 1088 136 l 1
 1088 1864 l 5
 272 1864 l 5
 272 136 l 1
136 0 m 1
 136 2000 l 5
 1224 2000 l 5
 1224 0 l 1
 136 0 l 1
EndSplineSet
EndChar

StartChar: A
Encoding: 65 65 1
Width: 1504
VWidth: 0
Flags: HW
HStem: -34 21G<132 181> 0 88<784 860.043 1454.5 1468> 1552 20G<901.158 1021.66>
DStem2: 634 972 716 896 0.283284 0.959036<-287.397 383.296>
LayerCount: 2
Fore
SplineSet
950 624 m 1
 840 1312 l 1
 836 1312 l 1
 716 896 l 1
 680 776 656 698 644 662 c 1
 950 624 l 1
1018 1572 m 1
 1276 164 l 1
 1496 100 l 1
 1468 0 l 1
 756 0 l 1
 784 88 l 1
 1028 134 l 1
 964 534 l 1
 604 550 l 1
 550 396 496 272 446 180 c 1
 380 66 318 -8 214 -30 c 1
 198 -32 186 -34 176 -34 c 0
 88 -34 -6 28 -38 124 c 1
 22 146 78 174 128 208 c 1
 214 264 292 338 364 432 c 0
 460 558 550 738 634 972 c 1
 704 1178 774 1438 796 1534 c 1
 1018 1572 l 1
EndSplineSet
Validated: 1
EndChar

StartChar: A.alt
Encoding: 65537 -1 2
Width: 1680
VWidth: 0
Flags: HW
HStem: -24 21G<179 312> 0 88<960 1036.04 1630.5 1644> 550 114<800 916.838> 1552 20G<1077.16 1197.66>
LayerCount: 2
Fore
SplineSet
800 664 m 1
 1126 624 l 1
 1016 1312 l 1
 1012 1312 l 1
 970 1162 926 1018 880 884 c 1
 800 664 l 1
1194 1572 m 1
 1452 164 l 1
 1672 100 l 1
 1644 0 l 1
 932 0 l 1
 960 88 l 1
 1204 134 l 1
 1140 534 l 1
 756 550 l 1
 726 476 l 1
 664 326 596 210 526 128 c 1
 446 38 364 -22 260 -24 c 1
 254 -24 l 2
 104 -24 18 88 10 190 c 1
 64 200 122 214 180 236 c 1
 388 308 553 450 668 666 c 0
 737 796 838 1062 918 1318 c 1
 938 1390 956 1462 972 1534 c 1
 1194 1572 l 1
EndSplineSet
Validated: 1
EndChar

StartChar: AE
Encoding: 198 198 3
Width: 1898
VWidth: 0
Flags: HW
HStem: -34 21G<155 205> -4 102<634 690.922> 534 92<794.394 888> 688 174<1287.45 1511.95>
VStem: 864 214<1072.33 1314> 892 864<232 436> 892 216<626 714 842 978.256> 1580 108<1074 1138.72>
LayerCount: 2
Fore
SplineSet
888 626 m 1xf8
 864 1314 l 1
 856 1314 l 1
 740 898 l 2
 722 836 698 758 666 660 c 1
 888 626 l 1xf8
1748 532 m 1
 1750 524 l 1
 1754 480 1756 436 1756 392 c 0xf4
 1756 232 1732 102 1682 0 c 1
 1648 0 l 2
 1624 0 1592 0 1554 2 c 1
 1516 2 1472 2 1424 2 c 0
 1376 2 1326 2 1276 2 c 0
 1226 2 1178 2 1132 4 c 1
 1086 4 1044 4 1006 4 c 0
 968 4 938 4 920 4 c 2
 606 -4 l 1
 634 98 l 1
 904 166 l 1
 892 534 l 1xf2
 628 548 l 1
 566 380 514 258 470 180 c 1
 396 58 340 -12 238 -30 c 0
 222 -32 210 -34 200 -34 c 0
 110 -34 18 30 -14 124 c 1
 46 146 102 174 152 208 c 1
 236 262 314 338 388 432 c 1
 582 690 704 1100 766 1318 c 0
 784 1378 802 1450 818 1534 c 1
 1736 1582 l 1
 1688 1066 l 1
 1580 1074 l 1
 1510 1390 l 1
 1474 1394 l 1
 1384 1402 1266 1408 1118 1412 c 1
 1078 1414 l 1xf9
 1102 842 l 1
 1556 862 l 1
 1508 688 l 1
 1108 714 l 1xf2
 1142 124 l 1
 1248 134 l 2
 1388 148 1472 158 1498 164 c 1
 1548 228 1624 432 1640 536 c 1
 1748 532 l 1
EndSplineSet
Validated: 1
EndChar

StartChar: Aacute
Encoding: 193 193 4
Width: 1504
VWidth: 0
Flags: HW
HStem: -34 21G<131 181> 0 88<784 860.043 1454.5 1468> 1552 20G<900.211 1019.69>
LayerCount: 2
Fore
SplineSet
950 624 m 1
 840 1312 l 1
 836 1312 l 1
 716 896 l 1
 680 776 656 698 644 662 c 1
 950 624 l 1
1016 1572 m 1
 1276 164 l 1
 1496 100 l 1
 1468 0 l 1
 756 0 l 1
 784 88 l 1
 1028 134 l 1
 966 532 l 1
 604 550 l 1
 542 378 488 254 446 180 c 0
 380 66 318 -8 214 -30 c 1
 198 -32 186 -34 176 -34 c 0
 86 -34 -6 28 -38 124 c 1
 22 146 78 174 128 208 c 1
 214 264 292 338 364 432 c 0
 460 558 550 738 634 972 c 1
 704 1178 774 1438 796 1534 c 1
 1016 1572 l 1
1192 2054 m 1
 970 1670 l 1
 908 1708 l 1
 1056 2102 l 1
 1192 2054 l 1
EndSplineSet
Validated: 1
EndChar

StartChar: Abreve
Encoding: 258 258 5
Width: 1504
VWidth: 0
Flags: HW
HStem: -34 21G<131 181> 0 88<784 860.043 1454.5 1468> 1552 20G<900.211 1019.69> 1700 132<799.131 1040.74>
VStem: 688 66<1887.71 1925.73>
DStem2: 634 972 716 896 0.283284 0.959036<-287.397 383.296>
LayerCount: 2
Fore
SplineSet
950 624 m 1
 840 1312 l 1
 836 1312 l 1
 716 896 l 1
 680 776 656 698 644 662 c 1
 950 624 l 1
1016 1572 m 1
 1276 164 l 1
 1496 100 l 1
 1468 0 l 1
 756 0 l 1
 784 88 l 1
 1028 134 l 1
 966 532 l 1
 604 550 l 1
 542 378 488 254 446 180 c 0
 380 66 318 -8 214 -30 c 1
 198 -32 186 -34 176 -34 c 0
 86 -34 -6 28 -38 124 c 1
 22 146 78 174 128 208 c 1
 214 264 292 338 364 432 c 0
 460 558 550 738 634 972 c 1
 704 1178 774 1438 796 1534 c 1
 1016 1572 l 1
688 1916 m 1
 744 1954 l 1
 754 1934 l 1
 780 1878 844 1832 918 1832 c 0
 990 1832 1048 1866 1090 1936 c 2
 1102 1956 l 1
 1152 1922 l 1
 1144 1898 l 2
 1106 1786 1030 1700 918 1700 c 0
 800 1700 720 1786 694 1892 c 2
 688 1916 l 1
EndSplineSet
Validated: 1
EndChar

StartChar: Acaron
Encoding: 461 461 6
Width: 1504
VWidth: 0
Flags: HW
HStem: -34 21G<131 181> 0 88<784 860.043 1454.5 1468> 1552 20G<900.211 1019.69>
DStem2: 634 972 716 896 0.283284 0.959036<-287.397 383.296> 772 1954 674 1880 0.736873 -0.676031<0 250.267> 964 1780 958 1696 0.690318 0.723506<0 226.544>
LayerCount: 2
Fore
SplineSet
950 624 m 1
 840 1312 l 1
 836 1312 l 1
 716 896 l 1
 680 776 656 698 644 662 c 1
 950 624 l 1
1016 1572 m 1
 1276 164 l 1
 1496 100 l 1
 1468 0 l 1
 756 0 l 1
 784 88 l 1
 1028 134 l 1
 966 532 l 1
 604 550 l 1
 542 378 488 254 446 180 c 0
 380 66 318 -8 214 -30 c 1
 198 -32 186 -34 176 -34 c 0
 86 -34 -6 28 -38 124 c 1
 22 146 78 174 128 208 c 1
 214 264 292 338 364 432 c 0
 460 558 550 738 634 972 c 1
 704 1178 774 1438 796 1534 c 1
 1016 1572 l 1
892 1680 m 1
 674 1880 l 1
 772 1954 l 1
 952 1780 l 1
 964 1780 l 1
 1114 1950 l 1
 1166 1914 l 1
 958 1696 l 1
 892 1680 l 1
EndSplineSet
Validated: 1
EndChar

StartChar: Acircumflex
Encoding: 194 194 7
Width: 1504
VWidth: 0
Flags: HW
HStem: -34 21G<131 181> 0 88<784 860.043 1454.5 1468> 1552 20G<900.211 1019.69>
DStem2: 634 972 716 896 0.283284 0.959036<-287.397 383.296>
LayerCount: 2
Fore
SplineSet
950 624 m 1
 840 1312 l 1
 836 1312 l 1
 716 896 l 1
 680 776 656 698 644 662 c 1
 950 624 l 1
1016 1572 m 1
 1276 164 l 1
 1496 100 l 1
 1468 0 l 1
 756 0 l 1
 784 88 l 1
 1028 134 l 1
 966 532 l 1
 604 550 l 1
 542 378 488 254 446 180 c 0
 380 66 318 -8 214 -30 c 1
 198 -32 186 -34 176 -34 c 0
 86 -34 -6 28 -38 124 c 1
 22 146 78 174 128 208 c 1
 214 264 292 338 364 432 c 0
 460 558 550 738 634 972 c 1
 704 1178 774 1438 796 1534 c 1
 1016 1572 l 1
946 1950 m 1
 1162 1726 l 1
 1102 1682 l 1
 904 1814 l 1
 892 1814 l 1
 722 1680 l 1
 676 1716 l 1
 880 1934 l 1
 946 1950 l 1
EndSplineSet
Validated: 1
EndChar

StartChar: Adieresis
Encoding: 196 196 8
Width: 1504
VWidth: 0
Flags: HW
HStem: -34 21G<131 181> 0 88<784 860.043 1454.5 1468> 1552 20G<900.211 1019.69> 1712 192<670.648 843.259 994.648 1168.67>
VStem: 654 206<1729 1886.53> 978 208<1730.33 1885.94>
DStem2: 634 972 716 896 0.283284 0.959036<-287.397 383.296>
LayerCount: 2
Fore
SplineSet
950 624 m 1
 840 1312 l 1
 836 1312 l 1
 716 896 l 1
 680 776 656 698 644 662 c 1
 950 624 l 1
1016 1572 m 1
 1276 164 l 1
 1496 100 l 1
 1468 0 l 1
 756 0 l 1
 784 88 l 1
 1028 134 l 1
 966 532 l 1
 604 550 l 1
 542 378 488 254 446 180 c 0
 380 66 318 -8 214 -30 c 1
 198 -32 186 -34 176 -34 c 0
 86 -34 -6 28 -38 124 c 1
 22 146 78 174 128 208 c 1
 214 264 292 338 364 432 c 0
 460 558 550 738 634 972 c 1
 704 1178 774 1438 796 1534 c 1
 1016 1572 l 1
1186 1810 m 0
 1186 1752 1136 1712 1080 1712 c 0
 1026 1712 978 1752 978 1810 c 0
 978 1866 1026 1904 1080 1904 c 0
 1136 1904 1186 1864 1186 1810 c 0
860 1810 m 0
 860 1752 812 1712 756 1712 c 0
 702 1712 654 1752 654 1810 c 0
 654 1866 702 1904 756 1904 c 0
 812 1904 860 1864 860 1810 c 0
EndSplineSet
Validated: 1
EndChar

StartChar: Agrave
Encoding: 192 192 9
Width: 1504
VWidth: 0
Flags: HW
HStem: -34 21G<131 181> 0 88<784 860.043 1454.5 1468> 1552 20G<900.211 1019.69>
DStem2: 634 972 716 896 0.283284 0.959036<-287.397 383.296>
LayerCount: 2
Fore
SplineSet
950 624 m 1
 840 1312 l 1
 836 1312 l 1
 716 896 l 1
 680 776 656 698 644 662 c 1
 950 624 l 1
1016 1572 m 1
 1276 164 l 1
 1496 100 l 1
 1468 0 l 1
 756 0 l 1
 784 88 l 1
 1028 134 l 1
 966 532 l 1
 604 550 l 1
 542 378 488 254 446 180 c 0
 380 66 318 -8 214 -30 c 1
 198 -32 186 -34 176 -34 c 0
 86 -34 -6 28 -38 124 c 1
 22 146 78 174 128 208 c 1
 214 264 292 338 364 432 c 0
 460 558 550 738 634 972 c 1
 704 1178 774 1438 796 1534 c 1
 1016 1572 l 1
672 2046 m 1
 812 2092 l 1
 972 1688 l 1
 902 1646 l 1
 672 2046 l 1
EndSplineSet
Validated: 1
EndChar

StartChar: Amacron
Encoding: 256 256 10
Width: 1504
VWidth: 0
Flags: HW
HStem: -34 21G<131 181> 0 88<784 860.043 1454.5 1468> 1552 20G<900.211 1019.69> 1706 122<670 1188>
DStem2: 634 972 716 896 0.283284 0.959036<-287.397 383.296>
LayerCount: 2
Fore
SplineSet
950 624 m 1
 840 1312 l 1
 836 1312 l 1
 716 896 l 1
 680 776 656 698 644 662 c 1
 950 624 l 1
1016 1572 m 1
 1276 164 l 1
 1496 100 l 1
 1468 0 l 1
 756 0 l 1
 784 88 l 1
 1028 134 l 1
 966 532 l 1
 604 550 l 1
 542 378 488 254 446 180 c 0
 380 66 318 -8 214 -30 c 1
 198 -32 186 -34 176 -34 c 0
 86 -34 -6 28 -38 124 c 1
 22 146 78 174 128 208 c 1
 214 264 292 338 364 432 c 0
 460 558 550 738 634 972 c 1
 704 1178 774 1438 796 1534 c 1
 1016 1572 l 1
670 1828 m 1
 1204 1828 l 1
 1188 1706 l 1
 654 1706 l 1
 670 1828 l 1
EndSplineSet
Validated: 1
EndChar

StartChar: Aogonek
Encoding: 260 260 11
Width: 1504
VWidth: 0
Flags: HW
HStem: -452 62<1434.79 1445.71> -34 21G<131 181> 0 88<784 860.043 1454.5 1468> 1552 20G<900.211 1019.69>
VStem: 1148 180<-299.306 -112.838>
DStem2: 634 972 716 896 0.283284 0.959036<-287.397 383.296>
LayerCount: 2
Fore
SplineSet
950 624 m 1
 840 1312 l 1
 836 1312 l 1
 716 896 l 1
 680 776 656 698 644 662 c 1
 950 624 l 1
1478 -390 m 1
 1436 -452 l 1
 1266 -434 1148 -342 1148 -236 c 0
 1148 -166 1196 -88 1294 0 c 1
 756 0 l 1
 784 88 l 1
 1028 134 l 1
 966 532 l 1
 604 550 l 1
 542 378 488 254 446 180 c 0
 380 66 318 -8 214 -30 c 1
 198 -32 186 -34 176 -34 c 0
 86 -34 -6 28 -38 124 c 1
 22 146 78 174 128 208 c 1
 214 264 292 338 364 432 c 0
 460 558 550 738 634 972 c 1
 704 1178 774 1438 796 1534 c 1
 1016 1572 l 1
 1276 164 l 1
 1496 100 l 1
 1468 0 l 1
 1390 0 l 1
 1348 -72 1328 -126 1328 -164 c 0
 1328 -256 1378 -332 1478 -390 c 1
EndSplineSet
Validated: 1
EndChar

StartChar: Aring
Encoding: 197 197 12
Width: 1504
VWidth: 0
Flags: HW
HStem: -34 21G<131 181> 0 88<784 860.043 1454.5 1468> 1552 20G<900.211 1019.69> 1686 58<857.65 999.136> 2036 58<848.486 982.704>
VStem: 724 86<1777.86 2009.91> 1030 86<1767.6 2002.2>
DStem2: 634 972 716 896 0.283284 0.959036<-287.397 383.296>
LayerCount: 2
Fore
SplineSet
950 624 m 1
 840 1312 l 1
 836 1312 l 1
 716 896 l 1
 680 776 656 698 644 662 c 1
 950 624 l 1
1016 1572 m 1
 1276 164 l 1
 1496 100 l 1
 1468 0 l 1
 756 0 l 1
 784 88 l 1
 1028 134 l 1
 966 532 l 1
 604 550 l 1
 542 378 488 254 446 180 c 0
 380 66 318 -8 214 -30 c 1
 198 -32 186 -34 176 -34 c 0
 86 -34 -6 28 -38 124 c 1
 22 146 78 174 128 208 c 1
 214 264 292 338 364 432 c 0
 460 558 550 738 634 972 c 1
 704 1178 774 1438 796 1534 c 1
 1016 1572 l 1
810 1900 m 0
 810 1818 854 1744 926 1744 c 0
 996 1744 1030 1790 1030 1882 c 0
 1030 1964 986 2036 914 2036 c 0
 848 2036 810 1974 810 1900 c 0
1116 1898 m 0
 1116 1784 1032 1686 912 1686 c 0
 800 1686 724 1764 724 1886 c 0
 724 1998 816 2094 928 2094 c 0
 1042 2094 1116 2012 1116 1898 c 0
EndSplineSet
Validated: 1
EndChar

StartChar: Atilde
Encoding: 195 195 13
Width: 1504
VWidth: 0
Flags: HW
HStem: -34 21G<131 181> 0 88<784 860.043 1454.5 1468> 1552 20G<900.211 1019.69> 1716 126<964.48 1134.9> 1754 126<699.826 818.598>
DStem2: 634 972 716 896 0.283284 0.959036<-287.397 383.296>
LayerCount: 2
Fore
SplineSet
950 624 m 1xe0
 840 1312 l 1
 836 1312 l 1
 716 896 l 1
 680 776 656 698 644 662 c 1
 950 624 l 1xe0
1016 1572 m 1
 1276 164 l 1
 1496 100 l 1
 1468 0 l 1
 756 0 l 1
 784 88 l 1
 1028 134 l 1
 966 532 l 1
 604 550 l 1
 542 378 488 254 446 180 c 0
 380 66 318 -8 214 -30 c 1
 198 -32 186 -34 176 -34 c 0
 86 -34 -6 28 -38 124 c 1
 22 146 78 174 128 208 c 1
 214 264 292 338 364 432 c 0
 460 558 550 738 634 972 c 1
 704 1178 774 1438 796 1534 c 1
 1016 1572 l 1
638 1706 m 1
 640 1712 642 1718 644 1726 c 0
 648 1740 668 1788 688 1820 c 1
 708 1850 746 1880 786 1880 c 0
 788 1880 790 1880 794 1880 c 1xe8
 798 1878 800 1878 802 1878 c 2
 1072 1842 l 1
 1076 1842 l 2xf0
 1094 1842 1120 1864 1134 1880 c 2xe8
 1144 1892 l 1
 1202 1890 l 1
 1200 1884 1198 1878 1196 1872 c 0
 1190 1856 1172 1808 1150 1778 c 0
 1126 1746 1086 1716 1044 1716 c 2
 1030 1716 l 1xf0
 760 1754 l 1
 756 1754 l 2xe8
 734 1754 708 1728 694 1710 c 2
 684 1696 l 1
 638 1706 l 1
EndSplineSet
Validated: 1
EndChar

StartChar: B
Encoding: 66 66 14
Width: 1412
VWidth: 0
Flags: HW
HStem: 0 112<529.095 995.664> 0 92<36 90.8141> 736 102<616 924.648> 1332 96<204 367.25> 1456 102<695.304 982.818>
VStem: 1152 228<1058.46 1295.74> 1162 240<272.701 542.727>
DStem2: 276.354 0 510.775 0 0.121869 0.992546<161.202 774.97 873.146 936.214>
LayerCount: 2
Fore
SplineSet
616 838 m 1x3c
 626 838 638 838 654 836 c 0
 686 834 712 832 736 832 c 0
 902 832 992 852 1080 948 c 0
 1120 992 1144 1046 1150 1108 c 0
 1150 1110 1150 1116 1152 1122 c 1
 1152 1128 1152 1134 1152 1136 c 0
 1152 1206 1128 1296 1050 1366 c 0
 992 1418 914 1448 818 1454 c 1
 808 1456 792 1456 770 1456 c 0
 750 1456 724 1454 692 1452 c 1
 616 838 l 1x3c
526 124 m 1
 592 116 660 112 728 112 c 2
 768 112 l 1
 884 114 974 136 1038 178 c 1
 1126 240 1162 314 1162 394 c 0xba
 1162 408 1162 420 1160 428 c 0
 1144 556 1034 668 874 708 c 0
 786 730 684 736 602 736 c 1
 526 124 l 1
10 0 m 1x7a
 36 92 l 1
 296 160 l 1
 456 1312 l 1
 180 1332 l 1
 204 1428 l 1
 402 1482 694 1558 896 1558 c 0
 1044 1558 1162 1526 1248 1464 c 1
 1322 1408 1380 1324 1380 1218 c 0x7c
 1380 1164 1362 1106 1328 1044 c 1
 1254 926 1160 856 1026 824 c 1
 1026 816 l 1
 1064 810 1186 778 1256 722 c 1
 1352 650 1402 546 1402 444 c 0
 1402 426 1402 414 1400 406 c 1
 1384 244 1252 122 1092 64 c 0
 934 6 838 0 656 0 c 2xba
 518 0 l 1
 10 0 l 1x7a
EndSplineSet
Validated: 1
EndChar

StartChar: C
Encoding: 67 67 15
Width: 1178
VWidth: 0
Flags: HW
HStem: -36 190<503.894 790.345> 1404 148<534.851 809.509>
VStem: 12 270<422.166 899.918> 896 272<1075.25 1317.73>
LayerCount: 2
Fore
SplineSet
896 1146 m 2
 896 1212 890 1282 836 1336 c 1
 802 1376 740 1404 670 1404 c 1
 544 1398 444 1326 378 1200 c 1
 324 1102 294 966 284 792 c 0
 282 774 282 744 282 706 c 0
 282 660 284 624 286 600 c 0
 300 464 348 330 436 250 c 0
 490 200 546 170 604 160 c 0
 626 156 648 154 674 154 c 0
 768 154 868 186 972 298 c 1
 1002 328 1024 358 1040 384 c 1
 1092 306 l 1
 1074 260 1048 218 1014 176 c 0
 938 84 844 22 734 -12 c 0
 682 -28 628 -36 574 -36 c 0
 524 -36 472 -28 420 -14 c 1
 204 52 26 244 12 562 c 1
 12 600 l 2
 12 1002 228 1316 420 1446 c 0
 498 1498 578 1530 662 1544 c 0
 702 1550 732 1552 752 1552 c 0
 864 1552 1048 1516 1138 1340 c 1
 1158 1304 1168 1262 1168 1214 c 2
 1168 1200 l 1
 1162 1102 1098 1016 1012 992 c 0
 988 986 966 982 944 982 c 1
 880 992 l 1
 890 1036 894 1078 896 1118 c 1
 896 1146 l 2
EndSplineSet
Validated: 1
EndChar

StartChar: Cacute
Encoding: 262 262 16
Width: 1178
VWidth: 0
Flags: HW
HStem: -36 190<503.275 789.263> 1404 146<531.23 809.296>
VStem: 12 268<435.319 915.375> 897 273<1074.1 1315.61>
LayerCount: 2
Fore
SplineSet
836 1336 m 1
 802 1376 740 1404 670 1404 c 1
 550 1398 440 1314 378 1200 c 0
 324 1102 294 966 284 792 c 0
 282 758 280 732 280 714 c 0
 280 640 284 526 330 412 c 0
 384 276 486 182 604 160 c 0
 626 156 648 154 670 154 c 0
 764 154 854 180 972 298 c 0
 1002 328 1024 358 1040 384 c 1
 1092 306 l 1
 1074 260 1048 218 1014 176 c 0
 938 84 844 22 734 -12 c 0
 682 -28 628 -36 574 -36 c 0
 524 -36 472 -28 420 -14 c 1
 204 52 26 244 12 562 c 0
 12 566 12 572 12 582 c 1
 10 592 10 598 10 602 c 0
 10 1000 228 1316 420 1446 c 0
 498 1498 578 1530 662 1544 c 0
 684 1548 714 1550 756 1550 c 0
 874 1550 1048 1516 1138 1340 c 1
 1160 1302 1170 1260 1170 1214 c 2
 1170 1200 l 1
 1168 1104 1098 1016 1012 992 c 0
 988 986 966 982 948 982 c 0
 922 982 898 986 880 992 c 1
 890 1036 894 1078 896 1118 c 0
 897 1131 897 1143 897 1156 c 0
 897 1227 882 1290 836 1336 c 1
1020 2070 m 1
 798 1686 l 1
 736 1724 l 1
 884 2118 l 1
 1020 2070 l 1
EndSplineSet
Validated: 1
EndChar

StartChar: Ccaron
Encoding: 268 268 17
Width: 1178
VWidth: 0
Flags: HW
HStem: -36 190<503.275 789.263> 1404 146<531.23 809.296>
VStem: 12 268<435.319 915.375> 897 273<1074.1 1315.61>
DStem2: 600 1970 502 1896 0.736873 -0.676031<0 250.267> 792 1796 786 1712 0.690318 0.723506<0 226.544>
LayerCount: 2
Fore
SplineSet
836 1336 m 1
 802 1376 740 1404 670 1404 c 1
 550 1398 440 1314 378 1200 c 0
 324 1102 294 966 284 792 c 0
 282 758 280 732 280 714 c 0
 280 640 284 526 330 412 c 0
 384 276 486 182 604 160 c 0
 626 156 648 154 670 154 c 0
 764 154 854 180 972 298 c 0
 1002 328 1024 358 1040 384 c 1
 1092 306 l 1
 1074 260 1048 218 1014 176 c 0
 938 84 844 22 734 -12 c 0
 682 -28 628 -36 574 -36 c 0
 524 -36 472 -28 420 -14 c 1
 204 52 26 244 12 562 c 0
 12 566 12 572 12 582 c 1
 10 592 10 598 10 602 c 0
 10 1000 228 1316 420 1446 c 0
 498 1498 578 1530 662 1544 c 0
 684 1548 714 1550 756 1550 c 0
 874 1550 1048 1516 1138 1340 c 1
 1160 1302 1170 1260 1170 1214 c 2
 1170 1200 l 1
 1168 1104 1098 1016 1012 992 c 0
 988 986 966 982 948 982 c 0
 922 982 898 986 880 992 c 1
 890 1036 894 1078 896 1118 c 0
 897 1131 897 1143 897 1156 c 0
 897 1227 882 1290 836 1336 c 1
720 1696 m 1
 502 1896 l 1
 600 1970 l 1
 780 1796 l 1
 792 1796 l 1
 942 1966 l 1
 994 1930 l 1
 786 1712 l 1
 720 1696 l 1
EndSplineSet
Validated: 1
EndChar

StartChar: Ccedilla
Encoding: 199 199 18
Width: 1178
VWidth: 0
Flags: HW
HStem: -472 21G<513.333 601> 1404 146<531.23 809.717>
VStem: 12 268<435.319 915.375> 600 162<-371.244 -212.843> 897 273<1072.49 1318.2>
LayerCount: 2
Fore
SplineSet
654 -92 m 1
 726 -154 762 -216 762 -274 c 0
 762 -358 682 -424 520 -472 c 1
 496 -400 l 1
 566 -376 600 -342 600 -300 c 0
 600 -266 570 -222 512 -166 c 1
 602 -36 l 1
 574 -36 l 2
 524 -36 472 -28 420 -14 c 1
 204 52 26 244 12 562 c 0
 12 566 12 572 12 582 c 1
 10 592 10 598 10 602 c 0
 10 1000 228 1316 420 1446 c 0
 498 1498 578 1530 662 1544 c 0
 684 1548 714 1550 756 1550 c 0
 874 1550 1048 1516 1138 1340 c 1
 1160 1302 1170 1260 1170 1214 c 2
 1170 1200 l 1
 1168 1104 1098 1016 1012 992 c 0
 988 986 966 982 948 982 c 0
 922 982 898 986 880 992 c 1
 891 1045 897 1096 897 1144 c 0
 897 1176 894 1207 888 1236 c 1
 872 1316 826 1358 760 1388 c 1
 734 1398 704 1404 670 1404 c 1
 550 1398 440 1314 378 1200 c 0
 324 1102 294 966 284 792 c 0
 282 758 280 732 280 714 c 0
 280 640 284 526 330 412 c 0
 384 276 486 182 604 160 c 0
 626 156 648 154 670 154 c 0
 764 154 854 180 972 298 c 0
 1002 328 1024 358 1040 384 c 1
 1092 306 l 1
 1074 260 1048 218 1014 176 c 0
 938 84 844 22 734 -12 c 0
 728 -14 718 -18 704 -20 c 1
 654 -92 l 1
EndSplineSet
Validated: 1
EndChar

StartChar: Cdotaccent
Encoding: 266 266 19
Width: 1178
VWidth: 0
Flags: HW
HStem: -36 190<503.275 789.263> 1404 146<531.23 809.296> 1694 286<644.75 850>
VStem: 12 268<435.319 915.375> 602 292<1738.25 1938.95> 897 273<1074.1 1315.61>
LayerCount: 2
Fore
SplineSet
836 1336 m 1
 802 1376 740 1404 670 1404 c 1
 550 1398 440 1314 378 1200 c 0
 324 1102 294 966 284 792 c 0
 282 758 280 732 280 714 c 0
 280 640 284 526 330 412 c 0
 384 276 486 182 604 160 c 0
 626 156 648 154 670 154 c 0
 764 154 854 180 972 298 c 0
 1002 328 1024 358 1040 384 c 1
 1092 306 l 1
 1074 260 1048 218 1014 176 c 0
 938 84 844 22 734 -12 c 0
 682 -28 628 -36 574 -36 c 0
 524 -36 472 -28 420 -14 c 1
 204 52 26 244 12 562 c 0
 12 566 12 572 12 582 c 1
 10 592 10 598 10 602 c 0
 10 1000 228 1316 420 1446 c 0
 498 1498 578 1530 662 1544 c 0
 684 1548 714 1550 756 1550 c 0
 874 1550 1048 1516 1138 1340 c 1
 1160 1302 1170 1260 1170 1214 c 2
 1170 1200 l 1
 1168 1104 1098 1016 1012 992 c 0
 988 986 966 982 948 982 c 0
 922 982 898 986 880 992 c 1
 890 1036 894 1078 896 1118 c 0
 897 1131 897 1143 897 1156 c 0
 897 1227 882 1290 836 1336 c 1
894 1842 m 0
 894 1760 826 1694 746 1694 c 0
 666 1694 602 1762 602 1844 c 0
 602 1922 668 1980 746 1980 c 0
 826 1980 894 1920 894 1842 c 0
EndSplineSet
Validated: 1
EndChar

StartChar: D
Encoding: 68 68 20
Width: 1718
VWidth: 0
Flags: HW
HStem: 0 132<536 887.379> 0 94<34 90.0407> 1454 92<696.9 1019.81>
VStem: 1460 250<667.478 1061.41>
DStem2: 272.354 0 519.792 0 0.121869 0.992546<163.146 1331.81>
LayerCount: 2
Fore
SplineSet
536 132 m 1xb0
 610 132 676 134 736 140 c 0
 1078 173 1318 314 1414 556 c 0
 1444 634 1460 718 1460 808 c 0
 1460 898 1446 1012 1392 1118 c 1
 1334 1238 1252 1326 1042 1404 c 1
 952 1436 868 1452 792 1454 c 0
 758 1454 726 1452 694 1448 c 1
 536 132 l 1xb0
10 0 m 1x70
 34 94 l 1
 292 160 l 1
 450 1320 l 1
 182 1340 l 1
 208 1430 l 1
 418 1508 666 1546 922 1546 c 0
 960 1546 990 1546 1010 1544 c 1
 1220 1534 1386 1494 1508 1392 c 1
 1666 1264 1710 1074 1710 930 c 0
 1710 902 1708 872 1704 842 c 0
 1672 538 1477 246 1118 98 c 0
 950 29 802 0 416 0 c 2
 10 0 l 1x70
EndSplineSet
Validated: 1
EndChar

StartChar: Dcaron
Encoding: 270 270 21
Width: 1718
VWidth: 0
Flags: HW
HStem: 0 132<536 887.379> 0 94<34 90.0407> 1454 92<695.5 1019.36>
VStem: 1460 250<668.908 1061.25>
DStem2: 272.354 0 519.792 0 0.121869 0.992546<163.146 1331.81> 950 1954 852 1880 0.736873 -0.676031<0 250.267> 1142 1780 1136 1696 0.690318 0.723506<0 226.544>
LayerCount: 2
Fore
SplineSet
536 132 m 1xb0
 538 132 542 132 548 132 c 1
 554 130 558 130 560 130 c 0
 614 130 672 134 736 140 c 0
 1078 172 1318 314 1414 556 c 0
 1444 634 1460 716 1460 804 c 0
 1460 894 1446 1012 1392 1118 c 1
 1334 1238 1252 1326 1042 1404 c 1
 952 1436 868 1452 792 1454 c 0
 758 1454 726 1452 694 1448 c 1
 536 132 l 1xb0
10 0 m 1x70
 34 94 l 1
 292 160 l 1
 450 1320 l 1
 182 1340 l 1
 208 1432 l 1
 402 1504 668 1546 918 1546 c 2
 980 1546 l 1
 1010 1546 l 1
 1210 1538 1386 1494 1508 1392 c 1
 1666 1264 1710 1074 1710 930 c 0
 1710 900 1708 870 1704 842 c 1
 1672 538 1477 246 1118 98 c 0
 950 29 802 0 416 0 c 2
 10 0 l 1x70
1070 1680 m 1
 852 1880 l 1
 950 1954 l 1
 1130 1780 l 1
 1142 1780 l 1
 1292 1950 l 1
 1344 1914 l 1
 1136 1696 l 1
 1070 1680 l 1
EndSplineSet
Validated: 1
EndChar

StartChar: Dcroat
Encoding: 272 272 22
Width: 1608
VWidth: 0
Flags: HW
HStem: 0 132<536 887.379> 0 94<34 90.0407> 662 122<190 362> 682 120<616 894> 1454 92<695.5 1019.81>
VStem: 1460 250<668.908 1061.25>
DStem2: 272.354 0 519.792 0 0.121869 0.992546<163.146 675.931 837.902 837.902>
LayerCount: 2
Fore
SplineSet
602 682 m 1x9c
 536 132 l 1
 538 132 542 132 548 132 c 1
 554 130 558 130 560 130 c 0
 614 130 672 134 736 140 c 0
 1078 172 1318 314 1414 556 c 0
 1444 634 1460 716 1460 804 c 0
 1460 894 1446 1012 1392 1118 c 1
 1334 1238 1252 1326 1042 1404 c 1
 952 1436 868 1452 792 1454 c 0
 758 1454 726 1452 694 1448 c 1
 616 802 l 1
 928 816 l 1
 894 694 l 1
 602 682 l 1x9c
10 0 m 1x6c
 34 94 l 1
 292 160 l 1
 362 670 l 1
 158 662 l 1
 190 784 l 1
 378 792 l 1
 450 1320 l 1
 182 1340 l 1
 208 1432 l 1
 402 1504 668 1546 916 1546 c 0
 958 1546 990 1546 1010 1544 c 1
 1220 1534 1386 1494 1508 1392 c 1
 1666 1264 1710 1074 1710 930 c 0
 1710 900 1708 870 1704 842 c 1
 1672 538 1477 246 1118 98 c 0
 950 29 802 0 416 0 c 2
 10 0 l 1x6c
EndSplineSet
Validated: 1
EndChar

StartChar: E
Encoding: 69 69 23
Width: 1490
VWidth: 0
Flags: HW
HStem: -4 102<38 94.9224> 4 116<544 1119.43> 704 178<1006.17 1156> 1380 94<206 325.36> 1414 134<704 1219.12>
VStem: 1274 106<1048 1104.83> 1296 108<438.116 544>
DStem2: 287.127 -4 528.775 -4 0.121869 0.992546<171.277 753.215 880.226 1367.2>
LayerCount: 2
Fore
SplineSet
10 -4 m 1xa2
 38 98 l 1
 308 166 l 1
 462 1352 l 1
 182 1380 l 1
 206 1474 l 1xb2
 384 1508 792 1548 1112 1548 c 0x2a
 1122 1548 1138 1548 1158 1546 c 0
 1178 1544 1194 1544 1204 1546 c 1
 1480 1540 l 1
 1380 1032 l 1
 1274 1048 l 1
 1236 1372 l 1
 1200 1380 l 1x34
 1086 1402 934 1414 744 1414 c 2
 704 1414 l 1
 636 840 l 1
 1198 882 l 1
 1156 704 l 1
 620 714 l 1
 544 120 l 1
 812 134 l 2
 966 142 1068 152 1122 164 c 1
 1178 254 1272 468 1296 558 c 1
 1404 544 l 1
 1404 536 l 2
 1404 322 1370 106 1308 0 c 1
 890 2 634 4 544 4 c 1x6a
 10 -4 l 1xa2
EndSplineSet
Validated: 1
EndChar

StartChar: Eacute
Encoding: 201 201 24
Width: 1490
VWidth: 0
Flags: HW
HStem: -4 102<38 94.9224> 4 118<544 1119.43> 704 176<996.579 1156> 1380 96<206 325.36> 1414 132<711.944 1216.88>
VStem: 1274 106<1048 1104.83> 1296 108<438.116 544>
DStem2: 287.127 -4 528.529 -4 0.121869 0.992546<171.277 753.215 880.226 1367.2>
LayerCount: 2
Fore
SplineSet
10 -4 m 1xa2
 38 98 l 1
 308 166 l 1
 462 1352 l 1
 182 1380 l 1
 206 1476 l 1xb2
 380 1510 786 1546 1112 1546 c 2
 1204 1546 l 1x2a
 1480 1540 l 1
 1380 1032 l 1
 1274 1048 l 1
 1236 1372 l 1
 1200 1380 l 1x34
 1078 1402 926 1414 744 1414 c 2
 704 1414 l 1
 636 840 l 1
 1198 880 l 1
 1156 704 l 1
 620 714 l 1
 544 122 l 1
 812 134 l 1
 966 142 1068 152 1122 164 c 1
 1178 254 1272 468 1296 558 c 1
 1404 544 l 1
 1404 536 l 2
 1404 322 1370 106 1308 0 c 1
 890 2 634 4 544 4 c 1x6a
 10 -4 l 1xa2
1260 2054 m 1
 1038 1670 l 1
 976 1708 l 1
 1124 2102 l 1
 1260 2054 l 1
EndSplineSet
Validated: 1
EndChar

StartChar: Ecaron
Encoding: 282 282 25
Width: 1490
VWidth: 0
Flags: HW
HStem: -4 102<38 94.9224> 4 118<544 1119.43> 704 176<996.579 1156> 1380 96<206 325.36> 1414 132<711.944 1216.88>
VStem: 1274 106<1048 1104.83> 1296 108<438.116 544>
DStem2: 287.127 -4 528.529 -4 0.121869 0.992546<171.277 753.215 880.226 1367.2> 840 1954 742 1880 0.736873 -0.676031<0 250.267> 1032 1780 1026 1696 0.690318 0.723506<0 226.544>
LayerCount: 2
Fore
SplineSet
10 -4 m 1xa2
 38 98 l 1
 308 166 l 1
 462 1352 l 1
 182 1380 l 1
 206 1476 l 1xb2
 380 1510 786 1546 1112 1546 c 2
 1204 1546 l 1x2a
 1480 1540 l 1
 1380 1032 l 1
 1274 1048 l 1
 1236 1372 l 1
 1200 1380 l 1x34
 1078 1402 926 1414 744 1414 c 2
 704 1414 l 1
 636 840 l 1
 1198 880 l 1
 1156 704 l 1
 620 714 l 1
 544 122 l 1
 812 134 l 1
 966 142 1068 152 1122 164 c 1
 1178 254 1272 468 1296 558 c 1
 1404 544 l 1
 1404 536 l 2
 1404 322 1370 106 1308 0 c 1
 890 2 634 4 544 4 c 1x6a
 10 -4 l 1xa2
960 1680 m 1
 742 1880 l 1
 840 1954 l 1
 1020 1780 l 1
 1032 1780 l 1
 1182 1950 l 1
 1234 1914 l 1
 1026 1696 l 1
 960 1680 l 1
EndSplineSet
Validated: 1
EndChar

StartChar: Ecircumflex
Encoding: 202 202 26
Width: 1490
VWidth: 0
Flags: HW
HStem: -4 102<38 94.9224> 4 118<544 1119.43> 704 176<996.579 1156> 1380 96<206 325.36> 1414 132<711.944 1216.88>
VStem: 1274 106<1048 1104.83> 1296 108<438.116 544>
DStem2: 287.127 -4 528.529 -4 0.121869 0.992546<171.277 753.215 880.226 1367.2>
LayerCount: 2
Fore
SplineSet
10 -4 m 1xa2
 38 98 l 1
 308 166 l 1
 462 1352 l 1
 182 1380 l 1
 206 1476 l 1xb2
 380 1510 786 1546 1112 1546 c 2
 1204 1546 l 1x2a
 1480 1540 l 1
 1380 1032 l 1
 1274 1048 l 1
 1236 1372 l 1
 1200 1380 l 1x34
 1078 1402 926 1414 744 1414 c 2
 704 1414 l 1
 636 840 l 1
 1198 880 l 1
 1156 704 l 1
 620 714 l 1
 544 122 l 1
 812 134 l 1
 966 142 1068 152 1122 164 c 1
 1178 254 1272 468 1296 558 c 1
 1404 544 l 1
 1404 536 l 2
 1404 322 1370 106 1308 0 c 1
 890 2 634 4 544 4 c 1x6a
 10 -4 l 1xa2
1014 1950 m 1
 1230 1726 l 1
 1170 1682 l 1
 972 1814 l 1
 960 1814 l 1
 790 1680 l 1
 744 1716 l 1
 948 1934 l 1
 1014 1950 l 1
EndSplineSet
Validated: 1
EndChar

StartChar: Edieresis
Encoding: 203 203 27
Width: 1490
VWidth: 0
Flags: HW
HStem: -4 102<38 94.9224> 4 118<544 1119.43> 704 176<996.579 1156> 1380 96<206 325.36> 1414 132<711.944 1216.88> 1712 192<738.648 911.259 1062.65 1236.67>
VStem: 722 206<1729 1886.53> 1046 208<1730.33 1885.94> 1274 106<1048 1104.83> 1296 108<438.116 544>
DStem2: 287.127 -4 528.529 -4 0.121869 0.992546<171.277 753.215 880.226 1367.2>
LayerCount: 2
Fore
SplineSet
10 -4 m 1xa740
 38 98 l 1
 308 166 l 1
 462 1352 l 1
 182 1380 l 1
 206 1476 l 1xb740
 380 1510 786 1546 1112 1546 c 2
 1204 1546 l 1x2f40
 1480 1540 l 1
 1380 1032 l 1
 1274 1048 l 1
 1236 1372 l 1
 1200 1380 l 1x3780
 1078 1402 926 1414 744 1414 c 2
 704 1414 l 1
 636 840 l 1
 1198 880 l 1
 1156 704 l 1
 620 714 l 1
 544 122 l 1
 812 134 l 1
 966 142 1068 152 1122 164 c 1
 1178 254 1272 468 1296 558 c 1
 1404 544 l 1
 1404 536 l 2
 1404 322 1370 106 1308 0 c 1
 890 2 634 4 544 4 c 1x6f40
 10 -4 l 1xa740
1254 1810 m 0
 1254 1752 1204 1712 1148 1712 c 0
 1094 1712 1046 1752 1046 1810 c 0
 1046 1866 1094 1904 1148 1904 c 0
 1204 1904 1254 1864 1254 1810 c 0
928 1810 m 0
 928 1752 880 1712 824 1712 c 0
 770 1712 722 1752 722 1810 c 0
 722 1866 770 1904 824 1904 c 0
 880 1904 928 1864 928 1810 c 0
EndSplineSet
Validated: 1
EndChar

StartChar: Edotaccent
Encoding: 278 278 28
Width: 1490
VWidth: 0
Flags: HW
HStem: -4 102<38 94.9224> 4 118<544 1119.43> 704 176<996.579 1156> 1380 96<206 325.36> 1414 132<711.944 1216.88> 1678 286<884.75 1090>
VStem: 842 292<1722.25 1922.95> 1274 106<1048 1104.83> 1296 108<438.116 544>
DStem2: 287.127 -4 528.529 -4 0.121869 0.992546<171.277 753.215 880.226 1367.2>
LayerCount: 2
Fore
SplineSet
10 -4 m 1xa680
 38 98 l 1
 308 166 l 1
 462 1352 l 1
 182 1380 l 1
 206 1476 l 1xb680
 380 1510 786 1546 1112 1546 c 2
 1204 1546 l 1x2e80
 1480 1540 l 1
 1380 1032 l 1
 1274 1048 l 1
 1236 1372 l 1
 1200 1380 l 1x37
 1078 1402 926 1414 744 1414 c 2
 704 1414 l 1
 636 840 l 1
 1198 880 l 1
 1156 704 l 1
 620 714 l 1
 544 122 l 1
 812 134 l 1
 966 142 1068 152 1122 164 c 1
 1178 254 1272 468 1296 558 c 1
 1404 544 l 1
 1404 536 l 2
 1404 322 1370 106 1308 0 c 1
 890 2 634 4 544 4 c 1x6e80
 10 -4 l 1xa680
1134 1826 m 0
 1134 1744 1066 1678 986 1678 c 0
 906 1678 842 1746 842 1828 c 0
 842 1906 908 1964 986 1964 c 0
 1066 1964 1134 1904 1134 1826 c 0
EndSplineSet
Validated: 1
EndChar

StartChar: Egrave
Encoding: 200 200 29
Width: 1490
VWidth: 0
Flags: HW
HStem: -4 102<38 94.9224> 4 118<544 1119.43> 704 176<996.579 1156> 1380 96<206 325.36> 1414 132<711.944 1216.88>
VStem: 1274 106<1048 1104.83> 1296 108<438.116 544>
DStem2: 287.127 -4 528.529 -4 0.121869 0.992546<171.277 753.215 880.226 1367.2>
LayerCount: 2
Fore
SplineSet
10 -4 m 1xa2
 38 98 l 1
 308 166 l 1
 462 1352 l 1
 182 1380 l 1
 206 1476 l 1xb2
 380 1510 786 1546 1112 1546 c 2
 1204 1546 l 1x2a
 1480 1540 l 1
 1380 1032 l 1
 1274 1048 l 1
 1236 1372 l 1
 1200 1380 l 1x34
 1078 1402 926 1414 744 1414 c 2
 704 1414 l 1
 636 840 l 1
 1198 880 l 1
 1156 704 l 1
 620 714 l 1
 544 122 l 1
 812 134 l 1
 966 142 1068 152 1122 164 c 1
 1178 254 1272 468 1296 558 c 1
 1404 544 l 1
 1404 536 l 2
 1404 322 1370 106 1308 0 c 1
 890 2 634 4 544 4 c 1x6a
 10 -4 l 1xa2
740 2046 m 1
 880 2092 l 1
 1040 1688 l 1
 970 1646 l 1
 740 2046 l 1
EndSplineSet
Validated: 1
EndChar

StartChar: Emacron
Encoding: 274 274 30
Width: 1490
VWidth: 0
Flags: HW
HStem: -4 102<38 94.9224> 4 118<544 1119.43> 704 176<996.579 1156> 1380 96<206 325.36> 1414 132<711.944 1216.88> 1706 122<738 1256>
VStem: 1274 106<1048 1104.83> 1296 108<438.116 544>
DStem2: 287.127 -4 528.529 -4 0.121869 0.992546<171.277 753.215 880.226 1367.2>
LayerCount: 2
Fore
SplineSet
10 -4 m 1xa5
 38 98 l 1
 308 166 l 1
 462 1352 l 1
 182 1380 l 1
 206 1476 l 1xb5
 380 1510 786 1546 1112 1546 c 2
 1204 1546 l 1x2d
 1480 1540 l 1
 1380 1032 l 1
 1274 1048 l 1
 1236 1372 l 1
 1200 1380 l 1x36
 1078 1402 926 1414 744 1414 c 2
 704 1414 l 1
 636 840 l 1
 1198 880 l 1
 1156 704 l 1
 620 714 l 1
 544 122 l 1
 812 134 l 1
 966 142 1068 152 1122 164 c 1
 1178 254 1272 468 1296 558 c 1
 1404 544 l 1
 1404 536 l 2
 1404 322 1370 106 1308 0 c 1
 890 2 634 4 544 4 c 1x6d
 10 -4 l 1xa5
738 1828 m 1
 1272 1828 l 1
 1256 1706 l 1
 722 1706 l 1
 738 1828 l 1
EndSplineSet
Validated: 1
EndChar

StartChar: Eng
Encoding: 330 330 31
Width: 1806
VWidth: 0
Flags: HW
HStem: -468 190<963.113 1163.22> -36 21G<155 237> 1386 100<186 198.623 1178 1261.54> 1442 94<1784.45 1838> 1524 20G<651 702.385 1667 1705>
VStem: 434 128<858.096 1238>
DStem2: 800 1334 568 1238 0.471452 -0.881892<-24.7152 1132.01> 1338 338 1466 202 0.0852912 0.996356<0 1031.76>
LayerCount: 2
Fore
SplineSet
1144 1386 m 1xe4
 1178 1486 l 1xe4
 1296 1512 1406 1528 1508 1536 c 0xd4
 1588 1542 1648 1544 1686 1544 c 0xcc
 1724 1544 1784 1542 1864 1536 c 1
 1838 1442 l 1xd4
 1584 1374 l 1
 1522 752 1484 362 1466 202 c 0
 1430 -120 1410 -190 1324 -296 c 0
 1298 -328 1266 -358 1232 -384 c 1
 1136 -448 1058 -468 988 -468 c 2
 974 -468 l 1
 896 -462 830 -426 806 -362 c 0
 800 -344 796 -326 796 -308 c 2
 796 -296 l 1
 798 -258 826 -200 868 -160 c 1
 926 -216 986 -258 1066 -274 c 1
 1088 -276 1104 -278 1114 -278 c 0
 1138 -278 1162 -274 1176 -266 c 1
 1194 -258 1212 -242 1222 -216 c 0
 1224 -210 1228 -198 1230 -182 c 1
 1236 -158 1242 -108 1248 -34 c 1
 568 1238 l 1
 562 1238 l 1
 538 602 l 2
 528 362 508 224 406 88 c 1
 350 16 276 -36 198 -36 c 2
 190 -36 l 1
 120 -30 64 8 34 64 c 1
 24 86 16 106 12 128 c 1
 90 162 164 202 246 304 c 0
 302 374 346 468 380 590 c 1
 410 712 428 874 434 1072 c 1
 436 1184 438 1268 438 1326 c 1
 160 1392 l 1
 186 1486 l 1
 296 1508 404 1524 508 1532 c 0
 548 1536 610 1540 692 1542 c 1
 800 1334 l 1
 1338 338 l 1
 1426 1366 l 1
 1144 1386 l 1xe4
EndSplineSet
Validated: 1
EndChar

StartChar: Eogonek
Encoding: 280 280 32
Width: 1490
VWidth: 0
Flags: HW
HStem: -452 62<1344.79 1355.71> -4 102<38 94.9224> 4 118<544 1119.43> 704 176<996.579 1156> 1380 96<206 325.36> 1414 132<711.944 1216.88>
VStem: 1058 180<-299.306 -108.69> 1274 106<1048 1104.83> 1296 108<438.116 544>
DStem2: 232.119 -452 473.522 -452 0.121869 0.992546<622.641 1204.58 1331.59 1818.57>
LayerCount: 2
Fore
SplineSet
1388 -390 m 1xb680
 1346 -452 l 1
 1176 -434 1058 -342 1058 -236 c 0
 1058 -166 1086 -106 1204 0 c 1
 1136 0 1016 0 844 2 c 0
 670 4 570 4 544 4 c 2xb680
 10 -4 l 1
 38 98 l 1
 308 166 l 1
 462 1352 l 1
 182 1380 l 1
 206 1476 l 1xda80
 380 1510 786 1546 1112 1546 c 2
 1204 1546 l 1x9680
 1480 1540 l 1
 1380 1032 l 1
 1274 1048 l 1
 1236 1372 l 1
 1200 1380 l 1x9b
 1078 1402 926 1414 744 1414 c 2
 704 1414 l 1
 636 840 l 1
 1198 880 l 1
 1156 704 l 1
 620 714 l 1
 544 122 l 1
 812 134 l 1
 966 142 1068 152 1122 164 c 1
 1178 254 1272 468 1296 558 c 1
 1404 544 l 1
 1404 536 l 2
 1404 322 1370 106 1308 0 c 1
 1300 0 l 1
 1258 -72 1238 -126 1238 -164 c 0
 1238 -256 1288 -332 1388 -390 c 1xb680
EndSplineSet
Validated: 1
EndChar

StartChar: Eth
Encoding: 208 208 33
Width: 1608
VWidth: 0
Flags: HW
HStem: 0 132<536 887.379> 0 94<34 90.0407> 662 122<190 362> 682 120<616 894> 1454 92<695.5 1019.81>
VStem: 1460 250<668.908 1061.25>
DStem2: 272.354 0 519.792 0 0.121869 0.992546<163.146 675.931 837.902 837.902>
LayerCount: 2
Fore
SplineSet
602 682 m 1x9c
 536 132 l 1
 538 132 542 132 548 132 c 1
 554 130 558 130 560 130 c 0
 614 130 672 134 736 140 c 0
 1078 172 1318 314 1414 556 c 0
 1444 634 1460 716 1460 804 c 0
 1460 894 1446 1012 1392 1118 c 1
 1334 1238 1252 1326 1042 1404 c 1
 952 1436 868 1452 792 1454 c 0
 758 1454 726 1452 694 1448 c 1
 616 802 l 1
 928 816 l 1
 894 694 l 1
 602 682 l 1x9c
10 0 m 1x6c
 34 94 l 1
 292 160 l 1
 362 670 l 1
 158 662 l 1
 190 784 l 1
 378 792 l 1
 450 1320 l 1
 182 1340 l 1
 208 1432 l 1
 402 1504 668 1546 916 1546 c 0
 958 1546 990 1546 1010 1544 c 1
 1220 1534 1386 1494 1508 1392 c 1
 1666 1264 1710 1074 1710 930 c 0
 1710 900 1708 870 1704 842 c 1
 1672 538 1477 246 1118 98 c 0
 950 29 802 0 416 0 c 2
 10 0 l 1x6c
EndSplineSet
Validated: 1
EndChar

StartChar: Euro
Encoding: 8364 8364 34
Width: 1346
VWidth: 0
Flags: HW
HStem: -30 132<627.35 979.719> 588 128<58 144 414 970> 800 128<92 166 444 1052> 1422 116<730.974 1089.99>
VStem: 144 268<357.427 588 716 799.149> 200 244<928 1038.03> 1136 108<429.495 476> 1184 104<1030 1079.49>
LayerCount: 2
Fore
SplineSet
1136 476 m 1xfa
 1244 492 l 1
 1238 134 l 1
 1072 14 938 -30 740 -30 c 0
 390 -30 144 198 144 584 c 2
 144 588 l 1xfa
 20 588 l 1
 58 716 l 1
 152 716 l 1
 158 754 162 782 166 800 c 1
 54 800 l 1
 92 928 l 1
 200 928 l 1
 254 1090 338 1228 464 1348 c 1
 590 1466 776 1538 992 1538 c 0
 1150 1538 1278 1498 1376 1416 c 1
 1288 1014 l 1
 1184 1030 l 1
 1166 1296 l 1
 1112 1378 1052 1422 908 1422 c 0
 686 1422 514 1240 444 928 c 1xf5
 1104 928 l 1
 1052 800 l 1
 422 800 l 1
 422 798 l 1
 416 760 414 734 414 716 c 1
 1022 716 l 1
 970 588 l 1
 412 588 l 1
 422 274 574 102 816 102 c 0
 914 102 992 138 1054 210 c 1
 1136 476 l 1xfa
EndSplineSet
Validated: 1
EndChar

StartChar: F
Encoding: 70 70 35
Width: 1490
VWidth: 0
Flags: HW
HStem: -2 100<38 94.9224 743.803 836> 664 124<634 836.138> 1380 94<206 325.36> 1414 134<704 1184.05>
VStem: 1264 116<1028 1087.69>
DStem2: 287.372 -2 535.056 -2 0.121869 0.992546<169.262 701.329 826.355 1365.19>
LayerCount: 2
Fore
SplineSet
836 -2 m 1xd8
 10 -2 l 1
 38 98 l 1
 308 166 l 1
 462 1352 l 1
 182 1380 l 1
 206 1474 l 1xe8
 384 1508 792 1548 1112 1548 c 0
 1122 1548 1138 1548 1158 1546 c 0
 1178 1544 1194 1544 1204 1546 c 1
 1480 1540 l 1
 1380 1012 l 1
 1264 1028 l 1
 1228 1362 l 1
 1190 1368 l 1
 1064 1390 882 1406 780 1412 c 1
 704 1414 l 1
 634 788 l 1
 1198 828 l 1
 1156 642 l 1
 618 664 l 1
 552 136 l 1
 860 98 l 1
 836 -2 l 1xd8
EndSplineSet
Validated: 1
EndChar

StartChar: G
Encoding: 71 71 36
Width: 1532
VWidth: 0
Flags: HW
HStem: -40 134<605.27 1025.82> 1440 124<658.614 1115.79>
VStem: 12 280<448.66 927.653> 1246 122<1060 1111.93>
DStem2: 1024.43 -40 1265.83 -40 0.121869 0.992546<162.546 584.156>
LayerCount: 2
Fore
SplineSet
1368 1042 m 1
 1260 1060 l 1
 1246 1298 l 1
 1196 1376 1064 1440 858 1440 c 0
 712 1440 582 1390 472 1286 c 0
 360 1180 292 990 292 744 c 2
 292 668 l 1
 308 340 494 94 814 94 c 0
 924 94 1002 114 1048 152 c 1
 1094 540 l 1
 808 586 l 1
 834 688 l 1
 1524 688 l 1
 1498 596 l 1
 1336 544 l 1
 1284 108 l 1
 1134 10 922 -40 648 -40 c 0
 246 -40 28 220 12 578 c 0
 12 584 12 594 12 608 c 1
 10 620 10 630 10 636 c 0
 10 862 87 1070 208 1216 c 0
 329 1362 490 1470 668 1524 c 0
 756 1550 846 1564 936 1564 c 0
 1164 1564 1336 1524 1450 1442 c 1
 1368 1042 l 1
EndSplineSet
Validated: 1
EndChar

StartChar: Gbreve
Encoding: 286 286 37
Width: 1532
VWidth: 0
Flags: HW
HStem: -40 134<605.273 1025.82> 1440 124<658.138 1115.79> 1700 132<927.131 1168.74>
VStem: 12 280<448.66 927.653> 816 66<1887.71 1925.73> 1246 122<1060 1111.93>
DStem2: 1024.43 -40 1265.83 -40 0.121869 0.992546<162.546 584.156>
LayerCount: 2
Fore
SplineSet
1368 1042 m 1
 1260 1060 l 1
 1246 1298 l 1
 1196 1376 1064 1440 858 1440 c 0
 712 1440 580 1390 470 1286 c 0
 358 1180 290 990 290 744 c 0
 290 736 290 724 292 708 c 1
 292 690 292 678 292 668 c 0
 308 340 494 94 814 94 c 0
 924 94 1002 114 1048 152 c 1
 1094 540 l 1
 808 586 l 1
 834 688 l 1
 1524 688 l 1
 1498 596 l 1
 1336 544 l 1
 1284 108 l 1
 1134 10 922 -40 648 -40 c 0
 246 -40 30 220 12 578 c 0
 12 584 12 594 12 608 c 1
 10 620 10 630 10 636 c 0
 10 862 87 1070 208 1216 c 0
 329 1362 490 1470 668 1524 c 0
 756 1550 846 1564 936 1564 c 0
 1164 1564 1336 1524 1450 1442 c 1
 1368 1042 l 1
816 1916 m 1
 872 1954 l 1
 882 1934 l 1
 908 1878 972 1832 1046 1832 c 0
 1118 1832 1176 1866 1218 1936 c 2
 1230 1956 l 1
 1280 1922 l 1
 1272 1898 l 2
 1234 1786 1158 1700 1046 1700 c 0
 928 1700 848 1786 822 1892 c 2
 816 1916 l 1
EndSplineSet
Validated: 1
EndChar

StartChar: Gcommaaccent
Encoding: 290 290 38
Width: 1532
VWidth: 0
Flags: HW
HStem: -40 134<610.858 688> 1440 124<658.138 1115.79>
VStem: 12 280<448.66 927.653> 706 128<-296.418 -147.792> 1246 122<1060 1111.93>
DStem2: 975.557 -438 1216.96 -438 0.121869 0.992546<561.747 985.145>
LayerCount: 2
Fore
SplineSet
674 -48 m 0
 678 -46 682 -42 688 -40 c 1
 648 -40 l 2
 246 -40 30 220 12 578 c 0
 12 584 12 594 12 608 c 1
 10 620 10 630 10 636 c 0
 10 862 87 1070 208 1216 c 0
 329 1362 490 1470 668 1524 c 0
 756 1550 846 1564 936 1564 c 0
 1164 1564 1336 1524 1450 1442 c 1
 1368 1042 l 1
 1260 1060 l 1
 1246 1298 l 1
 1196 1376 1064 1440 858 1440 c 0
 712 1440 580 1390 470 1286 c 0
 358 1180 290 990 290 744 c 0
 290 736 290 724 292 708 c 1
 292 690 292 678 292 668 c 0
 308 340 494 94 814 94 c 0
 924 94 1002 114 1048 152 c 1
 1094 540 l 1
 808 586 l 1
 834 688 l 1
 1524 688 l 1
 1498 596 l 1
 1336 544 l 1
 1284 108 l 1
 1160 26 984 -22 756 -36 c 1
 780 -44 806 -68 822 -108 c 0
 830 -126 834 -148 834 -170 c 0
 834 -178 832 -190 830 -206 c 1
 816 -272 778 -320 720 -366 c 0
 690 -390 652 -414 604 -438 c 1
 580 -398 l 1
 618 -376 654 -354 678 -316 c 1
 700 -284 706 -238 706 -236 c 0
 706 -232 704 -224 702 -214 c 0
 694 -172 646 -130 622 -116 c 1
 630 -88 648 -66 674 -48 c 0
EndSplineSet
Validated: 1
EndChar

StartChar: Gdotaccent
Encoding: 288 288 39
Width: 1532
VWidth: 0
Flags: HW
HStem: -40 134<605.273 1025.82> 1440 124<658.138 1115.79> 1678 286<944.75 1150>
VStem: 12 280<448.66 927.653> 902 292<1722.25 1922.95> 1246 122<1060 1111.93>
DStem2: 1024.43 -40 1265.83 -40 0.121869 0.992546<162.546 584.156>
LayerCount: 2
Fore
SplineSet
1368 1042 m 1
 1260 1060 l 1
 1246 1298 l 1
 1196 1376 1064 1440 858 1440 c 0
 712 1440 580 1390 470 1286 c 0
 358 1180 290 990 290 744 c 0
 290 736 290 724 292 708 c 1
 292 690 292 678 292 668 c 0
 308 340 494 94 814 94 c 0
 924 94 1002 114 1048 152 c 1
 1094 540 l 1
 808 586 l 1
 834 688 l 1
 1524 688 l 1
 1498 596 l 1
 1336 544 l 1
 1284 108 l 1
 1134 10 922 -40 648 -40 c 0
 246 -40 30 220 12 578 c 0
 12 584 12 594 12 608 c 1
 10 620 10 630 10 636 c 0
 10 862 87 1070 208 1216 c 0
 329 1362 490 1470 668 1524 c 0
 756 1550 846 1564 936 1564 c 0
 1164 1564 1336 1524 1450 1442 c 1
 1368 1042 l 1
1194 1826 m 0
 1194 1744 1126 1678 1046 1678 c 0
 966 1678 902 1746 902 1828 c 0
 902 1906 968 1964 1046 1964 c 0
 1126 1964 1194 1904 1194 1826 c 0
EndSplineSet
Validated: 1
EndChar

StartChar: Germandbls
Encoding: 7838 7838 40
Width: 1686
VWidth: 0
Flags: HW
HStem: -68 126<1017 1289.61> -2 100<38 94.9224> 1464 84<895.003 1094>
VStem: 650 282<138.743 375.796> 836 230<1003.97 1261.79> 1378 238<166.112 423.968> 1424 248<1077.97 1362.6>
DStem2: 279.268 -68 507.896 -68 0.121869 0.992546<235.757 1317.8> 1180 924 964 808 0.72311 -0.690732<-181.728 513.357>
LayerCount: 2
Fore
SplineSet
1564 1438 m 1x6c
 1608 1398 1638 1354 1656 1308 c 1
 1666 1278 1672 1250 1672 1220 c 0
 1672 1204 1670 1182 1664 1156 c 0
 1638 1046 1550 1000 1478 1000 c 0
 1444 1000 1410 1008 1376 1026 c 1
 1394 1076 1408 1128 1416 1178 c 0
 1422 1216 1424 1244 1424 1264 c 0
 1424 1322 1412 1362 1366 1404 c 1
 1340 1426 1316 1438 1294 1440 c 1
 1288 1442 1282 1442 1272 1442 c 0
 1232 1442 1190 1430 1144 1380 c 1
 1106 1342 1082 1290 1072 1228 c 0
 1068 1208 1066 1188 1066 1170 c 0x6a
 1066 1152 1068 1132 1072 1112 c 0
 1086 1022 1108 996 1180 924 c 0
 1208 896 1252 854 1314 796 c 0
 1436 682 1500 624 1558 530 c 1
 1590 476 1608 422 1614 372 c 0
 1616 362 1616 350 1616 332 c 0
 1616 260 1594 180 1530 108 c 1
 1416 -26 1224 -68 1096 -68 c 0
 1034 -68 972 -58 908 -40 c 1
 804 -6 730 50 686 124 c 1
 668 158 656 188 652 216 c 1
 650 222 650 230 650 240 c 0
 650 288 666 350 712 396 c 1
 754 442 816 468 888 468 c 0
 914 468 942 464 968 456 c 1
 950 408 940 368 936 338 c 1
 934 312 932 292 932 278 c 0
 932 236 938 204 952 178 c 1
 974 124 1038 78 1104 64 c 0
 1122 60 1140 58 1156 58 c 0xb4
 1252 58 1332 118 1362 188 c 0
 1372 210 1378 238 1378 272 c 0
 1378 288 1378 300 1376 308 c 0
 1360 410 1308 470 1220 552 c 1
 1090 678 1004 762 964 808 c 0
 870 918 836 984 836 1090 c 2
 836 1104 l 1
 838 1158 852 1212 880 1262 c 1
 926 1350 998 1414 1094 1454 c 1
 1094 1464 l 1
 1076 1464 l 2
 996 1464 890 1442 804 1370 c 0
 740 1316 694 1244 668 1152 c 0
 658 1120 650 1082 646 1036 c 1
 516 -2 l 1
 10 -2 l 1
 38 98 l 1
 308 166 l 1
 408 954 l 1
 434 1124 444 1174 502 1264 c 0
 613 1438 814 1514 1038 1540 c 1
 1080 1546 1128 1548 1182 1548 c 0
 1264 1548 1334 1540 1396 1522 c 1
 1462 1504 1518 1476 1564 1438 c 1x6c
EndSplineSet
Validated: 1
EndChar

StartChar: H
Encoding: 72 72 41
Width: 1938
VWidth: 0
Flags: HW
HStem: 0 100<32 79.5457 720.02 774 992 1062.8 1723.21 1744> 1388 94<204 280.352 1160 1417.86> 1412 120<702 827.952> 1440 92<822.048 948 1852.39 1904>
DStem2: 288.354 0 527.792 0 0.121869 0.992546<162.171 736.454 875.619 1358.87> 1248.81 0 1488.35 0 0.121869 0.992546<190.395 747.582 872.608 1386.61>
LayerCount: 2
Fore
SplineSet
1420 1376 m 1xa0
 1136 1386 l 1
 1160 1480 l 1
 1292 1506 1422 1524 1552 1532 c 0
 1614 1536 1676 1538 1740 1538 c 0
 1804 1538 1866 1536 1928 1532 c 1x90
 1904 1438 l 1
 1652 1370 l 1
 1508 160 l 1
 1768 100 l 1
 1744 0 l 1
 968 0 l 1
 992 96 l 1
 1266 140 l 1
 1340 742 l 1
 614 702 l 1
 544 132 l 1
 804 100 l 1
 774 0 l 1
 10 0 l 1
 32 96 l 1
 308 160 l 1
 460 1348 l 1
 180 1388 l 1
 204 1482 l 1xc0
 330 1508 448 1526 556 1532 c 0
 620 1536 686 1538 752 1538 c 0
 826 1538 900 1536 972 1532 c 1
 948 1440 l 1x90
 702 1412 l 1
 632 840 l 1
 1356 866 l 1
 1420 1376 l 1xa0
EndSplineSet
Validated: 1
EndChar

StartChar: Hbar
Encoding: 294 294 42
Width: 1938
VWidth: 0
Flags: HW
HStem: 0 100<32 79.5457 720.02 774 992 1062.8 1723.21 1744> 1048 112<310 424> 1068 108<674 907.808> 1388 94<204 280.352 1160 1417.39> 1412 128<702 827.952> 1440 92<822.048 948 1852.39 1904>
DStem2: 288.354 0 527.792 0 0.121869 0.992546<162.171 738.682 875.619 1064.66 1214.23 1358.87> 1248.81 0 1488.35 0 0.121869 0.992546<190.395 747.582 872.608 1118.45 1257.85 1386.61>
LayerCount: 2
Fore
SplineSet
1386 1110 m 1xa0
 660 1068 l 1
 632 840 l 1
 1356 866 l 1
 1386 1110 l 1xa0
1420 1376 m 1
 1136 1386 l 1
 1160 1480 l 1
 1290 1506 1422 1524 1552 1532 c 0
 1614 1536 1676 1538 1742 1538 c 0
 1804 1538 1866 1536 1928 1532 c 1xa4
 1904 1438 l 1
 1652 1370 l 1
 1634 1220 l 1
 1734 1226 l 1
 1716 1128 l 1
 1622 1122 l 1
 1508 160 l 1
 1768 100 l 1
 1744 0 l 1
 968 0 l 1
 992 96 l 1
 1266 140 l 1
 1340 742 l 1
 616 704 l 1
 544 132 l 1
 804 100 l 1
 774 0 l 1
 10 0 l 1
 32 96 l 1
 308 160 l 1
 424 1056 l 1
 290 1048 l 1
 310 1160 l 1
 438 1166 l 1
 460 1348 l 1
 180 1388 l 1
 204 1482 l 1xd0
 458 1536 612 1540 780 1540 c 0x88
 822 1540 886 1538 972 1532 c 1
 948 1440 l 1x84
 702 1412 l 1x88
 674 1176 l 1
 1398 1210 l 1
 1420 1376 l 1
EndSplineSet
Validated: 1
EndChar

StartChar: I
Encoding: 73 73 43
Width: 980
VWidth: 0
Flags: HW
HStem: 0 100<32 79.5456 726.79 784> 1388 94<204 280.352> 1412 128<702 827.952>
DStem2: 288.354 0 527.792 0 0.121869 0.992546<162.171 1358.87>
LayerCount: 2
Fore
SplineSet
784 0 m 1xa0
 10 0 l 1
 32 96 l 1
 308 160 l 1
 460 1348 l 1
 180 1388 l 1
 204 1482 l 1xc0
 458 1536 680 1540 778 1540 c 0
 822 1540 886 1538 972 1532 c 1
 948 1440 l 1
 702 1412 l 1
 544 132 l 1
 814 100 l 1
 784 0 l 1xa0
EndSplineSet
Validated: 1
EndChar

StartChar: Iacute
Encoding: 205 205 44
Width: 980
VWidth: 0
Flags: HW
HStem: 0 100<32 79.5456 726.79 784> 1388 94<204 280.352> 1412 128<702 827.952>
DStem2: 288.354 0 527.792 0 0.121869 0.992546<162.171 1358.87>
LayerCount: 2
Fore
SplineSet
784 0 m 1xa0
 10 0 l 1
 32 96 l 1
 308 160 l 1
 460 1348 l 1
 180 1388 l 1
 204 1482 l 1xc0
 458 1536 680 1540 778 1540 c 0
 820 1540 884 1538 970 1532 c 1
 948 1440 l 1
 702 1412 l 1
 544 132 l 1
 814 100 l 1
 784 0 l 1xa0
904 2048 m 1
 682 1664 l 1
 620 1702 l 1
 768 2096 l 1
 904 2048 l 1
EndSplineSet
Validated: 1
EndChar

StartChar: Icaron
Encoding: 463 463 45
Width: 980
VWidth: 0
Flags: HW
HStem: 0 100<32 79.5456 726.79 784> 1388 94<204 280.352> 1412 128<702 827.952>
DStem2: 288.354 0 527.792 0 0.121869 0.992546<162.171 1358.87> 484 1948 386 1874 0.736873 -0.676031<0 250.267> 676 1774 670 1690 0.690318 0.723506<0 226.544>
LayerCount: 2
Fore
SplineSet
784 0 m 1xa0
 10 0 l 1
 32 96 l 1
 308 160 l 1
 460 1348 l 1
 180 1388 l 1
 204 1482 l 1xc0
 458 1536 680 1540 778 1540 c 0
 820 1540 884 1538 970 1532 c 1
 948 1440 l 1
 702 1412 l 1
 544 132 l 1
 814 100 l 1
 784 0 l 1xa0
604 1674 m 1
 386 1874 l 1
 484 1948 l 1
 664 1774 l 1
 676 1774 l 1
 826 1944 l 1
 878 1908 l 1
 670 1690 l 1
 604 1674 l 1
EndSplineSet
Validated: 1
EndChar

StartChar: Icircumflex
Encoding: 206 206 46
Width: 980
VWidth: 0
Flags: HW
HStem: 0 100<32 79.5456 726.79 784> 1388 94<204 280.352> 1412 128<702 827.952>
DStem2: 288.354 0 527.792 0 0.121869 0.992546<162.171 1358.87>
LayerCount: 2
Fore
SplineSet
784 0 m 1xa0
 10 0 l 1
 32 96 l 1
 308 160 l 1
 460 1348 l 1
 180 1388 l 1
 204 1482 l 1xc0
 458 1536 680 1540 778 1540 c 0
 820 1540 884 1538 970 1532 c 1
 948 1440 l 1
 702 1412 l 1
 544 132 l 1
 814 100 l 1
 784 0 l 1xa0
658 1944 m 1
 874 1720 l 1
 814 1676 l 1
 616 1808 l 1
 604 1808 l 1
 434 1674 l 1
 388 1710 l 1
 592 1928 l 1
 658 1944 l 1
EndSplineSet
Validated: 1
EndChar

StartChar: Idieresis
Encoding: 207 207 47
Width: 980
VWidth: 0
Flags: HW
HStem: 0 100<32 79.5456 726.79 784> 1388 94<204 280.352> 1412 128<702 827.952> 1706 192<382.648 555.259 706.648 880.67>
VStem: 366 206<1723 1880.53> 690 208<1724.33 1879.94>
DStem2: 288.354 0 527.792 0 0.121869 0.992546<162.171 1358.87>
LayerCount: 2
Fore
SplineSet
784 0 m 1xbc
 10 0 l 1
 32 96 l 1
 308 160 l 1
 460 1348 l 1
 180 1388 l 1
 204 1482 l 1xdc
 458 1536 680 1540 778 1540 c 0
 822 1540 886 1538 972 1532 c 1
 948 1440 l 1
 702 1412 l 1
 544 132 l 1
 814 100 l 1
 784 0 l 1xbc
898 1804 m 0
 898 1746 848 1706 792 1706 c 0
 738 1706 690 1746 690 1804 c 0
 690 1860 738 1898 792 1898 c 0
 848 1898 898 1858 898 1804 c 0
572 1804 m 0
 572 1746 524 1706 468 1706 c 0
 414 1706 366 1746 366 1804 c 0
 366 1860 414 1898 468 1898 c 0
 524 1898 572 1858 572 1804 c 0
EndSplineSet
Validated: 1
EndChar

StartChar: Idotaccent
Encoding: 304 304 48
Width: 980
VWidth: 0
Flags: HW
HStem: 0 100<32 79.5456 726.79 784> 1388 94<204 280.352> 1412 128<702 827.952> 1672 286<528.75 734>
VStem: 486 292<1716.25 1916.95>
DStem2: 288.354 0 527.792 0 0.121869 0.992546<162.171 1358.87>
LayerCount: 2
Fore
SplineSet
784 0 m 1xb8
 10 0 l 1
 32 96 l 1
 308 160 l 1
 460 1348 l 1
 180 1388 l 1
 204 1482 l 1xd8
 458 1536 680 1540 778 1540 c 0
 822 1540 886 1538 972 1532 c 1
 948 1440 l 1
 702 1412 l 1
 544 132 l 1
 814 100 l 1
 784 0 l 1xb8
778 1820 m 0
 778 1738 710 1672 630 1672 c 0
 550 1672 486 1740 486 1822 c 0
 486 1900 552 1958 630 1958 c 0
 710 1958 778 1898 778 1820 c 0
EndSplineSet
Validated: 1
EndChar

StartChar: Igrave
Encoding: 204 204 49
Width: 980
VWidth: 0
Flags: HW
HStem: 0 100<32 79.5456 726.79 784> 1388 94<204 280.352> 1412 128<702 827.952>
DStem2: 288.354 0 527.792 0 0.121869 0.992546<162.171 1358.87>
LayerCount: 2
Fore
SplineSet
784 0 m 1xa0
 10 0 l 1
 32 96 l 1
 308 160 l 1
 460 1348 l 1
 180 1388 l 1
 204 1482 l 1xc0
 458 1536 680 1540 778 1540 c 0
 820 1540 884 1538 970 1532 c 1
 948 1440 l 1
 702 1412 l 1
 544 132 l 1
 814 100 l 1
 784 0 l 1xa0
384 2040 m 1
 524 2086 l 1
 684 1682 l 1
 614 1640 l 1
 384 2040 l 1
EndSplineSet
Validated: 1
EndChar

StartChar: Imacron
Encoding: 298 298 50
Width: 980
VWidth: 0
Flags: HW
HStem: 0 100<32 79.5456 726.79 784> 1388 94<204 280.352> 1412 128<702 827.952> 1700 122<382 900>
DStem2: 288.354 0 527.792 0 0.121869 0.992546<162.171 1358.87>
LayerCount: 2
Fore
SplineSet
784 0 m 1xb0
 10 0 l 1
 32 96 l 1
 308 160 l 1
 460 1348 l 1
 180 1388 l 1
 204 1482 l 1xd0
 458 1536 680 1540 778 1540 c 0
 820 1540 884 1538 970 1532 c 1
 948 1440 l 1
 702 1412 l 1
 544 132 l 1
 814 100 l 1
 784 0 l 1xb0
382 1822 m 1
 916 1822 l 1
 900 1700 l 1
 366 1700 l 1
 382 1822 l 1
EndSplineSet
Validated: 1
EndChar

StartChar: Iogonek
Encoding: 302 302 51
Width: 980
VWidth: 0
Flags: HW
HStem: -452 62<768.787 779.711> 0 96<32 93.824 706.48 784> 1388 94<204 280.352> 1412 128<702 827.952>
VStem: 482 180<-299.306 -112.838>
DStem2: 232.856 -452 472.294 -452 0.121869 0.992546<617.566 1814.26>
LayerCount: 2
Fore
SplineSet
812 -390 m 1xd8
 770 -452 l 1
 600 -434 482 -342 482 -236 c 0
 482 -166 530 -88 628 0 c 1
 10 0 l 1
 32 96 l 1
 308 160 l 1
 460 1348 l 1
 180 1388 l 1
 204 1482 l 1xe8
 458 1536 680 1540 778 1540 c 0
 822 1540 886 1538 972 1532 c 1
 948 1440 l 1
 702 1412 l 1
 544 132 l 1
 814 100 l 1
 784 0 l 1
 724 0 l 1
 682 -72 662 -126 662 -164 c 0
 662 -256 712 -332 812 -390 c 1xd8
EndSplineSet
Validated: 1
EndChar

StartChar: J
Encoding: 74 74 52
Width: 1190
VWidth: 0
Flags: HW
HStem: -464 262<105.5 404.789> 1380 96<416 506.706> 1412 130<918 1033.64>
DStem2: 466.995 -464 684.583 -464 0.121869 0.992546<465.183 1819.75>
LayerCount: 2
Fore
SplineSet
246 -464 m 0xa0
 232 -464 222 -464 216 -462 c 1
 138 -454 62 -408 28 -320 c 1
 18 -298 12 -270 12 -236 c 0
 12 -206 18 -174 32 -140 c 1
 110 -176 182 -196 248 -202 c 0
 250 -202 256 -202 262 -202 c 1
 268 -204 274 -204 276 -204 c 0
 372 -204 436 -164 468 -110 c 1
 510 -44 522 8 536 98 c 0
 542 142 548 192 554 246 c 0
 560 300 564 342 568 372 c 1
 574 478 587 596 602 728 c 2
 674 1344 l 1
 396 1380 l 1
 416 1476 l 1xc0
 550 1508 690 1528 834 1536 c 0
 892 1540 950 1542 1008 1542 c 0
 1066 1542 1126 1540 1184 1536 c 1
 1160 1442 l 1
 918 1412 l 1
 800 476 l 1
 768 246 730 72 686 -46 c 1
 606 -252 504 -396 330 -452 c 0
 304 -460 276 -464 246 -464 c 0xa0
EndSplineSet
Validated: 1
EndChar

StartChar: K
Encoding: 75 75 53
Width: 1638
VWidth: 0
Flags: HW
HStem: -28 21G<1232 1353> 0 92<34 80.8028 671.281 696> 1448 94<208 232.257 807.68 864 1012 1039.66 1545.63 1604>
DStem2: 232.917 -28 473.653 -28 0.121869 0.992546<212.705 1424.55> 760 912 844 812 0.675955 0.736943<-16.9141 640.338>
LayerCount: 2
Fore
SplineSet
692 632 m 1
 654 690 626 728 604 750 c 1
 608 780 l 1
 674 828 724 872 760 912 c 2
 1184 1392 l 1
 990 1448 l 1
 1012 1542 l 1
 1628 1542 l 1
 1604 1448 l 1
 1376 1392 l 1
 844 812 l 1
 1084 476 l 2
 1268 220 1332 149 1474 102 c 2
 1516 88 l 1
 1492 2 l 1
 1434 -18 1378 -28 1328 -28 c 0
 1136 -28 1006 100 872 324 c 1
 692 632 l 1
496 154 m 1
 724 100 l 1
 696 0 l 1
 10 0 l 1
 34 92 l 1
 256 160 l 1
 406 1386 l 1
 180 1448 l 1
 208 1542 l 1
 888 1542 l 1
 864 1448 l 1
 644 1392 l 1
 496 154 l 1
EndSplineSet
Validated: 1
EndChar

StartChar: Kcommaaccent
Encoding: 310 310 54
Width: 1638
VWidth: 0
Flags: HW
HStem: -52 20G<847 895> -28 21G<1232 1353> 0 92<34 80.8028 671.281 696> 1448 94<208 232.257 807.68 864 1012 1039.66 1545.63 1604>
VStem: 844 128<-296.418 -147.792>
DStem2: 182.575 -438 423.312 -438 0.121869 0.992546<625.784 1837.63> 760 912 844 812 0.675955 0.736943<-16.9141 640.338>
LayerCount: 2
Fore
SplineSet
692 632 m 1
 654 690 626 728 604 750 c 1
 608 780 l 1
 674 828 724 872 760 912 c 2
 1184 1392 l 1
 990 1448 l 1
 1012 1542 l 1
 1628 1542 l 1
 1604 1448 l 1
 1376 1392 l 1
 844 812 l 1
 1084 476 l 1
 1268 222 1332 149 1474 102 c 2
 1516 88 l 1
 1492 2 l 1
 1434 -18 1378 -28 1328 -28 c 0
 1136 -28 1006 100 872 324 c 1
 692 632 l 1
496 154 m 1
 724 100 l 1
 696 0 l 1
 10 0 l 1
 34 92 l 1
 256 160 l 1
 406 1386 l 1
 180 1448 l 1
 208 1542 l 1
 888 1542 l 1
 864 1448 l 1
 644 1392 l 1
 496 154 l 1
864 -32 m 2
 874 -32 l 1
 916 -38 944 -68 960 -108 c 0
 968 -126 972 -148 972 -170 c 0
 972 -178 970 -190 968 -206 c 1
 954 -272 916 -320 858 -366 c 1
 828 -392 790 -416 744 -438 c 1
 718 -398 l 1
 756 -376 792 -354 816 -316 c 1
 838 -284 844 -238 844 -236 c 0
 844 -232 842 -224 840 -214 c 0
 832 -172 784 -130 760 -116 c 1
 776 -60 830 -32 864 -32 c 2
EndSplineSet
Validated: 1
EndChar

StartChar: L
Encoding: 76 76 55
Width: 1414
VWidth: 0
Flags: HW
HStem: -4 102<38 94.9224> 4 128<544 1099.96> 1380 94<206 325.36> 1400 140<708.251 864.672>
VStem: 1290 114<461.452 564>
DStem2: 287.127 -4 527.301 -4 0.121869 0.992546<171.277 1367.2>
LayerCount: 2
Fore
SplineSet
206 1474 m 1xa8
 352 1518 534 1540 748 1540 c 0
 836 1540 984 1530 1030 1528 c 1
 1014 1428 l 1
 708 1400 l 1
 544 132 l 1
 812 144 l 1
 920 150 1018 158 1104 172 c 1
 1154 226 1216 362 1290 580 c 1
 1404 564 l 1
 1404 558 1404 550 1406 536 c 1
 1406 522 1406 510 1406 504 c 0
 1406 326 1364 98 1308 0 c 1
 890 2 634 4 544 4 c 1x58
 10 -4 l 1
 38 98 l 1
 308 166 l 1
 462 1352 l 1
 182 1380 l 1
 206 1474 l 1xa8
EndSplineSet
Validated: 1
EndChar

StartChar: Lacute
Encoding: 313 313 56
Width: 1414
VWidth: 0
Flags: HW
HStem: -4 102<38 94.9224> 4 128<544 1099.96> 1380 96<206 325.36> 1400 140<708 864.672>
VStem: 1290 114<461.452 564>
DStem2: 287.127 -4 527.301 -4 0.121869 0.992546<171.277 1367.2>
LayerCount: 2
Fore
SplineSet
206 1476 m 1xa8
 348 1518 530 1540 748 1540 c 0
 836 1540 984 1530 1030 1528 c 1
 1014 1428 l 1
 708 1400 l 1
 544 132 l 1
 812 144 l 1
 920 150 1018 158 1104 172 c 1
 1154 226 1216 362 1290 580 c 1
 1404 564 l 1
 1404 558 1404 550 1406 536 c 1
 1406 522 1406 510 1406 504 c 0
 1406 326 1364 98 1308 0 c 1
 890 2 634 4 544 4 c 1x58
 10 -4 l 1
 38 98 l 1
 308 166 l 1
 462 1352 l 1
 182 1380 l 1
 206 1476 l 1xa8
842 2052 m 1
 620 1668 l 1
 558 1706 l 1
 706 2100 l 1
 842 2052 l 1
EndSplineSet
Validated: 1
EndChar

StartChar: Lcaron
Encoding: 317 317 57
Width: 1414
VWidth: 0
Flags: HW
HStem: -4 102<38 94.9224> 4 128<544 1099.96> 1380 96<206 325.36> 1400 140<708 864.672>
VStem: 1256 206<1251.48 1424.18> 1290 114<461.452 564>
DStem2: 287.127 -4 527.301 -4 0.121869 0.992546<171.277 1367.2>
LayerCount: 2
Fore
SplineSet
206 1476 m 1xa4
 348 1518 530 1540 748 1540 c 0
 836 1540 984 1530 1030 1528 c 1
 1014 1428 l 1
 708 1400 l 1
 544 132 l 1
 812 144 l 1
 920 150 1018 158 1104 172 c 1
 1154 226 1216 362 1290 580 c 1
 1404 564 l 1
 1404 558 1404 550 1406 536 c 1
 1406 522 1406 510 1406 504 c 0
 1406 326 1364 98 1308 0 c 1
 890 2 634 4 544 4 c 1x54
 10 -4 l 1
 38 98 l 1
 308 166 l 1
 462 1352 l 1
 182 1380 l 1
 206 1476 l 1xa4
1288 1636 m 2
 1306 1636 l 1
 1376 1628 1420 1578 1444 1514 c 0
 1456 1484 1462 1452 1462 1414 c 0
 1462 1394 1460 1374 1456 1356 c 0
 1434 1250 1372 1170 1278 1098 c 1
 1224 1054 1164 1016 1094 982 c 1
 1054 1046 l 1
 1096 1068 1174 1120 1212 1178 c 1
 1246 1228 1256 1282 1256 1308 c 0x08
 1256 1314 1254 1326 1252 1342 c 1
 1236 1414 1176 1470 1122 1500 c 1
 1148 1596 1230 1636 1288 1636 c 2
EndSplineSet
Validated: 1
EndChar

StartChar: Lcommaaccent
Encoding: 315 315 58
Width: 1414
VWidth: 0
Flags: HW
HStem: -52 20G<651 699> -4 102<38 94.9224> 4 128<544 1099.96> 1380 96<206 325.36> 1400 140<708 864.672>
VStem: 648 128<-296.418 -147.792> 1290 114<461.452 564>
DStem2: 233.838 -438 474.013 -438 0.121869 0.992546<608.536 1804.46>
LayerCount: 2
Fore
SplineSet
206 1476 m 1xd6
 348 1518 530 1540 748 1540 c 0
 836 1540 984 1530 1030 1528 c 1
 1014 1428 l 1
 708 1400 l 1
 544 132 l 1
 812 144 l 1
 920 150 1018 158 1104 172 c 1
 1154 226 1216 362 1290 580 c 1
 1404 564 l 1
 1404 558 1404 550 1406 536 c 1
 1406 522 1406 510 1406 504 c 0
 1406 326 1364 98 1308 0 c 1
 890 2 634 4 544 4 c 1xae
 10 -4 l 1
 38 98 l 1
 308 166 l 1
 462 1352 l 1
 182 1380 l 1
 206 1476 l 1xd6
668 -32 m 2
 678 -32 l 1
 720 -38 748 -68 764 -108 c 0
 772 -126 776 -148 776 -170 c 0
 776 -178 774 -190 772 -206 c 1
 758 -272 720 -320 662 -366 c 1
 632 -392 594 -416 548 -438 c 1
 522 -398 l 1
 560 -376 596 -354 620 -316 c 1
 642 -284 648 -238 648 -236 c 0
 648 -232 646 -224 644 -214 c 0
 636 -172 588 -130 564 -116 c 1
 580 -60 634 -32 668 -32 c 2
EndSplineSet
Validated: 1
EndChar

StartChar: Lslash
Encoding: 321 321 59
Width: 1414
VWidth: 0
Flags: HW
HStem: -4 102<38 94.9224> 4 128<544 1099.96> 1380 96<206 325.36> 1400 140<708 864.672>
VStem: 1290 114<461.452 564>
DStem2: 122 684 138 552 0.913153 0.407617<0 216.875 573.875 838.265> 287.127 -4 527.301 -4 0.121869 0.992546<171.277 665.424 958.863 1367.2>
LayerCount: 2
Fore
SplineSet
206 1476 m 1xa8
 348 1518 530 1540 748 1540 c 0
 836 1540 984 1530 1030 1528 c 1
 1014 1428 l 1
 708 1400 l 1
 646 918 l 1
 924 1042 l 1
 940 908 l 1
 626 768 l 1
 544 132 l 1
 812 144 l 1
 920 150 1018 158 1104 172 c 1
 1154 226 1216 362 1290 580 c 1
 1404 564 l 1
 1404 558 1404 550 1406 536 c 1
 1406 522 1406 510 1406 504 c 0
 1406 326 1364 98 1308 0 c 1
 890 2 634 4 544 4 c 1x58
 10 -4 l 1
 38 98 l 1
 308 166 l 1
 372 656 l 1
 138 552 l 1
 122 684 l 1
 390 804 l 1
 462 1352 l 1
 182 1380 l 1
 206 1476 l 1xa8
EndSplineSet
Validated: 1
EndChar

StartChar: M
Encoding: 77 77 60
Width: 2104
VWidth: 0
Flags: HW
HStem: -36 202<1578 1757> 1390 94<164 196.819> 1432 96<2014.64 2068> 1522 18G<633 713.714 1825 1919>
VStem: 412 128<856.096 1236> 1456 252<166.007 550.875>
DStem2: 776 1304 544 1236 0.241772 -0.970333<9.89155 909.017>
LayerCount: 2
Fore
SplineSet
136 1390 m 1xcc
 164 1484 l 1
 390 1526 558 1540 708 1542 c 1
 776 1304 l 1
 1004 424 l 1
 1490 1320 l 1
 1604 1522 l 1
 1630 1528 1766 1540 1884 1540 c 0xdc
 1954 1540 2024 1536 2096 1528 c 1
 2068 1432 l 1xac
 1800 1360 l 1
 1712 354 l 2
 1710 322 1708 298 1708 280 c 0
 1708 274 1708 266 1708 256 c 1
 1706 246 1706 236 1706 230 c 0
 1706 206 1706 202 1714 186 c 0
 1720 176 1728 166 1746 166 c 0
 1750 166 1758 168 1768 170 c 1
 1810 184 1856 238 1936 344 c 1
 1996 302 l 1
 1962 174 1894 86 1782 16 c 1
 1728 -16 1670 -34 1606 -36 c 1
 1550 -36 1518 -28 1492 -2 c 0
 1454 36 1454 88 1454 110 c 0
 1454 114 1454 120 1456 126 c 1
 1456 132 1456 138 1456 142 c 0
 1458 204 1468 298 1484 424 c 2
 1586 1236 l 1
 1394 774 1198 370 1078 180 c 0
 1064 158 1038 120 1000 64 c 1
 842 40 l 1
 544 1236 l 1
 540 1236 l 1
 516 600 l 2
 506 346 494 230 408 96 c 0
 352 10 286 -38 208 -38 c 0
 142 -38 80 -4 46 52 c 0
 30 78 20 100 16 116 c 1
 94 150 182 212 246 302 c 0
 292 368 326 458 350 568 c 0
 382 716 402 882 412 1068 c 1
 414 1124 416 1210 416 1324 c 1
 136 1390 l 1xcc
EndSplineSet
Validated: 1
EndChar

StartChar: N
Encoding: 78 78 61
Width: 1864
VWidth: 0
Flags: HW
HStem: -38 21G<155 236 1239.23 1349> 1390 94<184 218.385 1168 1311.25> 1438 94<1776.45 1830> 1520 20G<667 700.385>
VStem: 432 128<856.096 1236>
DStem2: 798 1332 564 1236 0.4741 -0.880471<-26.4141 1130.25> 1336 338 1448 2 0.0931603 0.995651<0 1031.73>
LayerCount: 2
Fore
SplineSet
1250 -38 m 1xa8
 564 1236 l 1
 560 1236 l 1
 536 600 l 2
 526 360 508 230 404 86 c 1
 346 12 276 -38 196 -38 c 2
 188 -38 l 1
 122 -32 66 -2 32 60 c 1
 22 82 14 104 10 126 c 1
 98 166 174 212 244 300 c 1
 350 430 422 682 432 1068 c 0
 434 1180 436 1266 436 1324 c 1
 158 1390 l 1
 184 1484 l 1
 294 1506 402 1522 506 1530 c 0
 584 1536 644 1538 690 1540 c 1xd8
 798 1332 l 1
 1336 338 l 1
 1424 1366 l 1
 1144 1386 l 1
 1168 1480 l 1
 1294 1508 1404 1526 1500 1532 c 0
 1560 1536 1620 1538 1678 1538 c 0
 1736 1538 1796 1536 1856 1532 c 1
 1830 1438 l 1
 1576 1370 l 1
 1448 2 l 1
 1250 -38 l 1xa8
EndSplineSet
Validated: 1
EndChar

StartChar: Nacute
Encoding: 323 323 62
Width: 1864
VWidth: 0
Flags: HW
HStem: -38 21G<155 236 1239.23 1349> 1390 94<184 218.385 1168 1311.25> 1438 94<1776.45 1830> 1520 20G<667 700.385>
VStem: 432 128<856.096 1236>
DStem2: 798 1332 564 1236 0.4741 -0.880471<-26.4141 1130.25> 1336 338 1448 2 0.0931603 0.995651<0 1031.73>
LayerCount: 2
Fore
SplineSet
1250 -38 m 1xa8
 564 1236 l 1
 560 1236 l 1
 536 600 l 2
 526 360 508 230 404 86 c 1
 346 12 276 -38 196 -38 c 2
 188 -38 l 1
 122 -32 66 -2 32 60 c 1
 22 82 14 104 10 126 c 1
 98 166 174 214 244 300 c 1
 354 438 422 682 432 1068 c 0
 434 1180 436 1266 436 1324 c 1
 158 1390 l 1
 184 1484 l 1
 294 1506 402 1522 506 1530 c 0
 584 1536 644 1538 690 1540 c 1xd8
 798 1332 l 1
 1336 338 l 1
 1424 1366 l 1
 1144 1386 l 1
 1168 1480 l 1
 1292 1508 1402 1526 1500 1532 c 0
 1560 1536 1620 1538 1678 1538 c 0
 1736 1538 1796 1536 1856 1532 c 1
 1830 1438 l 1
 1576 1370 l 1
 1448 2 l 1
 1250 -38 l 1xa8
1298 2054 m 1
 1076 1670 l 1
 1014 1708 l 1
 1162 2102 l 1
 1298 2054 l 1
EndSplineSet
Validated: 1
EndChar

StartChar: Ncaron
Encoding: 327 327 63
Width: 1864
VWidth: 0
Flags: HW
HStem: -38 21G<155 236 1239.23 1349> 1390 94<184 218.385 1168 1311.25> 1438 94<1776.45 1830> 1520 20G<667 700.385>
VStem: 432 128<856.096 1236>
DStem2: 798 1332 564 1236 0.4741 -0.880471<-26.4141 1130.25> 878 1954 780 1880 0.736873 -0.676031<0 250.267> 1070 1780 1064 1696 0.690318 0.723506<0 226.544> 1336 338 1448 2 0.0931603 0.995651<0 1031.73>
LayerCount: 2
Fore
SplineSet
1250 -38 m 1xa8
 564 1236 l 1
 560 1236 l 1
 536 600 l 2
 526 360 508 230 404 86 c 1
 346 12 276 -38 196 -38 c 2
 188 -38 l 1
 122 -32 66 -2 32 60 c 1
 22 82 14 104 10 126 c 1
 98 166 174 214 244 300 c 1
 354 438 422 682 432 1068 c 0
 434 1180 436 1266 436 1324 c 1
 158 1390 l 1
 184 1484 l 1
 294 1506 402 1522 506 1530 c 0
 584 1536 644 1538 690 1540 c 1xd8
 798 1332 l 1
 1336 338 l 1
 1424 1366 l 1
 1144 1386 l 1
 1168 1480 l 1
 1292 1508 1402 1526 1500 1532 c 0
 1560 1536 1620 1538 1678 1538 c 0
 1736 1538 1796 1536 1856 1532 c 1
 1830 1438 l 1
 1576 1370 l 1
 1448 2 l 1
 1250 -38 l 1xa8
998 1680 m 1
 780 1880 l 1
 878 1954 l 1
 1058 1780 l 1
 1070 1780 l 1
 1220 1950 l 1
 1272 1914 l 1
 1064 1696 l 1
 998 1680 l 1
EndSplineSet
Validated: 1
EndChar

StartChar: Ncommaaccent
Encoding: 325 325 64
Width: 1864
VWidth: 0
Flags: HW
HStem: -52 20G<875 923> -38 21G<155 236 1239.23 1349> 1390 94<184 218.385 1168 1311.25> 1438 94<1776.45 1830> 1520 20G<667 700.385>
VStem: 432 128<856.096 1236> 872 128<-296.418 -147.792>
DStem2: 798 1332 564 1236 0.4741 -0.880471<-26.4141 1130.25> 1336 338 1448 2 0.0931603 0.995651<0 1031.73>
LayerCount: 2
Fore
SplineSet
1250 -38 m 1x56
 564 1236 l 1
 560 1236 l 1
 536 600 l 2
 526 360 508 230 404 86 c 1
 346 12 276 -38 196 -38 c 2
 188 -38 l 1
 122 -32 66 -2 32 60 c 1
 22 82 14 104 10 126 c 1
 98 166 174 214 244 300 c 1
 354 438 422 682 432 1068 c 0
 434 1180 436 1266 436 1324 c 1
 158 1390 l 1
 184 1484 l 1
 294 1506 402 1522 506 1530 c 0
 584 1536 644 1538 690 1540 c 1x6e
 798 1332 l 1
 1336 338 l 1
 1424 1366 l 1
 1144 1386 l 1
 1168 1480 l 1
 1292 1508 1402 1526 1500 1532 c 0
 1560 1536 1620 1538 1678 1538 c 0
 1736 1538 1796 1536 1856 1532 c 1
 1830 1438 l 1
 1576 1370 l 1
 1448 2 l 1
 1250 -38 l 1x56
892 -32 m 2x86
 902 -32 l 1
 944 -38 972 -68 988 -108 c 0
 996 -126 1000 -148 1000 -170 c 0
 1000 -178 998 -190 996 -206 c 1
 982 -272 944 -320 886 -366 c 1
 856 -392 818 -416 772 -438 c 1
 746 -398 l 1
 784 -376 820 -354 844 -316 c 1
 866 -284 872 -238 872 -236 c 0
 872 -232 870 -224 868 -214 c 0
 860 -172 812 -130 788 -116 c 1
 804 -60 858 -32 892 -32 c 2x86
EndSplineSet
Validated: 1
EndChar

StartChar: Ntilde
Encoding: 209 209 65
Width: 1864
VWidth: 0
Flags: HW
HStem: -38 21G<155 236 1239.23 1349> 1390 94<184 218.385 1168 1311.25> 1438 94<1776.45 1830> 1520 20G<667 700.385> 1716 126<1070.48 1240.9> 1754 126<805.826 924.598>
VStem: 432 128<856.096 1236>
DStem2: 798 1332 564 1236 0.4741 -0.880471<-26.4141 1130.25> 1336 338 1448 2 0.0931603 0.995651<0 1031.73>
LayerCount: 2
Fore
SplineSet
1250 -38 m 1xa2
 564 1236 l 1
 560 1236 l 1
 536 600 l 2
 526 360 508 230 404 86 c 1
 346 12 276 -38 196 -38 c 2
 188 -38 l 1
 122 -32 66 -2 32 60 c 1
 22 82 14 104 10 126 c 1
 98 166 174 214 244 300 c 1
 354 438 422 682 432 1068 c 0
 434 1180 436 1266 436 1324 c 1
 158 1390 l 1
 184 1484 l 1
 294 1506 402 1522 506 1530 c 0
 584 1536 644 1538 690 1540 c 1xd2
 798 1332 l 1
 1336 338 l 1
 1424 1366 l 1
 1144 1386 l 1
 1168 1480 l 1
 1292 1508 1402 1526 1500 1532 c 0
 1560 1536 1620 1538 1678 1538 c 0
 1736 1538 1796 1536 1856 1532 c 1
 1830 1438 l 1
 1576 1370 l 1
 1448 2 l 1
 1250 -38 l 1xa2
744 1706 m 1
 746 1712 748 1718 750 1726 c 0
 754 1740 774 1788 794 1820 c 1
 814 1850 852 1880 892 1880 c 0
 894 1880 898 1880 900 1880 c 1x86
 902 1878 906 1878 908 1878 c 2
 1178 1842 l 1
 1182 1842 l 2x8a
 1200 1842 1226 1864 1240 1880 c 2x86
 1250 1892 l 1
 1308 1890 l 1
 1306 1884 1304 1878 1302 1872 c 0
 1296 1856 1278 1808 1256 1778 c 0
 1232 1746 1192 1716 1150 1716 c 2
 1136 1716 l 1x8a
 866 1754 l 1
 862 1754 l 2x86
 840 1754 814 1728 800 1710 c 2
 790 1696 l 1
 744 1706 l 1
EndSplineSet
Validated: 1
EndChar

StartChar: O
Encoding: 79 79 66
Width: 1336
VWidth: 0
Flags: HW
HStem: -34 182<511.726 796.359> 1396 180<536.953 812.366>
VStem: 10 258<487.318 945.28> 1072 256<623.172 1059.32>
LayerCount: 2
Fore
SplineSet
268 804 m 0
 268 420 428 148 668 148 c 0
 906 148 1072 402 1072 772 c 0
 1072 1124 912 1396 640 1396 c 0
 402 1396 268 1122 268 804 c 0
1328 920 m 1
 1326 750 1284 568 1198 402 c 1
 1110 236 998 105 834 26 c 0
 752 -14 664 -34 572 -34 c 0
 234 -34 10 266 10 624 c 0
 10 960 142 1266 380 1444 c 0
 498 1532 632 1576 780 1576 c 0
 1014 1576 1196 1420 1272 1228 c 0
 1310 1132 1328 1032 1328 926 c 2
 1328 920 l 1
EndSplineSet
Validated: 1
EndChar

StartChar: OE
Encoding: 338 338 67
Width: 1934
VWidth: 0
Flags: HW
HStem: -34 182<547.751 822.314> 0 148<611.28 822.217> 4 118<1058 1548.81> 1396 180<572.887 855.385> 1414 134<1218 1667.41>
VStem: 46 256<487.318 945.28> 1704 108<1050 1103.4> 1728 106<435.968 544>
DStem2: 798.706 -34 1038.85 -34 0.121869 0.992546<187.033 783.043 912.039 1344.26>
LayerCount: 2
Fore
SplineSet
960 1264 m 1x94
 886 1352 790 1396 676 1396 c 0
 438 1396 302 1122 302 804 c 0
 302 420 464 148 704 148 c 0
 746 148 786 156 824 172 c 1
 960 1264 l 1x94
1542 1548 m 2x0d
 1636 1548 l 1
 1914 1540 l 1
 1812 1032 l 1
 1704 1050 l 1
 1668 1372 l 1
 1630 1380 l 1
 1516 1402 1392 1414 1258 1414 c 2
 1218 1414 l 1
 1148 842 l 1
 1628 862 l 1
 1586 686 l 1
 1132 714 l 1
 1058 122 l 1x2e
 1324 134 l 2
 1408 138 1484 148 1552 164 c 1
 1606 250 1702 464 1728 558 c 1
 1834 544 l 1
 1834 536 l 2
 1834 322 1800 106 1738 0 c 1x45
 1374 2 1146 4 1056 4 c 0x25
 1026 4 944 2 810 0 c 1x45
 746 -22 678 -34 608 -34 c 0
 272 -34 46 266 46 624 c 0
 46 960 178 1266 416 1444 c 0
 534 1532 668 1576 816 1576 c 0x95
 902 1576 982 1556 1056 1518 c 1
 1254 1538 1416 1548 1542 1548 c 2x0d
EndSplineSet
Validated: 1
EndChar

StartChar: Oacute
Encoding: 211 211 68
Width: 1336
VWidth: 0
Flags: HW
HStem: -34 182<511.587 796.359> 1396 180<536.887 812.366>
VStem: 10 256<487.318 945.28> 1072 256<623.172 1059.32>
LayerCount: 2
Fore
SplineSet
266 804 m 0
 266 420 428 148 668 148 c 0
 906 148 1072 402 1072 772 c 0
 1072 1124 912 1396 640 1396 c 0
 402 1396 266 1122 266 804 c 0
1328 920 m 1
 1326 750 1284 568 1198 402 c 1
 1110 236 998 105 834 26 c 0
 752 -14 664 -34 572 -34 c 0
 234 -34 10 266 10 624 c 0
 10 960 142 1266 380 1444 c 0
 498 1532 632 1576 780 1576 c 0
 1014 1576 1196 1420 1272 1228 c 0
 1310 1132 1328 1032 1328 926 c 2
 1328 920 l 1
1032 2054 m 1
 810 1670 l 1
 748 1708 l 1
 896 2102 l 1
 1032 2054 l 1
EndSplineSet
Validated: 1
EndChar

StartChar: Ocaron
Encoding: 465 465 69
Width: 1336
VWidth: 0
Flags: HW
HStem: -34 182<511.587 796.359> 1396 180<536.887 812.366>
VStem: 10 256<487.318 945.28> 1072 256<623.172 1059.32>
DStem2: 612 1954 514 1880 0.736873 -0.676031<0 250.267> 804 1780 798 1696 0.690318 0.723506<0 226.544>
LayerCount: 2
Fore
SplineSet
266 804 m 0
 266 420 428 148 668 148 c 0
 906 148 1072 402 1072 772 c 0
 1072 1124 912 1396 640 1396 c 0
 402 1396 266 1122 266 804 c 0
1328 920 m 1
 1326 750 1284 568 1198 402 c 1
 1110 236 998 105 834 26 c 0
 752 -14 664 -34 572 -34 c 0
 234 -34 10 266 10 624 c 0
 10 960 142 1266 380 1444 c 0
 498 1532 632 1576 780 1576 c 0
 1014 1576 1196 1420 1272 1228 c 0
 1310 1132 1328 1032 1328 926 c 2
 1328 920 l 1
732 1680 m 1
 514 1880 l 1
 612 1954 l 1
 792 1780 l 1
 804 1780 l 1
 954 1950 l 1
 1006 1914 l 1
 798 1696 l 1
 732 1680 l 1
EndSplineSet
Validated: 1
EndChar

StartChar: Ocircumflex
Encoding: 212 212 70
Width: 1336
VWidth: 0
Flags: HW
HStem: -34 182<511.587 796.359> 1396 180<536.887 812.366>
VStem: 10 256<487.318 945.28> 1072 256<623.172 1059.32>
LayerCount: 2
Fore
SplineSet
266 804 m 0
 266 420 428 148 668 148 c 0
 906 148 1072 402 1072 772 c 0
 1072 1124 912 1396 640 1396 c 0
 402 1396 266 1122 266 804 c 0
1328 920 m 1
 1326 750 1284 568 1198 402 c 1
 1110 236 998 105 834 26 c 0
 752 -14 664 -34 572 -34 c 0
 234 -34 10 266 10 624 c 0
 10 960 142 1266 380 1444 c 0
 498 1532 632 1576 780 1576 c 0
 1014 1576 1196 1420 1272 1228 c 0
 1310 1132 1328 1032 1328 926 c 2
 1328 920 l 1
786 1950 m 1
 1002 1726 l 1
 942 1682 l 1
 744 1814 l 1
 732 1814 l 1
 562 1680 l 1
 516 1716 l 1
 720 1934 l 1
 786 1950 l 1
EndSplineSet
Validated: 1
EndChar

StartChar: Odieresis
Encoding: 214 214 71
Width: 1336
VWidth: 0
Flags: HW
HStem: -34 182<511.587 796.359> 1396 180<536.887 812.366> 1712 192<510.648 683.259 834.648 1008.67>
VStem: 10 256<487.318 945.28> 494 206<1729 1886.53> 818 208<1730.33 1885.94> 1072 256<623.172 1059.32>
LayerCount: 2
Fore
SplineSet
266 804 m 0
 266 420 428 148 668 148 c 0
 906 148 1072 402 1072 772 c 0
 1072 1124 912 1396 640 1396 c 0
 402 1396 266 1122 266 804 c 0
1328 920 m 1
 1326 750 1284 568 1198 402 c 1
 1110 236 998 105 834 26 c 0
 752 -14 664 -34 572 -34 c 0
 234 -34 10 266 10 624 c 0
 10 960 142 1266 380 1444 c 0
 498 1532 632 1576 780 1576 c 0
 1014 1576 1196 1420 1272 1228 c 0
 1310 1132 1328 1032 1328 926 c 2
 1328 920 l 1
1026 1810 m 0
 1026 1752 976 1712 920 1712 c 0
 866 1712 818 1752 818 1810 c 0
 818 1866 866 1904 920 1904 c 0
 976 1904 1026 1864 1026 1810 c 0
700 1810 m 0
 700 1752 652 1712 596 1712 c 0
 542 1712 494 1752 494 1810 c 0
 494 1866 542 1904 596 1904 c 0
 652 1904 700 1864 700 1810 c 0
EndSplineSet
Validated: 1
EndChar

StartChar: Ograve
Encoding: 210 210 72
Width: 1336
VWidth: 0
Flags: HW
HStem: -34 182<511.587 796.359> 1396 180<536.887 812.366>
VStem: 10 256<487.318 945.28> 1072 256<623.172 1059.32>
LayerCount: 2
Fore
SplineSet
266 804 m 0
 266 420 428 148 668 148 c 0
 906 148 1072 402 1072 772 c 0
 1072 1124 912 1396 640 1396 c 0
 402 1396 266 1122 266 804 c 0
1328 920 m 1
 1326 750 1284 568 1198 402 c 1
 1110 236 998 105 834 26 c 0
 752 -14 664 -34 572 -34 c 0
 234 -34 10 266 10 624 c 0
 10 960 142 1266 380 1444 c 0
 498 1532 632 1576 780 1576 c 0
 1014 1576 1196 1420 1272 1228 c 0
 1310 1132 1328 1032 1328 926 c 2
 1328 920 l 1
512 2046 m 1
 652 2092 l 1
 812 1688 l 1
 742 1646 l 1
 512 2046 l 1
EndSplineSet
Validated: 1
EndChar

StartChar: Ohungarumlaut
Encoding: 336 336 73
Width: 1336
VWidth: 0
Flags: HW
HStem: -34 182<511.587 796.359> 1396 180<536.887 812.366>
VStem: 10 256<487.318 945.28> 1072 256<623.172 1059.32>
LayerCount: 2
Fore
SplineSet
266 804 m 0
 266 420 428 148 668 148 c 0
 906 148 1072 402 1072 772 c 0
 1072 1124 912 1396 640 1396 c 0
 402 1396 266 1122 266 804 c 0
1328 920 m 1
 1326 750 1284 568 1198 402 c 1
 1110 236 998 105 834 26 c 0
 752 -14 664 -34 572 -34 c 0
 234 -34 10 266 10 624 c 0
 10 960 142 1266 380 1444 c 0
 498 1532 632 1576 780 1576 c 0
 1014 1576 1196 1420 1272 1228 c 0
 1310 1132 1328 1032 1328 926 c 2
 1328 920 l 1
1262 1884 m 1
 910 1682 l 1
 876 1742 l 1
 1174 1984 l 1
 1262 1884 l 1
1018 1890 m 1
 654 1682 l 1
 620 1742 l 1
 928 1994 l 1
 1018 1890 l 1
EndSplineSet
Validated: 1
EndChar

StartChar: Omacron
Encoding: 332 332 74
Width: 1336
VWidth: 0
Flags: HW
HStem: -34 182<511.587 796.359> 1396 180<536.887 812.366> 1706 122<510 1028>
VStem: 10 256<487.318 945.28> 1072 256<623.172 1059.32>
LayerCount: 2
Fore
SplineSet
266 804 m 0
 266 420 428 148 668 148 c 0
 906 148 1072 402 1072 772 c 0
 1072 1124 912 1396 640 1396 c 0
 402 1396 266 1122 266 804 c 0
1328 920 m 1
 1326 750 1284 568 1198 402 c 1
 1110 236 998 105 834 26 c 0
 752 -14 664 -34 572 -34 c 0
 234 -34 10 266 10 624 c 0
 10 960 142 1266 380 1444 c 0
 498 1532 632 1576 780 1576 c 0
 1014 1576 1196 1420 1272 1228 c 0
 1310 1132 1328 1032 1328 926 c 2
 1328 920 l 1
510 1828 m 1
 1044 1828 l 1
 1028 1706 l 1
 494 1706 l 1
 510 1828 l 1
EndSplineSet
Validated: 1
EndChar

StartChar: Oslash
Encoding: 216 216 75
Width: 1602
VWidth: 0
Flags: HW
HStem: -34 182<511.091 796.359> 1396 180<536.887 815.488>
VStem: 10 256<482.372 945.28> 1072 256<623.172 1066.46>
DStem2: 104 -100 280 -90 0.471392 0.881924<91.7842 219.326 1850.18 1931.89>
LayerCount: 2
Fore
SplineSet
436 254 m 1
 502 184 580 148 668 148 c 0
 906 148 1072 402 1072 772 c 0
 1072 958 1032 1108 954 1226 c 1
 436 254 l 1
266 804 m 0
 266 614 302 458 376 336 c 1
 886 1302 l 1
 816 1364 734 1396 640 1396 c 0
 402 1396 266 1122 266 804 c 0
1018 1602 m 1
 1194 1612 l 1
 1110 1454 l 1
 1252 1332 1328 1126 1328 926 c 2
 1328 920 l 1
 1326 750 1284 568 1198 402 c 1
 1110 236 998 105 834 26 c 0
 752 -14 664 -34 572 -34 c 0
 488 -34 412 -16 342 18 c 1
 280 -90 l 1
 104 -100 l 1
 218 104 l 1
 194 126 166 142 132 150 c 0
 66 164 48 158 26 296 c 1
 16 366 10 474 10 624 c 0
 10 960 142 1266 380 1444 c 0
 498 1532 632 1576 780 1576 c 0
 854 1576 920 1562 982 1536 c 1
 1018 1602 l 1
EndSplineSet
Validated: 1
EndChar

StartChar: Otilde
Encoding: 213 213 76
Width: 1336
VWidth: 0
Flags: HW
HStem: -34 182<511.587 796.359> 1396 180<536.887 812.366> 1716 126<804.48 974.905> 1754 126<539.826 658.598>
VStem: 10 256<487.318 945.28> 1072 256<623.172 1059.32>
LayerCount: 2
Fore
SplineSet
266 804 m 0xcc
 266 420 428 148 668 148 c 0
 906 148 1072 402 1072 772 c 0
 1072 1124 912 1396 640 1396 c 0
 402 1396 266 1122 266 804 c 0xcc
1328 920 m 1
 1326 750 1284 568 1198 402 c 1
 1110 236 998 105 834 26 c 0
 752 -14 664 -34 572 -34 c 0
 234 -34 10 266 10 624 c 0
 10 960 142 1266 380 1444 c 0
 498 1532 632 1576 780 1576 c 0
 1014 1576 1196 1420 1272 1228 c 0
 1310 1132 1328 1032 1328 926 c 2
 1328 920 l 1
478 1706 m 1
 480 1712 482 1718 484 1726 c 0
 488 1740 508 1788 528 1820 c 1
 548 1850 586 1880 626 1880 c 0
 628 1880 630 1880 634 1880 c 1xdc
 638 1878 640 1878 642 1878 c 2
 912 1842 l 1
 916 1842 l 2xec
 934 1842 960 1864 974 1880 c 2xdc
 984 1892 l 1
 1042 1890 l 1
 1040 1884 1038 1878 1036 1872 c 0
 1030 1856 1012 1808 990 1778 c 0
 966 1746 926 1716 884 1716 c 2
 870 1716 l 1xec
 600 1754 l 1
 596 1754 l 2xdc
 574 1754 548 1728 534 1710 c 2
 524 1696 l 1
 478 1706 l 1
EndSplineSet
Validated: 1
EndChar

StartChar: P
Encoding: 80 80 77
Width: 1442
VWidth: 0
Flags: HW
HStem: 0 96<32 88.5007 739.776 794> 558 102<674.876 868.69> 1472 88<710.933 980.046>
VStem: 1192 240<939.851 1268.89>
DStem2: 279.863 0 524.319 0 0.121869 0.992546<174.873 1329.15>
LayerCount: 2
Fore
SplineSet
668 660 m 1
 714 664 762 672 808 684 c 1
 1056 742 1192 886 1192 1072 c 0
 1192 1302 1042 1472 780 1472 c 0
 756 1472 732 1470 708 1466 c 1
 542 144 l 1
 824 104 l 1
 794 0 l 1
 10 0 l 1
 32 96 l 1
 300 164 l 1
 452 1318 l 1
 184 1346 l 1
 204 1432 l 1
 450 1518 682 1560 900 1560 c 0
 1242 1560 1432 1406 1432 1128 c 0
 1432 848 1164 600 676 558 c 1
 668 660 l 1
EndSplineSet
Validated: 1
EndChar

StartChar: Q
Encoding: 81 81 78
Width: 1350
VWidth: 0
Flags: HW
HStem: -476 226<937.249 1145.67> -32 176<501.618 642> 1400 176<549.135 814.518>
VStem: 12 248<457.472 976.728> 1064 248<602.453 1066.27>
LayerCount: 2
Fore
SplineSet
774 1576 m 2
 800 1576 l 1
 958 1568 1104 1498 1200 1340 c 0
 1290 1190 1312 1046 1312 910 c 0
 1312 844 1304 768 1288 686 c 0
 1226 384 1068 132 802 18 c 1
 804 0 810 -22 818 -46 c 0
 856 -160 954 -250 1074 -250 c 2
 1080 -250 l 2
 1146 -250 1244 -212 1314 -166 c 1
 1342 -266 l 1
 1252 -386 1136 -460 990 -476 c 0
 986 -476 980 -476 972 -476 c 1
 964 -478 958 -478 954 -478 c 0
 884 -478 794 -458 728 -386 c 0
 670 -322 644 -236 638 -148 c 0
 638 -142 638 -136 638 -128 c 1
 636 -120 636 -114 636 -108 c 0
 636 -78 638 -52 642 -26 c 1
 618 -30 592 -32 566 -32 c 0
 524 -32 484 -28 446 -18 c 0
 236 32 48 214 16 552 c 0
 14 576 12 612 12 660 c 0
 12 986 134 1216 296 1370 c 0
 378 1448 470 1504 572 1540 c 1
 636 1564 704 1576 774 1576 c 2
296 1084 m 0
 272 1002 260 908 260 804 c 0
 260 676 274 492 340 362 c 0
 384 276 444 216 520 178 c 0
 562 156 608 144 658 144 c 0
 672 144 684 144 692 146 c 1
 754 152 810 174 856 208 c 0
 942 270 1000 362 1032 488 c 1
 1054 562 1064 648 1064 744 c 0
 1064 766 1062 798 1060 844 c 1
 1046 1042 986 1230 848 1332 c 1
 790 1378 724 1400 648 1400 c 0
 638 1400 622 1398 604 1396 c 0
 452 1378 345 1254 296 1084 c 0
EndSplineSet
Validated: 1
EndChar

StartChar: R
Encoding: 82 82 79
Width: 1530
VWidth: 0
Flags: HW
HStem: -22 21G<1229 1327> 0 88<32 86.0672 677.713 728> 1458 98<706.043 974.174>
VStem: 1130 252<1010 1295.58>
DStem2: 273.899 -22 505.091 -22 0.121869 0.992546<183.332 1349.73> 934 706 758 560 0.509492 -0.860475<0 637.456>
LayerCount: 2
Fore
SplineSet
524 132 m 1
 752 88 l 1
 728 0 l 1
 10 0 l 1
 32 92 l 1
 296 158 l 1
 452 1316 l 1
 178 1332 l 1
 196 1428 l 1
 330 1474 664 1556 866 1556 c 0
 896 1556 920 1556 934 1554 c 1
 1134 1540 1294 1464 1360 1296 c 0
 1374 1262 1382 1224 1382 1182 c 0
 1382 1160 1380 1138 1376 1116 c 0
 1352 996 1282 896 1120 800 c 0
 1060 764 998 734 934 710 c 1
 934 706 l 1
 1114 402 l 1
 1188 274 1226 222 1304 174 c 1
 1330 156 1370 142 1424 132 c 2
 1522 112 l 1
 1512 38 l 1
 1434 -8 1354 -22 1300 -22 c 0
 1158 -22 1058 48 994 134 c 0
 968 170 941 216 912 270 c 2
 758 560 l 1
 742 586 730 606 720 618 c 2
 676 676 l 1
 654 702 l 1
 668 738 l 1
 764 760 l 1
 916 790 1058 844 1116 1028 c 1
 1126 1056 1130 1088 1130 1122 c 0
 1130 1192 1108 1284 1044 1356 c 0
 972 1438 888 1458 816 1458 c 0
 774 1458 738 1454 704 1444 c 1
 524 132 l 1
EndSplineSet
Validated: 1
EndChar

StartChar: Racute
Encoding: 340 340 80
Width: 1530
VWidth: 0
Flags: HW
HStem: -22 21G<1229 1327> 0 88<32 86.0672 677.713 728> 1458 98<705.594 974.174>
VStem: 1128 254<1011.67 1295.99>
DStem2: 273.899 -22 505.091 -22 0.121869 0.992546<183.332 1349.73> 934 706 758 560 0.509492 -0.860475<0 637.456>
LayerCount: 2
Fore
SplineSet
524 132 m 1
 752 88 l 1
 728 0 l 1
 10 0 l 1
 32 92 l 1
 296 158 l 1
 452 1316 l 1
 178 1332 l 1
 196 1428 l 1
 330 1474 664 1556 864 1556 c 0
 894 1556 918 1556 934 1554 c 0
 1134 1540 1294 1464 1360 1296 c 1
 1374 1256 1382 1218 1382 1180 c 0
 1382 1158 1380 1136 1376 1116 c 0
 1352 996 1282 896 1120 800 c 0
 1060 764 998 734 934 710 c 1
 934 706 l 1
 1114 402 l 2
 1181 289 1232 220 1304 174 c 1
 1330 156 1370 142 1424 132 c 2
 1522 112 l 1
 1512 38 l 1
 1434 -8 1354 -22 1300 -22 c 0
 1158 -22 1058 48 994 134 c 0
 968 170 941 216 912 270 c 2
 758 560 l 1
 742 586 730 606 720 618 c 2
 676 676 l 1
 654 702 l 1
 668 738 l 1
 764 760 l 1
 922 794 1060 850 1116 1028 c 0
 1124 1054 1128 1086 1128 1126 c 0
 1128 1198 1108 1284 1044 1356 c 0
 972 1438 888 1458 816 1458 c 0
 774 1458 738 1454 704 1444 c 1
 524 132 l 1
1206 2054 m 1
 984 1670 l 1
 922 1708 l 1
 1070 2102 l 1
 1206 2054 l 1
EndSplineSet
Validated: 1
EndChar

StartChar: Rcaron
Encoding: 344 344 81
Width: 1530
VWidth: 0
Flags: HW
HStem: -22 21G<1229 1327> 0 88<32 86.0672 677.713 728> 1458 98<705.594 974.174>
VStem: 1128 254<1011.67 1295.99>
DStem2: 273.899 -22 505.091 -22 0.121869 0.992546<183.332 1349.73> 786 1954 688 1880 0.736873 -0.676031<0 250.267> 934 706 758 560 0.509492 -0.860475<0 637.456> 978 1780 972 1696 0.690318 0.723506<0 226.544>
LayerCount: 2
Fore
SplineSet
524 132 m 1
 752 88 l 1
 728 0 l 1
 10 0 l 1
 32 92 l 1
 296 158 l 1
 452 1316 l 1
 178 1332 l 1
 196 1428 l 1
 330 1474 664 1556 864 1556 c 0
 894 1556 918 1556 934 1554 c 0
 1134 1540 1294 1464 1360 1296 c 1
 1374 1256 1382 1218 1382 1180 c 0
 1382 1158 1380 1136 1376 1116 c 0
 1352 996 1282 896 1120 800 c 0
 1060 764 998 734 934 710 c 1
 934 706 l 1
 1114 402 l 2
 1181 289 1232 220 1304 174 c 1
 1330 156 1370 142 1424 132 c 2
 1522 112 l 1
 1512 38 l 1
 1434 -8 1354 -22 1300 -22 c 0
 1158 -22 1058 48 994 134 c 0
 968 170 941 216 912 270 c 2
 758 560 l 1
 742 586 730 606 720 618 c 2
 676 676 l 1
 654 702 l 1
 668 738 l 1
 764 760 l 1
 922 794 1060 850 1116 1028 c 0
 1124 1054 1128 1086 1128 1126 c 0
 1128 1198 1108 1284 1044 1356 c 0
 972 1438 888 1458 816 1458 c 0
 774 1458 738 1454 704 1444 c 1
 524 132 l 1
906 1680 m 1
 688 1880 l 1
 786 1954 l 1
 966 1780 l 1
 978 1780 l 1
 1128 1950 l 1
 1180 1914 l 1
 972 1696 l 1
 906 1680 l 1
EndSplineSet
Validated: 1
EndChar

StartChar: Rcommaaccent
Encoding: 342 342 82
Width: 1530
VWidth: 0
Flags: HW
HStem: -52 20G<855 903> -22 21G<1229 1327> 0 88<32 86.0672 677.713 728> 1458 98<705.594 974.174>
VStem: 852 128<-296.418 -147.792> 1128 254<1011.67 1295.99>
DStem2: 222.82 -438 454.013 -438 0.121869 0.992546<602.456 1768.86> 934 706 758 560 0.509492 -0.860475<0 637.456>
LayerCount: 2
Fore
SplineSet
524 132 m 1
 752 88 l 1
 728 0 l 1
 10 0 l 1
 32 92 l 1
 296 158 l 1
 452 1316 l 1
 178 1332 l 1
 196 1428 l 1
 330 1474 664 1556 864 1556 c 0
 894 1556 918 1556 934 1554 c 0
 1134 1540 1294 1464 1360 1296 c 1
 1374 1256 1382 1218 1382 1180 c 0
 1382 1158 1380 1136 1376 1116 c 0
 1352 996 1282 896 1120 800 c 0
 1060 764 998 734 934 710 c 1
 934 706 l 1
 1114 402 l 2
 1181 289 1232 220 1304 174 c 1
 1330 156 1370 142 1424 132 c 2
 1522 112 l 1
 1512 38 l 1
 1434 -8 1354 -22 1300 -22 c 0
 1158 -22 1058 48 994 134 c 0
 968 170 941 216 912 270 c 2
 758 560 l 1
 742 586 730 606 720 618 c 2
 676 676 l 1
 654 702 l 1
 668 738 l 1
 764 760 l 1
 922 794 1060 850 1116 1028 c 0
 1124 1054 1128 1086 1128 1126 c 0
 1128 1198 1108 1284 1044 1356 c 0
 972 1438 888 1458 816 1458 c 0
 774 1458 738 1454 704 1444 c 1
 524 132 l 1
872 -32 m 2
 882 -32 l 1
 924 -38 952 -68 968 -108 c 0
 976 -126 980 -148 980 -170 c 0
 980 -178 978 -190 976 -206 c 1
 962 -272 924 -320 866 -366 c 1
 836 -392 798 -416 752 -438 c 1
 726 -398 l 1
 764 -376 800 -354 824 -316 c 1
 846 -284 852 -238 852 -236 c 0
 852 -232 850 -224 848 -214 c 0
 840 -172 792 -130 768 -116 c 1
 784 -60 838 -32 872 -32 c 2
EndSplineSet
Validated: 1
EndChar

StartChar: S
Encoding: 83 83 83
Width: 1062
VWidth: 0
Flags: HW
HStem: -30 128<368.904 652.144> 1464 116<527.537 795.979>
VStem: 10 282<174.358 419.051> 196 236<1092.4 1289.99> 756 250<251.111 477.281> 868 108<1052 1104.7>
LayerCount: 2
Fore
SplineSet
976 1028 m 1xd4
 868 1052 l 1
 858 1360 l 1
 818 1414 770 1446 712 1458 c 0
 696 1462 680 1464 662 1464 c 0
 558 1464 440 1392 432 1256 c 1
 432 1242 l 2xd4
 432 1114 502 1038 636 932 c 1
 774 820 872 736 938 640 c 0
 974 588 996 530 1004 464 c 1
 1006 458 1006 446 1006 430 c 0
 1006 342 974 236 888 148 c 1
 754 6 590 -30 456 -30 c 0
 328 -30 210 12 140 60 c 0
 62 114 20 194 12 256 c 1
 10 262 10 272 10 286 c 0
 10 306 14 328 20 352 c 1
 42 418 84 462 148 488 c 1
 178 502 212 508 248 508 c 0
 274 508 302 504 328 496 c 1
 312 450 302 410 296 376 c 1
 294 350 292 330 292 316 c 0
 292 234 322 178 372 140 c 1
 398 122 430 108 464 102 c 1
 482 100 498 98 508 98 c 0
 604 98 710 158 744 254 c 0
 752 278 756 302 756 328 c 0xe8
 756 386 740 456 676 522 c 1
 650 552 616 580 578 610 c 0
 446 716 354 802 300 868 c 0
 228 954 194 1040 194 1120 c 0
 194 1122 194 1128 196 1134 c 1
 196 1140 196 1146 196 1148 c 0
 200 1198 214 1246 238 1290 c 0
 324 1452 504 1566 688 1580 c 1
 718 1580 l 2
 850 1580 962 1538 1056 1456 c 1
 976 1028 l 1xd4
EndSplineSet
Validated: 1
EndChar

StartChar: Sacute
Encoding: 346 346 84
Width: 1062
VWidth: 0
Flags: HW
HStem: -30 128<368.904 653.605> 1464 116<527.909 795.205>
VStem: 10 282<174.669 419.051> 196 236<1094.82 1289.99> 756 250<250.531 477.425> 868 108<1052 1104.7>
LayerCount: 2
Fore
SplineSet
976 1028 m 1xd4
 868 1052 l 1
 858 1360 l 1
 820 1410 770 1444 712 1458 c 0
 696 1462 678 1464 660 1464 c 0
 562 1464 440 1392 432 1256 c 1
 432 1240 l 2xd4
 432 1120 494 1052 636 932 c 1
 774 820 880 726 938 640 c 0
 974 588 996 530 1004 464 c 1
 1006 456 1006 444 1006 428 c 0
 1006 338 974 236 888 148 c 1
 762 14 590 -30 456 -30 c 0
 328 -30 210 12 140 60 c 0
 62 114 20 194 12 256 c 1
 10 262 10 274 10 288 c 0
 10 306 14 328 20 352 c 1
 42 418 84 462 148 488 c 1
 178 502 212 508 248 508 c 0
 274 508 302 504 328 496 c 1
 312 450 302 410 296 376 c 1
 294 350 292 330 292 316 c 0
 292 238 322 178 372 140 c 1
 398 122 430 108 464 102 c 0
 474 100 490 98 510 98 c 0
 604 98 710 158 744 254 c 0
 752 276 756 302 756 334 c 0xe8
 756 388 740 456 676 522 c 0
 656 544 624 572 578 610 c 0
 446 716 354 802 300 868 c 1
 226 962 196 1038 196 1120 c 2
 196 1148 l 1
 200 1194 214 1242 238 1290 c 1
 326 1456 504 1566 688 1580 c 1
 718 1580 l 2
 848 1580 962 1538 1056 1456 c 1
 976 1028 l 1xd4
984 2054 m 1
 762 1670 l 1
 700 1708 l 1
 848 2102 l 1
 984 2054 l 1
EndSplineSet
Validated: 1
EndChar

StartChar: Scaron
Encoding: 352 352 85
Width: 1062
VWidth: 0
Flags: HW
HStem: -30 128<368.904 653.605> 1464 116<527.909 795.205>
VStem: 10 282<174.669 419.051> 196 236<1094.82 1289.99> 756 250<250.531 477.425> 868 108<1052 1104.7>
DStem2: 564 1954 466 1880 0.736873 -0.676031<0 250.267> 756 1780 750 1696 0.690318 0.723506<0 226.544>
LayerCount: 2
Fore
SplineSet
976 1028 m 1xd4
 868 1052 l 1
 858 1360 l 1
 820 1410 770 1444 712 1458 c 0
 696 1462 678 1464 660 1464 c 0
 562 1464 440 1392 432 1256 c 1
 432 1240 l 2xd4
 432 1120 494 1052 636 932 c 1
 774 820 880 726 938 640 c 0
 974 588 996 530 1004 464 c 1
 1006 456 1006 444 1006 428 c 0
 1006 338 974 236 888 148 c 1
 762 14 590 -30 456 -30 c 0
 328 -30 210 12 140 60 c 0
 62 114 20 194 12 256 c 1
 10 262 10 274 10 288 c 0
 10 306 14 328 20 352 c 1
 42 418 84 462 148 488 c 1
 178 502 212 508 248 508 c 0
 274 508 302 504 328 496 c 1
 312 450 302 410 296 376 c 1
 294 350 292 330 292 316 c 0
 292 238 322 178 372 140 c 1
 398 122 430 108 464 102 c 0
 474 100 490 98 510 98 c 0
 604 98 710 158 744 254 c 0
 752 276 756 302 756 334 c 0xe8
 756 388 740 456 676 522 c 0
 656 544 624 572 578 610 c 0
 446 716 354 802 300 868 c 1
 226 962 196 1038 196 1120 c 2
 196 1148 l 1
 200 1194 214 1242 238 1290 c 1
 326 1456 504 1566 688 1580 c 1
 718 1580 l 2
 848 1580 962 1538 1056 1456 c 1
 976 1028 l 1xd4
684 1680 m 1
 466 1880 l 1
 564 1954 l 1
 744 1780 l 1
 756 1780 l 1xc8
 906 1950 l 1
 958 1914 l 1
 750 1696 l 1
 684 1680 l 1
EndSplineSet
Validated: 1
EndChar

StartChar: Scedilla
Encoding: 350 350 86
Width: 1062
VWidth: 0
Flags: HW
HStem: -472 21G<375.333 463> -30 128<369.671 468> 1464 116<527.909 795.205>
VStem: 10 282<174.669 419.051> 196 236<1094.82 1289.99> 462 162<-371.244 -212.843> 756 250<250.531 477.425> 868 108<1052 1104.7>
LayerCount: 2
Fore
SplineSet
516 -92 m 1xee
 588 -154 624 -216 624 -274 c 0
 624 -358 544 -424 382 -472 c 1
 358 -400 l 1
 428 -376 462 -342 462 -300 c 0
 462 -266 432 -222 374 -166 c 1
 468 -30 l 1
 456 -30 l 2
 328 -30 210 12 140 60 c 0
 62 114 20 194 12 256 c 1
 10 262 10 274 10 288 c 0
 10 306 14 328 20 352 c 1
 42 418 84 462 148 488 c 1
 178 502 212 508 248 508 c 0
 274 508 302 504 328 496 c 1
 312 450 302 410 296 376 c 1
 294 350 292 330 292 316 c 0
 292 238 322 178 372 140 c 1
 398 122 430 108 464 102 c 0
 474 100 490 98 510 98 c 0
 604 98 710 158 744 254 c 0
 752 276 756 302 756 334 c 0xf6
 756 388 740 456 676 522 c 0
 656 544 624 572 578 610 c 0
 446 716 354 802 300 868 c 1
 226 962 196 1038 196 1120 c 2
 196 1148 l 1
 200 1194 214 1242 238 1290 c 1
 326 1456 504 1566 688 1580 c 1
 718 1580 l 2
 848 1580 962 1538 1056 1456 c 1
 976 1028 l 1
 868 1052 l 1xed
 858 1360 l 1
 820 1410 770 1444 712 1458 c 0
 696 1462 678 1464 660 1464 c 0
 562 1464 440 1392 432 1256 c 1
 432 1240 l 2
 432 1120 494 1052 636 932 c 1
 774 820 880 726 938 640 c 0
 974 588 996 530 1004 464 c 1
 1006 456 1006 444 1006 428 c 0
 1006 338 974 236 888 148 c 1
 826 82 746 32 648 0 c 1
 614 -10 588 -18 566 -20 c 1
 516 -92 l 1xee
EndSplineSet
Validated: 1
EndChar

StartChar: Scommaaccent
Encoding: 536 536 87
Width: 1062
VWidth: 0
Flags: HW
HStem: -52 20G<475 523> -30 128<368.904 653.605> 1464 116<527.909 795.205>
VStem: 10 282<174.669 419.051> 196 236<1094.82 1289.99> 472 128<-296.418 -147.792> 756 250<250.531 477.425> 868 108<1052 1104.7>
LayerCount: 2
Fore
SplineSet
976 1028 m 1xed
 868 1052 l 1
 858 1360 l 1
 820 1410 770 1444 712 1458 c 0
 696 1462 678 1464 660 1464 c 0
 562 1464 440 1392 432 1256 c 1
 432 1240 l 2xed
 432 1120 494 1052 636 932 c 1
 774 820 880 726 938 640 c 0
 974 588 996 530 1004 464 c 1
 1006 456 1006 444 1006 428 c 0
 1006 338 974 236 888 148 c 1
 762 14 590 -30 456 -30 c 0
 328 -30 210 12 140 60 c 0
 62 114 20 194 12 256 c 1
 10 262 10 274 10 288 c 0
 10 306 14 328 20 352 c 1
 42 418 84 462 148 488 c 1
 178 502 212 508 248 508 c 0
 274 508 302 504 328 496 c 1
 312 450 302 410 296 376 c 1
 294 350 292 330 292 316 c 0
 292 238 322 178 372 140 c 1
 398 122 430 108 464 102 c 0
 474 100 490 98 510 98 c 0
 604 98 710 158 744 254 c 0
 752 276 756 302 756 334 c 0xf6
 756 388 740 456 676 522 c 0
 656 544 624 572 578 610 c 0
 446 716 354 802 300 868 c 1
 226 962 196 1038 196 1120 c 2
 196 1148 l 1
 200 1194 214 1242 238 1290 c 1
 326 1456 504 1566 688 1580 c 1
 718 1580 l 2
 848 1580 962 1538 1056 1456 c 1
 976 1028 l 1xed
492 -32 m 2
 502 -32 l 1
 544 -38 572 -68 588 -108 c 0
 596 -126 600 -148 600 -170 c 0
 600 -178 598 -190 596 -206 c 1
 582 -272 544 -320 486 -366 c 1
 456 -392 418 -416 372 -438 c 1
 346 -398 l 1
 384 -376 420 -354 444 -316 c 1
 466 -284 472 -238 472 -236 c 0
 472 -232 470 -224 468 -214 c 0
 460 -172 412 -130 388 -116 c 1
 404 -60 458 -32 492 -32 c 2
EndSplineSet
Validated: 1
EndChar

StartChar: T
Encoding: 84 84 88
Width: 1362
VWidth: 0
Flags: HW
HStem: -2 100<120 176.922 825.048 920> 1410 138<296.863 532.732 786 1095>
VStem: 10 118<1028 1060.11> 1136 118<1028 1087.69>
DStem2: 369.372 -2 615.056 -2 0.121869 0.992546<169.262 1400.79>
LayerCount: 2
Fore
SplineSet
904 1548 m 1
 1354 1540 l 1
 1254 1012 l 1
 1136 1028 l 1
 1100 1380 l 1
 994 1398 850 1412 786 1414 c 1
 632 136 l 1
 942 98 l 1
 920 -2 l 1
 92 -2 l 1
 120 98 l 1
 390 166 l 1
 536 1388 l 1
 466 1398 414 1406 380 1408 c 1
 368 1410 350 1410 324 1410 c 0
 290 1410 264 1410 246 1408 c 1
 128 1012 l 1
 10 1028 l 1
 10 1512 l 1
 234 1532 486 1544 766 1548 c 1
 904 1548 l 1
EndSplineSet
Validated: 1
EndChar

StartChar: Tbar
Encoding: 358 358 89
Width: 1362
VWidth: 0
Flags: HW
HStem: -2 100<120 176.922 825.048 920> 1410 138<296.863 532.732 786 1095> 1706 122<432 950>
VStem: 10 120<1028 1060.94> 1136 116<1028 1086.21>
DStem2: 369.372 -2 615.056 -2 0.121869 0.992546<169.262 1400.79>
LayerCount: 2
Fore
SplineSet
884 1548 m 2
 1058 1548 1216 1546 1354 1540 c 1
 1252 1012 l 1
 1136 1028 l 1
 1100 1380 l 1
 994 1398 850 1412 786 1414 c 1
 632 136 l 1
 942 98 l 1
 920 -2 l 1
 92 -2 l 1
 120 98 l 1
 390 166 l 1
 536 1388 l 1
 466 1398 414 1406 380 1408 c 0
 360 1410 330 1410 292 1410 c 0
 286 1410 280 1410 270 1410 c 1
 260 1408 252 1408 246 1408 c 1
 130 1012 l 1
 10 1028 l 1
 10 1512 l 1
 234 1532 486 1544 766 1548 c 1
 884 1548 l 2
432 1828 m 1
 966 1828 l 1
 950 1706 l 1
 416 1706 l 1
 432 1828 l 1
EndSplineSet
Validated: 1
EndChar

StartChar: Tcaron
Encoding: 356 356 90
Width: 1362
VWidth: 0
Flags: HW
HStem: -2 100<120 176.922 825.048 920> 1410 138<296.863 532.732 786 1095>
VStem: 10 120<1028 1060.94> 1136 116<1028 1086.21>
DStem2: 369.372 -2 615.056 -2 0.121869 0.992546<169.262 1400.79> 534 1954 436 1880 0.736873 -0.676031<0 250.267> 726 1780 720 1696 0.690318 0.723506<0 226.544>
LayerCount: 2
Fore
SplineSet
884 1548 m 2
 1058 1548 1216 1546 1354 1540 c 1
 1252 1012 l 1
 1136 1028 l 1
 1100 1380 l 1
 994 1398 850 1412 786 1414 c 1
 632 136 l 1
 942 98 l 1
 920 -2 l 1
 92 -2 l 1
 120 98 l 1
 390 166 l 1
 536 1388 l 1
 466 1398 414 1406 380 1408 c 0
 360 1410 330 1410 292 1410 c 0
 286 1410 280 1410 270 1410 c 1
 260 1408 252 1408 246 1408 c 1
 130 1012 l 1
 10 1028 l 1
 10 1512 l 1
 234 1532 486 1544 766 1548 c 1
 884 1548 l 2
654 1680 m 1
 436 1880 l 1
 534 1954 l 1
 714 1780 l 1
 726 1780 l 1
 876 1950 l 1
 928 1914 l 1
 720 1696 l 1
 654 1680 l 1
EndSplineSet
Validated: 1
EndChar

StartChar: Tcedilla
Encoding: 354 354 91
Width: 1362
VWidth: 0
Flags: HW
HStem: -472 21G<393.333 481> -2 100<120 176.922 825.048 920> 1410 138<296.863 532.732 786 1095>
VStem: 10 120<1028 1060.94> 480 162<-371.244 -212.843> 1136 116<1028 1086.21>
DStem2: 311.663 -472 557.347 -472 0.121869 0.992546<642.791 1874.32>
LayerCount: 2
Fore
SplineSet
534 -92 m 1
 606 -154 642 -216 642 -274 c 0
 642 -358 562 -424 400 -472 c 1
 376 -400 l 1
 446 -376 480 -342 480 -300 c 0
 480 -266 450 -222 392 -166 c 1
 506 -2 l 1
 92 -2 l 1
 120 98 l 1
 390 166 l 1
 536 1388 l 1
 466 1398 414 1406 380 1408 c 0
 360 1410 330 1410 292 1410 c 0
 286 1410 280 1410 270 1410 c 1
 260 1408 252 1408 246 1408 c 1
 130 1012 l 1
 10 1028 l 1
 10 1512 l 1
 234 1532 486 1544 766 1548 c 1
 884 1548 l 2
 1058 1548 1216 1546 1354 1540 c 1
 1252 1012 l 1
 1136 1028 l 1
 1100 1380 l 1
 994 1398 850 1412 786 1414 c 1
 632 136 l 1
 942 98 l 1
 920 -2 l 1
 596 -2 l 1
 534 -92 l 1
EndSplineSet
Validated: 1
EndChar

StartChar: Tcommaaccent
Encoding: 538 538 92
Width: 1362
VWidth: 0
Flags: HW
HStem: -52 20G<493 541> -2 100<120 176.922 825.048 920> 1410 138<296.863 532.732 786 1095>
VStem: 10 120<1028 1060.94> 490 128<-296.418 -147.792> 1136 116<1028 1086.21>
DStem2: 390 166 632 136 0.105579 0.994411<0 1232.83>
LayerCount: 2
Fore
SplineSet
884 1548 m 2
 1058 1548 1216 1546 1354 1540 c 1
 1252 1012 l 1
 1136 1028 l 1
 1100 1380 l 1
 994 1398 850 1412 786 1414 c 1
 632 136 l 1
 942 98 l 1
 920 -2 l 1
 92 -2 l 1
 120 98 l 1
 390 166 l 1
 536 1388 l 1
 466 1398 414 1406 380 1408 c 0
 360 1410 330 1410 292 1410 c 0
 286 1410 280 1410 270 1410 c 1
 260 1408 252 1408 246 1408 c 1
 130 1012 l 1
 10 1028 l 1
 10 1512 l 1
 234 1532 486 1544 766 1548 c 1
 884 1548 l 2
510 -32 m 2
 520 -32 l 1
 562 -38 590 -68 606 -108 c 0
 614 -126 618 -148 618 -170 c 0
 618 -178 616 -190 614 -206 c 1
 600 -272 562 -320 504 -366 c 0
 474 -390 436 -414 388 -438 c 1
 364 -398 l 1
 402 -376 438 -354 462 -316 c 1
 484 -284 490 -238 490 -236 c 0
 490 -232 488 -224 486 -214 c 0
 478 -172 430 -130 406 -116 c 1
 422 -60 476 -32 510 -32 c 2
EndSplineSet
Validated: 1
EndChar

StartChar: Thorn
Encoding: 222 222 93
Width: 1390
VWidth: 0
Flags: HW
HStem: 0 96<30 89.5161 716.139 788> 286 104<638.622 834.882> 1208 344<698.844 913> 1208 86<686 944.827> 1398 92<202 280.352> 1448 96<815.051 954>
VStem: 1160 242<670.895 996.785>
DStem2: 284.109 0 531.547 0 0.121869 0.992546<165.161 1252.03 1323.41 1369.31>
LayerCount: 2
Fore
SplineSet
788 0 m 1xe2
 8 0 l 1
 30 96 l 1
 304 162 l 1
 460 1358 l 1
 180 1398 l 1
 202 1490 l 1xca
 500 1544 642 1552 776 1552 c 0xe2
 822 1552 888 1550 976 1544 c 1
 954 1448 l 1
 702 1422 l 1
 686 1284 l 1
 756 1290 814 1294 864 1294 c 0xd6
 1210 1294 1402 1140 1402 860 c 0
 1402 580 1134 332 640 286 c 1
 630 390 l 1
 682 396 730 404 772 414 c 0
 1022 473 1160 614 1160 804 c 0
 1160 1036 1004 1208 746 1208 c 0
 726 1208 702 1206 676 1200 c 1
 548 134 l 1
 818 98 l 1
 788 0 l 1xe2
EndSplineSet
Validated: 1
EndChar

StartChar: U
Encoding: 85 85 94
Width: 1764
VWidth: 0
Flags: HW
HStem: -42 194<636.094 961.841> 1388 96<36 99.2742 1064 1291.09> 1408 124<530 633.725> 1442 94<672.275 776 1690.3 1732>
VStem: 196 250<350.303 972.125>
DStem2: 116.266 -42 354.967 -42 0.121869 0.992546<673.298 1396.11> 1141.81 -42 1286.26 -42 0.121869 0.992546<389.669 1425.18>
LayerCount: 2
Fore
SplineSet
284 1344 m 1xa8
 10 1388 l 1
 36 1484 l 1xc8
 168 1508 300 1524 432 1532 c 0xa8
 504 1536 576 1538 646 1538 c 2
 798 1536 l 1
 776 1442 l 1x98
 530 1408 l 1xa8
 472 922 l 2
 470 904 468 878 464 846 c 0
 456 782 450 732 448 684 c 1
 446 664 446 634 446 594 c 0
 446 472 458 334 584 232 c 1
 646 178 724 152 816 152 c 0
 982 152 1096 244 1152 358 c 0
 1182 418 1208 518 1228 660 c 1
 1320 1372 l 1
 1042 1384 l 1
 1064 1480 l 1
 1288 1528 1520 1536 1618 1536 c 0x98
 1648 1536 1694 1534 1756 1532 c 1
 1732 1438 l 1
 1476 1354 l 1
 1370 640 l 2
 1312 250 1206 118 1014 24 c 0
 922 -20 826 -42 728 -42 c 2
 716 -42 l 1
 572 -36 436 12 346 102 c 0
 278 170 234 256 212 360 c 0
 202 408 196 464 196 526 c 0
 196 584 206 698 228 868 c 1
 284 1344 l 1xa8
EndSplineSet
Validated: 1
EndChar

StartChar: Uacute
Encoding: 218 218 95
Width: 1764
VWidth: 0
Flags: HW
HStem: -42 194<636.094 963.096> 1388 94<36 99.2742 1064 1291.09> 1408 130<530 633.725> 1442 94<672.275 776 1690.3 1732>
VStem: 196 250<350.303 972.125>
DStem2: 116.266 -42 354.967 -42 0.121869 0.992546<675.191 1396.11> 1141.81 -42 1286.26 -42 0.121869 0.992546<393.467 1425.18>
LayerCount: 2
Fore
SplineSet
284 1344 m 1x98
 10 1388 l 1
 36 1482 l 1xc8
 178 1508 310 1524 432 1532 c 0
 506 1536 580 1538 654 1538 c 0xa8
 718 1538 766 1538 798 1536 c 1
 776 1442 l 1x98
 530 1408 l 1xa8
 472 922 l 2
 470 904 468 878 464 846 c 0
 456 782 450 732 448 684 c 1
 446 664 446 634 446 596 c 0
 446 474 458 334 584 232 c 1
 646 178 724 152 816 152 c 0
 974 152 1088 238 1152 358 c 1
 1184 422 1210 522 1228 660 c 2
 1320 1372 l 1
 1042 1384 l 1
 1064 1480 l 1
 1288 1528 1456 1536 1608 1536 c 0
 1642 1536 1692 1534 1756 1532 c 1
 1732 1438 l 1
 1476 1354 l 1
 1370 640 l 2
 1313 258 1206 119 1014 24 c 0
 926 -20 830 -42 726 -42 c 2
 716 -42 l 1
 572 -36 436 12 346 102 c 0
 278 170 234 256 212 360 c 0
 202 408 196 464 196 526 c 0
 196 580 208 694 228 868 c 2
 284 1344 l 1x98
1202 2054 m 1
 980 1670 l 1
 918 1708 l 1
 1066 2102 l 1
 1202 2054 l 1
EndSplineSet
Validated: 1
EndChar

StartChar: Ucaron
Encoding: 467 467 96
Width: 1764
VWidth: 0
Flags: HW
HStem: -42 194<636.094 963.096> 1388 94<36 99.2742 1064 1291.09> 1408 130<530 633.725> 1442 94<672.275 776 1690.3 1732>
VStem: 196 250<350.303 972.125>
DStem2: 116.266 -42 354.967 -42 0.121869 0.992546<675.191 1396.11> 782 1954 684 1880 0.736873 -0.676031<0 250.267> 974 1780 968 1696 0.690318 0.723506<0 226.544> 1141.81 -42 1286.26 -42 0.121869 0.992546<393.467 1425.18>
LayerCount: 2
Fore
SplineSet
284 1344 m 1x98
 10 1388 l 1
 36 1482 l 1xc8
 178 1508 310 1524 432 1532 c 0
 506 1536 580 1538 654 1538 c 0xa8
 718 1538 766 1538 798 1536 c 1
 776 1442 l 1x98
 530 1408 l 1xa8
 472 922 l 2
 470 904 468 878 464 846 c 0
 456 782 450 732 448 684 c 1
 446 664 446 634 446 596 c 0
 446 474 458 334 584 232 c 1
 646 178 724 152 816 152 c 0
 974 152 1088 238 1152 358 c 1
 1184 422 1210 522 1228 660 c 2
 1320 1372 l 1
 1042 1384 l 1
 1064 1480 l 1
 1288 1528 1456 1536 1608 1536 c 0
 1642 1536 1692 1534 1756 1532 c 1
 1732 1438 l 1
 1476 1354 l 1
 1370 640 l 2
 1313 258 1206 119 1014 24 c 0
 926 -20 830 -42 726 -42 c 2
 716 -42 l 1
 572 -36 436 12 346 102 c 0
 278 170 234 256 212 360 c 0
 202 408 196 464 196 526 c 0
 196 580 208 694 228 868 c 2
 284 1344 l 1x98
902 1680 m 1
 684 1880 l 1
 782 1954 l 1
 962 1780 l 1
 974 1780 l 1
 1124 1950 l 1
 1176 1914 l 1
 968 1696 l 1
 902 1680 l 1
EndSplineSet
Validated: 1
EndChar

StartChar: Ucircumflex
Encoding: 219 219 97
Width: 1764
VWidth: 0
Flags: HW
HStem: -42 194<636.094 963.096> 1388 94<36 99.2742 1064 1291.09> 1408 130<530 633.725> 1442 94<672.275 776 1690.3 1732>
VStem: 196 250<350.303 972.125>
DStem2: 116.266 -42 354.967 -42 0.121869 0.992546<675.191 1396.11> 1141.81 -42 1286.26 -42 0.121869 0.992546<393.467 1425.18>
LayerCount: 2
Fore
SplineSet
284 1344 m 1x98
 10 1388 l 1
 36 1482 l 1xc8
 178 1508 310 1524 432 1532 c 0
 506 1536 580 1538 654 1538 c 0xa8
 718 1538 766 1538 798 1536 c 1
 776 1442 l 1x98
 530 1408 l 1xa8
 472 922 l 2
 470 904 468 878 464 846 c 0
 456 782 450 732 448 684 c 1
 446 664 446 634 446 596 c 0
 446 474 458 334 584 232 c 1
 646 178 724 152 816 152 c 0
 974 152 1088 238 1152 358 c 1
 1184 422 1210 522 1228 660 c 2
 1320 1372 l 1
 1042 1384 l 1
 1064 1480 l 1
 1288 1528 1456 1536 1608 1536 c 0
 1642 1536 1692 1534 1756 1532 c 1
 1732 1438 l 1
 1476 1354 l 1
 1370 640 l 2
 1313 258 1206 119 1014 24 c 0
 926 -20 830 -42 726 -42 c 2
 716 -42 l 1
 572 -36 436 12 346 102 c 0
 278 170 234 256 212 360 c 0
 202 408 196 464 196 526 c 0
 196 580 208 694 228 868 c 2
 284 1344 l 1x98
956 1950 m 1
 1172 1726 l 1
 1112 1682 l 1
 914 1814 l 1
 902 1814 l 1
 732 1680 l 1
 686 1716 l 1
 890 1934 l 1
 956 1950 l 1
EndSplineSet
Validated: 1
EndChar

StartChar: Udieresis
Encoding: 220 220 98
Width: 1764
VWidth: 0
Flags: HW
HStem: -42 194<636.094 963.096> 1388 94<36 99.2742 1064 1291.09> 1408 130<530 633.725> 1442 94<672.275 776 1690.3 1732> 1712 192<680.648 853.259 1004.65 1178.67>
VStem: 196 250<350.303 972.125> 664 206<1729 1886.53> 988 208<1730.33 1885.94>
DStem2: 116.266 -42 354.967 -42 0.121869 0.992546<675.191 1396.11> 1141.81 -42 1286.26 -42 0.121869 0.992546<393.467 1425.18>
LayerCount: 2
Fore
SplineSet
284 1344 m 1x9f
 10 1388 l 1
 36 1482 l 1xcf
 178 1508 310 1524 432 1532 c 0
 506 1536 580 1538 654 1538 c 0xaf
 718 1538 766 1538 798 1536 c 1
 776 1442 l 1x9f
 530 1408 l 1xaf
 472 922 l 2
 470 904 468 878 464 846 c 0
 456 782 450 732 448 684 c 1
 446 664 446 634 446 596 c 0
 446 474 458 334 584 232 c 1
 646 178 724 152 816 152 c 0
 974 152 1088 238 1152 358 c 1
 1184 422 1210 522 1228 660 c 2
 1320 1372 l 1
 1042 1384 l 1
 1064 1480 l 1
 1288 1528 1456 1536 1608 1536 c 0
 1642 1536 1692 1534 1756 1532 c 1
 1732 1438 l 1
 1476 1354 l 1
 1370 640 l 2
 1313 258 1206 119 1014 24 c 0
 926 -20 830 -42 726 -42 c 2
 716 -42 l 1
 572 -36 436 12 346 102 c 0
 278 170 234 256 212 360 c 0
 202 408 196 464 196 526 c 0
 196 580 208 694 228 868 c 2
 284 1344 l 1x9f
1196 1810 m 0
 1196 1752 1146 1712 1090 1712 c 0
 1036 1712 988 1752 988 1810 c 0
 988 1866 1036 1904 1090 1904 c 0
 1146 1904 1196 1864 1196 1810 c 0
870 1810 m 0
 870 1752 822 1712 766 1712 c 0
 712 1712 664 1752 664 1810 c 0
 664 1866 712 1904 766 1904 c 0
 822 1904 870 1864 870 1810 c 0
EndSplineSet
Validated: 1
EndChar

StartChar: Udieresisacute
Encoding: 471 471 99
Width: 1764
VWidth: 0
Flags: HW
HStem: -42 194<636.094 963.096> 1388 94<36 99.2742 1064 1291.09> 1408 130<530 633.725> 1442 94<672.275 776 1690.3 1732> 1712 192<680.648 853.259 1004.65 1178.67>
VStem: 196 250<350.303 972.125> 664 206<1729 1886.53> 988 208<1730.33 1885.94>
DStem2: 116.266 -42 354.967 -42 0.121869 0.992546<675.191 1396.11> 1141.81 -42 1286.26 -42 0.121869 0.992546<393.467 1425.18>
LayerCount: 2
Fore
SplineSet
1202 2334 m 1x8f
 980 1950 l 1
 918 1988 l 1
 1066 2382 l 1
 1202 2334 l 1x8f
284 1344 m 1
 10 1388 l 1
 36 1482 l 1xcf
 178 1508 310 1524 432 1532 c 0
 506 1536 580 1538 654 1538 c 0xaf
 718 1538 766 1538 798 1536 c 1
 776 1442 l 1x9f
 530 1408 l 1xaf
 472 922 l 2
 470 904 468 878 464 846 c 0
 456 782 450 732 448 684 c 1
 446 664 446 634 446 596 c 0
 446 474 458 334 584 232 c 1
 646 178 724 152 816 152 c 0
 974 152 1088 238 1152 358 c 1
 1184 422 1210 522 1228 660 c 2
 1320 1372 l 1
 1042 1384 l 1
 1064 1480 l 1
 1288 1528 1456 1536 1608 1536 c 0x9f
 1642 1536 1692 1534 1756 1532 c 1
 1732 1438 l 1
 1476 1354 l 1
 1370 640 l 2
 1313 258 1206 119 1014 24 c 0
 926 -20 830 -42 726 -42 c 2
 716 -42 l 1
 572 -36 436 12 346 102 c 0
 278 170 234 256 212 360 c 0
 202 408 196 464 196 526 c 0
 196 580 208 694 228 868 c 2
 284 1344 l 1
1196 1810 m 0
 1196 1752 1146 1712 1090 1712 c 0
 1036 1712 988 1752 988 1810 c 0
 988 1866 1036 1904 1090 1904 c 0
 1146 1904 1196 1864 1196 1810 c 0
870 1810 m 0
 870 1752 822 1712 766 1712 c 0
 712 1712 664 1752 664 1810 c 0
 664 1866 712 1904 766 1904 c 0
 822 1904 870 1864 870 1810 c 0
EndSplineSet
Validated: 1
EndChar

StartChar: Udieresiscaron
Encoding: 473 473 100
Width: 1764
VWidth: 0
Flags: HW
HStem: -42 194<636.094 963.096> 1388 94<36 99.2742 1064 1291.09> 1408 130<530 633.725> 1442 94<672.275 776 1690.3 1732> 1712 192<680.648 853.259 1004.65 1178.67>
VStem: 196 250<350.303 972.125> 664 206<1729 1886.53> 988 208<1730.33 1885.94>
DStem2: 116.266 -42 354.967 -42 0.121869 0.992546<675.191 1396.11> 782 2222 684 2148 0.736873 -0.676031<0 250.267> 974 2048 968 1964 0.690318 0.723506<0 226.544> 1141.81 -42 1286.26 -42 0.121869 0.992546<393.467 1425.18>
LayerCount: 2
Fore
SplineSet
902 1948 m 1x8f
 684 2148 l 1
 782 2222 l 1
 962 2048 l 1
 974 2048 l 1
 1124 2218 l 1
 1176 2182 l 1
 968 1964 l 1
 902 1948 l 1x8f
284 1344 m 1
 10 1388 l 1
 36 1482 l 1xcf
 178 1508 310 1524 432 1532 c 0
 506 1536 580 1538 654 1538 c 0xaf
 718 1538 766 1538 798 1536 c 1
 776 1442 l 1x9f
 530 1408 l 1xaf
 472 922 l 2
 470 904 468 878 464 846 c 0
 456 782 450 732 448 684 c 1
 446 664 446 634 446 596 c 0
 446 474 458 334 584 232 c 1
 646 178 724 152 816 152 c 0
 974 152 1088 238 1152 358 c 1
 1184 422 1210 522 1228 660 c 2
 1320 1372 l 1
 1042 1384 l 1
 1064 1480 l 1
 1288 1528 1456 1536 1608 1536 c 0x9f
 1642 1536 1692 1534 1756 1532 c 1
 1732 1438 l 1
 1476 1354 l 1
 1370 640 l 2
 1313 258 1206 119 1014 24 c 0
 926 -20 830 -42 726 -42 c 2
 716 -42 l 1
 572 -36 436 12 346 102 c 0
 278 170 234 256 212 360 c 0
 202 408 196 464 196 526 c 0
 196 580 208 694 228 868 c 2
 284 1344 l 1
1196 1810 m 0
 1196 1752 1146 1712 1090 1712 c 0
 1036 1712 988 1752 988 1810 c 0
 988 1866 1036 1904 1090 1904 c 0
 1146 1904 1196 1864 1196 1810 c 0
870 1810 m 0
 870 1752 822 1712 766 1712 c 0
 712 1712 664 1752 664 1810 c 0
 664 1866 712 1904 766 1904 c 0
 822 1904 870 1864 870 1810 c 0
EndSplineSet
Validated: 1
EndChar

StartChar: Udieresisgrave
Encoding: 475 475 101
Width: 1764
VWidth: 0
Flags: HW
HStem: -42 194<636.094 963.096> 1388 94<36 99.2742 1064 1291.09> 1408 130<530 633.725> 1442 94<672.275 776 1690.3 1732> 1712 192<680.648 853.259 1004.65 1178.67>
VStem: 196 250<350.303 972.125> 664 206<1729 1886.53> 988 208<1730.33 1885.94>
DStem2: 116.266 -42 354.967 -42 0.121869 0.992546<675.191 1396.11> 1141.81 -42 1286.26 -42 0.121869 0.992546<393.467 1425.18>
LayerCount: 2
Fore
SplineSet
682 2346 m 1x8f
 822 2392 l 1
 982 1988 l 1
 912 1946 l 1
 682 2346 l 1x8f
284 1344 m 1
 10 1388 l 1
 36 1482 l 1xcf
 178 1508 310 1524 432 1532 c 0
 506 1536 580 1538 654 1538 c 0xaf
 718 1538 766 1538 798 1536 c 1
 776 1442 l 1x9f
 530 1408 l 1xaf
 472 922 l 2
 470 904 468 878 464 846 c 0
 456 782 450 732 448 684 c 1
 446 664 446 634 446 596 c 0
 446 474 458 334 584 232 c 1
 646 178 724 152 816 152 c 0
 974 152 1088 238 1152 358 c 1
 1184 422 1210 522 1228 660 c 2
 1320 1372 l 1
 1042 1384 l 1
 1064 1480 l 1
 1288 1528 1456 1536 1608 1536 c 0x9f
 1642 1536 1692 1534 1756 1532 c 1
 1732 1438 l 1
 1476 1354 l 1
 1370 640 l 2
 1313 258 1206 119 1014 24 c 0
 926 -20 830 -42 726 -42 c 2
 716 -42 l 1
 572 -36 436 12 346 102 c 0
 278 170 234 256 212 360 c 0
 202 408 196 464 196 526 c 0
 196 580 208 694 228 868 c 2
 284 1344 l 1
1196 1810 m 0
 1196 1752 1146 1712 1090 1712 c 0
 1036 1712 988 1752 988 1810 c 0
 988 1866 1036 1904 1090 1904 c 0
 1146 1904 1196 1864 1196 1810 c 0
870 1810 m 0
 870 1752 822 1712 766 1712 c 0
 712 1712 664 1752 664 1810 c 0
 664 1866 712 1904 766 1904 c 0
 822 1904 870 1864 870 1810 c 0
EndSplineSet
Validated: 1
EndChar

StartChar: Udieresismacron
Encoding: 469 469 102
Width: 1764
VWidth: 0
Flags: HW
HStem: -42 194<636.094 963.096> 1388 94<36 99.2742 1064 1291.09> 1408 130<530 633.725> 1442 94<672.275 776 1690.3 1732> 1712 192<680.648 853.259 1004.65 1178.67> 1974 122<680 1198>
VStem: 196 250<350.303 972.125> 664 206<1729 1886.53> 988 208<1730.33 1885.94>
DStem2: 116.266 -42 354.967 -42 0.121869 0.992546<675.191 1396.11> 1141.81 -42 1286.26 -42 0.121869 0.992546<393.467 1425.18>
LayerCount: 2
Fore
SplineSet
680 2096 m 1x8f80
 1214 2096 l 1
 1198 1974 l 1
 664 1974 l 1
 680 2096 l 1x8f80
284 1344 m 1
 10 1388 l 1
 36 1482 l 1xcf80
 178 1508 310 1524 432 1532 c 0
 506 1536 580 1538 654 1538 c 0xaf80
 718 1538 766 1538 798 1536 c 1
 776 1442 l 1x9f80
 530 1408 l 1xaf80
 472 922 l 2
 470 904 468 878 464 846 c 0
 456 782 450 732 448 684 c 1
 446 664 446 634 446 596 c 0
 446 474 458 334 584 232 c 1
 646 178 724 152 816 152 c 0
 974 152 1088 238 1152 358 c 1
 1184 422 1210 522 1228 660 c 2
 1320 1372 l 1
 1042 1384 l 1
 1064 1480 l 1
 1288 1528 1456 1536 1608 1536 c 0x9f80
 1642 1536 1692 1534 1756 1532 c 1
 1732 1438 l 1
 1476 1354 l 1
 1370 640 l 2
 1313 258 1206 119 1014 24 c 0
 926 -20 830 -42 726 -42 c 2
 716 -42 l 1
 572 -36 436 12 346 102 c 0
 278 170 234 256 212 360 c 0
 202 408 196 464 196 526 c 0
 196 580 208 694 228 868 c 2
 284 1344 l 1
1196 1810 m 0
 1196 1752 1146 1712 1090 1712 c 0
 1036 1712 988 1752 988 1810 c 0
 988 1866 1036 1904 1090 1904 c 0
 1146 1904 1196 1864 1196 1810 c 0
870 1810 m 0
 870 1752 822 1712 766 1712 c 0
 712 1712 664 1752 664 1810 c 0
 664 1866 712 1904 766 1904 c 0
 822 1904 870 1864 870 1810 c 0
EndSplineSet
Validated: 1
EndChar

StartChar: Ugrave
Encoding: 217 217 103
Width: 1764
VWidth: 0
Flags: HW
HStem: -42 194<636.094 963.096> 1388 94<36 99.2742 1064 1291.09> 1408 130<530 633.725> 1442 94<672.275 776 1690.3 1732>
VStem: 196 250<350.303 972.125>
DStem2: 116.266 -42 354.967 -42 0.121869 0.992546<675.191 1396.11> 1141.81 -42 1286.26 -42 0.121869 0.992546<393.467 1425.18>
LayerCount: 2
Fore
SplineSet
284 1344 m 1x98
 10 1388 l 1
 36 1482 l 1xc8
 178 1508 310 1524 432 1532 c 0
 506 1536 580 1538 654 1538 c 0xa8
 718 1538 766 1538 798 1536 c 1
 776 1442 l 1x98
 530 1408 l 1xa8
 472 922 l 2
 470 904 468 878 464 846 c 0
 456 782 450 732 448 684 c 1
 446 664 446 634 446 596 c 0
 446 474 458 334 584 232 c 1
 646 178 724 152 816 152 c 0
 974 152 1088 238 1152 358 c 1
 1184 422 1210 522 1228 660 c 2
 1320 1372 l 1
 1042 1384 l 1
 1064 1480 l 1
 1288 1528 1456 1536 1608 1536 c 0
 1642 1536 1692 1534 1756 1532 c 1
 1732 1438 l 1
 1476 1354 l 1
 1370 640 l 2
 1313 258 1206 119 1014 24 c 0
 926 -20 830 -42 726 -42 c 2
 716 -42 l 1
 572 -36 436 12 346 102 c 0
 278 170 234 256 212 360 c 0
 202 408 196 464 196 526 c 0
 196 580 208 694 228 868 c 2
 284 1344 l 1x98
682 2046 m 1
 822 2092 l 1
 982 1688 l 1
 912 1646 l 1
 682 2046 l 1
EndSplineSet
Validated: 1
EndChar

StartChar: Uhungarumlaut
Encoding: 368 368 104
Width: 1764
VWidth: 0
Flags: HW
HStem: -42 194<636.094 963.096> 1388 94<36 99.2742 1064 1291.09> 1408 130<530 633.725> 1442 94<672.275 776 1690.3 1732>
VStem: 196 250<350.303 972.125>
DStem2: 116.266 -42 354.967 -42 0.121869 0.992546<675.191 1396.11> 1141.81 -42 1286.26 -42 0.121869 0.992546<393.467 1425.18>
LayerCount: 2
Fore
SplineSet
284 1344 m 1x98
 10 1388 l 1
 36 1482 l 1xc8
 178 1508 310 1524 432 1532 c 0
 506 1536 580 1538 654 1538 c 0xa8
 718 1538 766 1538 798 1536 c 1
 776 1442 l 1x98
 530 1408 l 1xa8
 472 922 l 2
 470 904 468 878 464 846 c 0
 456 782 450 732 448 684 c 1
 446 664 446 634 446 596 c 0
 446 474 458 334 584 232 c 1
 646 178 724 152 816 152 c 0
 974 152 1088 238 1152 358 c 1
 1184 422 1210 522 1228 660 c 2
 1320 1372 l 1
 1042 1384 l 1
 1064 1480 l 1
 1288 1528 1456 1536 1608 1536 c 0
 1642 1536 1692 1534 1756 1532 c 1
 1732 1438 l 1
 1476 1354 l 1
 1370 640 l 2
 1313 258 1206 119 1014 24 c 0
 926 -20 830 -42 726 -42 c 2
 716 -42 l 1
 572 -36 436 12 346 102 c 0
 278 170 234 256 212 360 c 0
 202 408 196 464 196 526 c 0
 196 580 208 694 228 868 c 2
 284 1344 l 1x98
1432 1884 m 1
 1080 1682 l 1
 1046 1742 l 1
 1344 1984 l 1
 1432 1884 l 1
1188 1890 m 1
 824 1682 l 1
 790 1742 l 1
 1098 1994 l 1
 1188 1890 l 1
EndSplineSet
Validated: 1
EndChar

StartChar: Umacron
Encoding: 362 362 105
Width: 1764
VWidth: 0
Flags: HW
HStem: -42 194<636.094 963.096> 1388 94<36 99.2742 1064 1291.09> 1408 130<530 633.725> 1442 94<672.275 776 1690.3 1732> 1706 122<680 1198>
VStem: 196 250<350.303 972.125>
DStem2: 116.266 -42 354.967 -42 0.121869 0.992546<675.191 1396.11> 1141.81 -42 1286.26 -42 0.121869 0.992546<393.467 1425.18>
LayerCount: 2
Fore
SplineSet
284 1344 m 1x9c
 10 1388 l 1
 36 1482 l 1xcc
 178 1508 310 1524 432 1532 c 0
 506 1536 580 1538 654 1538 c 0xac
 718 1538 766 1538 798 1536 c 1
 776 1442 l 1x9c
 530 1408 l 1xac
 472 922 l 2
 470 904 468 878 464 846 c 0
 456 782 450 732 448 684 c 1
 446 664 446 634 446 596 c 0
 446 474 458 334 584 232 c 1
 646 178 724 152 816 152 c 0
 974 152 1088 238 1152 358 c 1
 1184 422 1210 522 1228 660 c 2
 1320 1372 l 1
 1042 1384 l 1
 1064 1480 l 1
 1288 1528 1456 1536 1608 1536 c 0
 1642 1536 1692 1534 1756 1532 c 1
 1732 1438 l 1
 1476 1354 l 1
 1370 640 l 2
 1313 258 1206 119 1014 24 c 0
 926 -20 830 -42 726 -42 c 2
 716 -42 l 1
 572 -36 436 12 346 102 c 0
 278 170 234 256 212 360 c 0
 202 408 196 464 196 526 c 0
 196 580 208 694 228 868 c 2
 284 1344 l 1x9c
680 1828 m 1
 1214 1828 l 1
 1198 1706 l 1
 664 1706 l 1
 680 1828 l 1
EndSplineSet
Validated: 1
EndChar

StartChar: Uogonek
Encoding: 370 370 106
Width: 1764
VWidth: 0
Flags: HW
HStem: -452 62<922.787 933.711> -42 194<636.094 738> 1388 94<36 99.2742 1064 1291.09> 1408 130<530 633.725> 1442 94<672.275 776 1690.3 1732>
VStem: 196 250<350.303 972.125> 636 180<-299.306 -111.359>
DStem2: 65.9244 -452 304.626 -452 0.121869 0.992546<1088.27 1809.19> 1091.46 -452 1235.92 -452 0.121869 0.992546<806.33 1838.26>
LayerCount: 2
Fore
SplineSet
966 -390 m 1xce
 924 -452 l 1
 754 -434 636 -342 636 -236 c 0
 636 -176 670 -112 738 -42 c 1
 716 -42 l 1
 572 -36 436 12 346 102 c 0
 278 170 234 256 212 360 c 0
 202 408 196 464 196 526 c 0
 196 580 208 694 228 868 c 2
 284 1344 l 1
 10 1388 l 1
 36 1482 l 1xe6
 178 1508 310 1524 432 1532 c 0
 506 1536 580 1538 654 1538 c 0xd6
 718 1538 766 1538 798 1536 c 1
 776 1442 l 1xce
 530 1408 l 1xd6
 472 922 l 2
 470 904 468 878 464 846 c 0
 456 782 450 732 448 684 c 1
 446 664 446 634 446 596 c 0
 446 474 458 334 584 232 c 1
 646 178 724 152 816 152 c 0
 974 152 1088 238 1152 358 c 1
 1184 422 1210 522 1228 660 c 2
 1320 1372 l 1
 1042 1384 l 1
 1064 1480 l 1
 1288 1528 1456 1536 1608 1536 c 0
 1642 1536 1692 1534 1756 1532 c 1
 1732 1438 l 1
 1476 1354 l 1
 1370 640 l 2
 1313 258 1206 118 1014 24 c 1
 972 2 922 -14 862 -28 c 1
 832 -84 816 -130 816 -164 c 0
 816 -256 866 -332 966 -390 c 1xce
EndSplineSet
Validated: 1
EndChar

StartChar: Uring
Encoding: 366 366 107
Width: 1764
VWidth: 0
Flags: HW
HStem: -42 194<636.094 963.096> 1388 94<36 99.2742 1064 1291.09> 1408 130<530 633.725> 1442 94<672.275 776 1690.3 1732> 1686 58<867.65 1009.14> 2036 58<858.486 992.704>
VStem: 196 250<350.303 972.125> 734 86<1777.86 2009.91> 1040 86<1767.6 2002.2>
DStem2: 116.266 -42 354.967 -42 0.121869 0.992546<675.191 1396.11> 1141.81 -42 1286.26 -42 0.121869 0.992546<393.467 1425.18>
LayerCount: 2
Fore
SplineSet
284 1344 m 1x9f80
 10 1388 l 1
 36 1482 l 1xcf80
 178 1508 310 1524 432 1532 c 0
 506 1536 580 1538 654 1538 c 0xaf80
 718 1538 766 1538 798 1536 c 1
 776 1442 l 1x9f80
 530 1408 l 1xaf80
 472 922 l 2
 470 904 468 878 464 846 c 0
 456 782 450 732 448 684 c 1
 446 664 446 634 446 596 c 0
 446 474 458 334 584 232 c 1
 646 178 724 152 816 152 c 0
 974 152 1088 238 1152 358 c 1
 1184 422 1210 522 1228 660 c 2
 1320 1372 l 1
 1042 1384 l 1
 1064 1480 l 1
 1288 1528 1456 1536 1608 1536 c 0
 1642 1536 1692 1534 1756 1532 c 1
 1732 1438 l 1
 1476 1354 l 1
 1370 640 l 2
 1313 258 1206 119 1014 24 c 0
 926 -20 830 -42 726 -42 c 2
 716 -42 l 1
 572 -36 436 12 346 102 c 0
 278 170 234 256 212 360 c 0
 202 408 196 464 196 526 c 0
 196 580 208 694 228 868 c 2
 284 1344 l 1x9f80
820 1900 m 0
 820 1818 864 1744 936 1744 c 0
 1006 1744 1040 1790 1040 1882 c 0
 1040 1964 996 2036 924 2036 c 0
 858 2036 820 1974 820 1900 c 0
1126 1898 m 0
 1126 1784 1042 1686 922 1686 c 0
 810 1686 734 1764 734 1886 c 0
 734 1998 826 2094 938 2094 c 0
 1052 2094 1126 2012 1126 1898 c 0
EndSplineSet
Validated: 1
EndChar

StartChar: V
Encoding: 86 86 108
Width: 1334
VWidth: 0
Flags: HW
HStem: -32 21G<538.228 636.737> 1386 94<34 88.5613> 1542 20G<452 519.547 1047 1107>
VStem: 1076 248<985.867 1268.9>
DStem2: 516 1540 284 1336 0.185329 -0.982676<157.47 1328.34>
LayerCount: 2
Fore
SplineSet
888 1484 m 1
 958 1554 1024 1562 1070 1562 c 0
 1144 1562 1234 1534 1292 1422 c 0
 1314 1380 1324 1328 1324 1266 c 0
 1324 1250 1322 1224 1320 1190 c 1
 1288 870 1096 462 872 176 c 1
 818 110 768 52 722 6 c 1
 542 -32 l 1
 284 1336 l 1
 10 1386 l 1
 34 1480 l 1
 220 1522 388 1538 516 1540 c 1
 748 232 l 1
 758 232 l 1
 800 276 846 334 892 404 c 1
 984 550 1041 710 1068 884 c 0
 1074 922 1076 964 1076 1010 c 0
 1076 1120 1056 1218 1016 1308 c 1
 980 1382 938 1440 888 1484 c 1
EndSplineSet
Validated: 1
EndChar

StartChar: W
Encoding: 87 87 109
Width: 1910
VWidth: 0
Flags: HW
HStem: -32 19G<390.333 504.632 1031.1 1124.63> 1386 94<44 86.841> 1520 28G<469 535.314 1679 1766>
VStem: 1010 184<1061.48 1236> 1620 280<1017.56 1387.32>
DStem2: 534 1540 278 1336 0.0830455 -0.996546<182.036 1250.5>
LayerCount: 2
Fore
SplineSet
1032 -34 m 1
 996 768 l 1
 984 768 l 1
 912 564 826 374 724 196 c 0
 702 158 664 96 606 6 c 1
 392 -32 l 1
 278 1336 l 1
 10 1386 l 1
 44 1480 l 1
 236 1522 404 1538 534 1540 c 1
 616 292 l 1
 628 292 l 1
 750 468 854 690 928 930 c 0
 954 1016 982 1118 1010 1236 c 1
 1194 1278 l 1
 1258 242 l 1
 1268 242 l 1
 1328 306 1378 370 1420 434 c 0
 1504 564 1562 712 1596 876 c 0
 1612 958 1620 1032 1620 1098 c 0
 1620 1232 1594 1358 1536 1492 c 1
 1590 1530 1648 1548 1710 1548 c 2
 1718 1548 l 1
 1814 1542 1874 1492 1892 1396 c 0
 1898 1368 1900 1336 1900 1302 c 0
 1900 1242 1892 1176 1876 1102 c 0
 1846 954 1784 800 1690 640 c 1
 1606 490 1504 344 1382 200 c 1
 1346 154 1288 90 1208 4 c 1
 1032 -34 l 1
EndSplineSet
Validated: 1
EndChar

StartChar: Wacute
Encoding: 7810 7810 110
Width: 1910
VWidth: 0
Flags: HW
HStem: -32 19G<390.333 504.632 1031.1 1124.63> 1386 96<44 86.841> 1520 30G<469 535.314 1679 1711>
VStem: 1010 184<1061.48 1236> 1618 282<1020.78 1394.51>
DStem2: 534 1540 278 1336 0.0830455 -0.996546<182.036 1250.5>
LayerCount: 2
Fore
SplineSet
1032 -34 m 1
 996 768 l 1
 984 768 l 1
 912 564 826 374 724 196 c 1
 606 6 l 1
 392 -32 l 1
 278 1336 l 1
 10 1386 l 1
 44 1482 l 1
 214 1522 404 1538 534 1540 c 1
 616 292 l 1
 628 292 l 1
 750 468 840 660 928 930 c 1
 954 1016 982 1118 1010 1236 c 1
 1194 1278 l 1
 1258 242 l 1
 1268 242 l 1
 1328 306 1378 370 1420 434 c 0
 1504 564 1562 712 1596 876 c 1
 1610 952 1618 1024 1618 1092 c 0
 1618 1244 1594 1358 1536 1492 c 1
 1590 1530 1648 1550 1710 1550 c 0
 1712 1550 1714 1550 1718 1548 c 1
 1814 1542 1874 1492 1892 1396 c 0
 1898 1368 1900 1336 1900 1300 c 0
 1900 1242 1892 1176 1876 1102 c 0
 1818 820 1612 474 1382 200 c 1
 1346 154 1288 90 1208 4 c 1
 1032 -34 l 1
1430 2054 m 1
 1208 1670 l 1
 1146 1708 l 1
 1294 2102 l 1
 1430 2054 l 1
EndSplineSet
Validated: 1
EndChar

StartChar: Wcircumflex
Encoding: 372 372 111
Width: 1910
VWidth: 0
Flags: HW
HStem: -32 19G<390.333 504.632 1031.1 1124.63> 1386 96<44 86.841> 1520 30G<469 535.314 1679 1711>
VStem: 1010 184<1061.48 1236> 1618 282<1020.78 1394.51>
DStem2: 534 1540 278 1336 0.0830455 -0.996546<182.036 1250.5>
LayerCount: 2
Fore
SplineSet
1032 -34 m 1
 996 768 l 1
 984 768 l 1
 912 564 826 374 724 196 c 1
 606 6 l 1
 392 -32 l 1
 278 1336 l 1
 10 1386 l 1
 44 1482 l 1
 214 1522 404 1538 534 1540 c 1
 616 292 l 1
 628 292 l 1
 750 468 840 660 928 930 c 1
 954 1016 982 1118 1010 1236 c 1
 1194 1278 l 1
 1258 242 l 1
 1268 242 l 1
 1328 306 1378 370 1420 434 c 0
 1504 564 1562 712 1596 876 c 1
 1610 952 1618 1024 1618 1092 c 0
 1618 1244 1594 1358 1536 1492 c 1
 1590 1530 1648 1550 1710 1550 c 0
 1712 1550 1714 1550 1718 1548 c 1
 1814 1542 1874 1492 1892 1396 c 0
 1898 1368 1900 1336 1900 1300 c 0
 1900 1242 1892 1176 1876 1102 c 0
 1818 820 1612 474 1382 200 c 1
 1346 154 1288 90 1208 4 c 1
 1032 -34 l 1
1184 1950 m 1
 1400 1726 l 1
 1340 1682 l 1
 1142 1814 l 1
 1130 1814 l 1
 960 1680 l 1
 914 1716 l 1
 1118 1934 l 1
 1184 1950 l 1
EndSplineSet
Validated: 1
EndChar

StartChar: Wdieresis
Encoding: 7812 7812 112
Width: 1910
VWidth: 0
Flags: HW
HStem: -32 19G<390.333 504.632 1031.1 1124.63> 1386 96<44 86.841> 1520 30G<469 535.314 1679 1711> 1712 192<908.648 1081.26 1232.65 1406.67>
VStem: 892 206<1729 1886.53> 1010 184<1061.48 1236> 1216 208<1730.33 1885.94> 1618 282<1020.78 1394.51>
DStem2: 534 1540 278 1336 0.0830455 -0.996546<182.036 1250.5>
LayerCount: 2
Fore
SplineSet
1032 -34 m 1xf7
 996 768 l 1
 984 768 l 1
 912 564 826 374 724 196 c 1
 606 6 l 1
 392 -32 l 1
 278 1336 l 1
 10 1386 l 1
 44 1482 l 1
 214 1522 404 1538 534 1540 c 1
 616 292 l 1
 628 292 l 1
 750 468 840 660 928 930 c 1
 954 1016 982 1118 1010 1236 c 1
 1194 1278 l 1
 1258 242 l 1
 1268 242 l 1
 1328 306 1378 370 1420 434 c 0
 1504 564 1562 712 1596 876 c 1
 1610 952 1618 1024 1618 1092 c 0
 1618 1244 1594 1358 1536 1492 c 1
 1590 1530 1648 1550 1710 1550 c 0
 1712 1550 1714 1550 1718 1548 c 1
 1814 1542 1874 1492 1892 1396 c 0
 1898 1368 1900 1336 1900 1300 c 0
 1900 1242 1892 1176 1876 1102 c 0
 1818 820 1612 474 1382 200 c 1
 1346 154 1288 90 1208 4 c 1
 1032 -34 l 1xf7
1424 1810 m 0
 1424 1752 1374 1712 1318 1712 c 0
 1264 1712 1216 1752 1216 1810 c 0
 1216 1866 1264 1904 1318 1904 c 0
 1374 1904 1424 1864 1424 1810 c 0
1098 1810 m 0xfb
 1098 1752 1050 1712 994 1712 c 0
 940 1712 892 1752 892 1810 c 0
 892 1866 940 1904 994 1904 c 0
 1050 1904 1098 1864 1098 1810 c 0xfb
EndSplineSet
Validated: 1
EndChar

StartChar: Wgrave
Encoding: 7808 7808 113
Width: 1910
VWidth: 0
Flags: HW
HStem: -32 19G<390.333 504.632 1031.1 1124.63> 1386 96<44 86.841> 1520 30G<469 535.314 1679 1711>
VStem: 1010 184<1061.48 1236> 1618 282<1020.78 1394.51>
DStem2: 534 1540 278 1336 0.0830455 -0.996546<182.036 1250.5>
LayerCount: 2
Fore
SplineSet
1032 -34 m 1
 996 768 l 1
 984 768 l 1
 912 564 826 374 724 196 c 1
 606 6 l 1
 392 -32 l 1
 278 1336 l 1
 10 1386 l 1
 44 1482 l 1
 214 1522 404 1538 534 1540 c 1
 616 292 l 1
 628 292 l 1
 750 468 840 660 928 930 c 1
 954 1016 982 1118 1010 1236 c 1
 1194 1278 l 1
 1258 242 l 1
 1268 242 l 1
 1328 306 1378 370 1420 434 c 0
 1504 564 1562 712 1596 876 c 1
 1610 952 1618 1024 1618 1092 c 0
 1618 1244 1594 1358 1536 1492 c 1
 1590 1530 1648 1550 1710 1550 c 0
 1712 1550 1714 1550 1718 1548 c 1
 1814 1542 1874 1492 1892 1396 c 0
 1898 1368 1900 1336 1900 1300 c 0
 1900 1242 1892 1176 1876 1102 c 0
 1818 820 1612 474 1382 200 c 1
 1346 154 1288 90 1208 4 c 1
 1032 -34 l 1
910 2046 m 1
 1050 2092 l 1
 1210 1688 l 1
 1140 1646 l 1
 910 2046 l 1
EndSplineSet
Validated: 1
EndChar

StartChar: X
Encoding: 88 88 114
Width: 1610
VWidth: 0
Flags: HW
HStem: -18 218<1149 1323.01> 1272 276<1416 1540.19> 1386 94<140 185.368>
DStem2: 668 1392 416 1324 0.414427 -0.910082<-42.5501 538.772 693.191 1320.59>
LayerCount: 2
Fore
SplineSet
416 1324 m 1xc0
 116 1386 l 1
 140 1480 l 1xa0
 350 1528 472 1534 602 1540 c 1
 668 1392 l 1
 892 902 l 1
 910 952 928 994 944 1024 c 1
 992 1130 1128 1388 1248 1484 c 0
 1286 1514 1324 1532 1366 1542 c 0
 1384 1546 1400 1548 1418 1548 c 0
 1472 1548 1530 1526 1564 1476 c 1
 1582 1446 1594 1420 1598 1396 c 0
 1600 1390 1600 1378 1600 1364 c 0
 1600 1326 1590 1290 1572 1260 c 1
 1538 1268 1504 1272 1472 1272 c 1
 1416 1268 l 1
 1278 1250 1148 1164 1036 986 c 1
 1002 928 972 864 944 790 c 1
 1102 442 l 2
 1124 394 1180 278 1230 228 c 0
 1252 206 1270 200 1292 200 c 0
 1308 200 1334 206 1356 228 c 1
 1398 262 1460 344 1476 368 c 1
 1536 326 l 1
 1522 272 1504 226 1480 188 c 0
 1422 94 1350 30 1264 -2 c 1
 1234 -12 1206 -18 1176 -18 c 0
 1122 -18 1066 2 1020 48 c 0
 1000 68 982 90 968 116 c 1
 954 138 930 190 892 272 c 2
 720 654 l 1
 678 540 630 434 532 260 c 1
 470 154 412 82 360 44 c 1
 310 6 246 -12 206 -12 c 1
 176 -10 l 1
 86 4 26 80 12 160 c 0
 10 166 10 176 10 188 c 0
 10 220 16 252 30 282 c 1
 48 280 74 278 108 278 c 1
 186 282 l 1
 328 298 461 366 564 552 c 0
 594 606 628 680 666 770 c 1
 416 1324 l 1xc0
EndSplineSet
Validated: 1
EndChar

StartChar: Y
Encoding: 89 89 115
Width: 1336
VWidth: 0
Flags: HW
HStem: 0 102<122 180.277 791.443 872> 1344 200<1116.26 1274.17> 1540 20G<188 327>
VStem: 456 180<820 995.245>
DStem2: 376.354 0 619.792 0 0.121869 0.992546<162.659 699.713>
LayerCount: 2
Fore
SplineSet
752 840 m 1xd0
 718 728 690 596 672 444 c 2
 636 132 l 1
 900 100 l 1
 872 0 l 1
 98 0 l 1
 122 102 l 1
 396 160 l 1
 444 522 l 2
 452 580 456 638 456 698 c 0
 456 826 428 984 372 1104 c 1
 336 1178 292 1234 240 1276 c 1
 190 1314 132 1354 10 1372 c 1
 36 1502 140 1554 236 1560 c 1
 250 1560 l 2xb0
 404 1560 494 1464 550 1342 c 0
 594 1246 622 1134 632 1004 c 1
 634 946 636 900 636 868 c 2
 636 820 l 1
 656 820 l 1
 686 946 728 1068 782 1190 c 0
 844 1332 928 1464 1042 1520 c 0
 1076 1536 1112 1544 1154 1544 c 2
 1176 1544 l 1
 1272 1536 1326 1454 1326 1382 c 0
 1326 1364 1324 1352 1322 1344 c 1
 1244 1342 1098 1312 988 1230 c 1
 866 1132 814 1026 752 840 c 1xd0
EndSplineSet
Validated: 1
EndChar

StartChar: Yacute
Encoding: 221 221 116
Width: 1336
VWidth: 0
Flags: HW
HStem: 0 102<122 180.277 791.443 872> 1344 202<1115.71 1271.4> 1542 20G<242 326>
VStem: 456 180<820 995.201>
DStem2: 376.354 0 619.792 0 0.121869 0.992546<162.659 697.82>
LayerCount: 2
Fore
SplineSet
752 840 m 1xd0
 718 728 690 596 672 444 c 2
 636 132 l 1
 900 100 l 1
 872 0 l 1
 98 0 l 1
 122 102 l 1
 396 160 l 1
 444 522 l 2
 452 580 456 638 456 696 c 0
 456 826 428 984 372 1104 c 1
 336 1178 292 1234 240 1276 c 1
 190 1314 132 1354 10 1372 c 1
 36 1502 140 1554 236 1560 c 0
 238 1560 240 1560 244 1562 c 0
 246 1562 248 1562 250 1562 c 0xb0
 402 1562 494 1464 550 1342 c 0
 594 1246 622 1134 632 1004 c 0
 634 974 636 928 636 868 c 2
 636 820 l 1
 656 820 l 1
 686 946 728 1068 782 1190 c 1
 854 1348 928 1464 1042 1520 c 0
 1080 1538 1116 1546 1152 1546 c 0
 1154 1546 1158 1546 1164 1546 c 1
 1170 1544 1174 1544 1176 1544 c 0
 1272 1536 1326 1454 1326 1384 c 0
 1326 1366 1324 1352 1322 1344 c 1
 1244 1342 1098 1312 988 1230 c 1
 866 1132 814 1026 752 840 c 1xd0
998 2054 m 1
 776 1670 l 1
 714 1708 l 1
 862 2102 l 1
 998 2054 l 1
EndSplineSet
Validated: 1
EndChar

StartChar: Ycircumflex
Encoding: 374 374 117
Width: 1336
VWidth: 0
Flags: HW
HStem: 0 102<122 180.277 791.443 872> 1344 202<1115.71 1271.4> 1542 20G<242 326>
VStem: 456 180<820 995.201>
DStem2: 376.354 0 619.792 0 0.121869 0.992546<162.659 697.82>
LayerCount: 2
Fore
SplineSet
752 840 m 1xd0
 718 728 690 596 672 444 c 2
 636 132 l 1
 900 100 l 1
 872 0 l 1
 98 0 l 1
 122 102 l 1
 396 160 l 1
 444 522 l 2
 452 580 456 638 456 696 c 0
 456 826 428 984 372 1104 c 1
 336 1178 292 1234 240 1276 c 1
 190 1314 132 1354 10 1372 c 1
 36 1502 140 1554 236 1560 c 0
 238 1560 240 1560 244 1562 c 0
 246 1562 248 1562 250 1562 c 0xb0
 402 1562 494 1464 550 1342 c 0
 594 1246 622 1134 632 1004 c 0
 634 974 636 928 636 868 c 2
 636 820 l 1
 656 820 l 1
 686 946 728 1068 782 1190 c 1
 854 1348 928 1464 1042 1520 c 0
 1080 1538 1116 1546 1152 1546 c 0
 1154 1546 1158 1546 1164 1546 c 1
 1170 1544 1174 1544 1176 1544 c 0
 1272 1536 1326 1454 1326 1384 c 0
 1326 1366 1324 1352 1322 1344 c 1
 1244 1342 1098 1312 988 1230 c 1
 866 1132 814 1026 752 840 c 1xd0
752 1950 m 1
 968 1726 l 1
 908 1682 l 1
 710 1814 l 1
 698 1814 l 1
 528 1680 l 1
 482 1716 l 1
 686 1934 l 1
 752 1950 l 1
EndSplineSet
Validated: 1
EndChar

StartChar: Ydieresis
Encoding: 376 376 118
Width: 1336
VWidth: 0
Flags: HW
HStem: 0 102<122 180.277 791.443 872> 1344 202<1115.71 1271.4> 1542 20G<242 326> 1712 192<476.648 649.259 800.648 974.67>
VStem: 456 180<820 995.201> 460 206<1729 1886.53> 784 208<1730.33 1885.94>
DStem2: 376.354 0 619.792 0 0.121869 0.992546<162.659 697.82>
LayerCount: 2
Fore
SplineSet
752 840 m 1xda
 718 728 690 596 672 444 c 2
 636 132 l 1
 900 100 l 1
 872 0 l 1
 98 0 l 1
 122 102 l 1
 396 160 l 1
 444 522 l 2
 452 580 456 638 456 696 c 0
 456 826 428 984 372 1104 c 1
 336 1178 292 1234 240 1276 c 1
 190 1314 132 1354 10 1372 c 1
 36 1502 140 1554 236 1560 c 0
 238 1560 240 1560 244 1562 c 0
 246 1562 248 1562 250 1562 c 0xba
 402 1562 494 1464 550 1342 c 0
 594 1246 622 1134 632 1004 c 0
 634 974 636 928 636 868 c 2
 636 820 l 1
 656 820 l 1
 686 946 728 1068 782 1190 c 1
 854 1348 928 1464 1042 1520 c 0
 1080 1538 1116 1546 1152 1546 c 0
 1154 1546 1158 1546 1164 1546 c 1
 1170 1544 1174 1544 1176 1544 c 0
 1272 1536 1326 1454 1326 1384 c 0
 1326 1366 1324 1352 1322 1344 c 1
 1244 1342 1098 1312 988 1230 c 1
 866 1132 814 1026 752 840 c 1xda
992 1810 m 0
 992 1752 942 1712 886 1712 c 0
 832 1712 784 1752 784 1810 c 0
 784 1866 832 1904 886 1904 c 0
 942 1904 992 1864 992 1810 c 0
666 1810 m 0x96
 666 1752 618 1712 562 1712 c 0
 508 1712 460 1752 460 1810 c 0
 460 1866 508 1904 562 1904 c 0
 618 1904 666 1864 666 1810 c 0x96
EndSplineSet
Validated: 1
EndChar

StartChar: Ygrave
Encoding: 7922 7922 119
Width: 1336
VWidth: 0
Flags: HW
HStem: 0 102<122 180.277 791.443 872> 1344 202<1115.71 1271.4> 1542 20G<242 326>
VStem: 456 180<820 995.201>
DStem2: 376.354 0 619.792 0 0.121869 0.992546<162.659 697.82>
LayerCount: 2
Fore
SplineSet
752 840 m 1xd0
 718 728 690 596 672 444 c 2
 636 132 l 1
 900 100 l 1
 872 0 l 1
 98 0 l 1
 122 102 l 1
 396 160 l 1
 444 522 l 2
 452 580 456 638 456 696 c 0
 456 826 428 984 372 1104 c 1
 336 1178 292 1234 240 1276 c 1
 190 1314 132 1354 10 1372 c 1
 36 1502 140 1554 236 1560 c 0
 238 1560 240 1560 244 1562 c 0
 246 1562 248 1562 250 1562 c 0xb0
 402 1562 494 1464 550 1342 c 0
 594 1246 622 1134 632 1004 c 0
 634 974 636 928 636 868 c 2
 636 820 l 1
 656 820 l 1
 686 946 728 1068 782 1190 c 1
 854 1348 928 1464 1042 1520 c 0
 1080 1538 1116 1546 1152 1546 c 0
 1154 1546 1158 1546 1164 1546 c 1
 1170 1544 1174 1544 1176 1544 c 0
 1272 1536 1326 1454 1326 1384 c 0
 1326 1366 1324 1352 1322 1344 c 1
 1244 1342 1098 1312 988 1230 c 1
 866 1132 814 1026 752 840 c 1xd0
478 2046 m 1
 618 2092 l 1
 778 1688 l 1
 708 1646 l 1
 478 2046 l 1
EndSplineSet
Validated: 1
EndChar

StartChar: Z
Encoding: 90 90 120
Width: 1350
VWidth: 0
Flags: HW
HStem: 0 116<284 917.976> 1404 138<400 864.486> 1424 118<583.514 1048>
VStem: 1122 114<394.458 544>
DStem2: 16 128 284 116 0.617613 0.786482<156.082 1656.66>
LayerCount: 2
Fore
SplineSet
200 1542 m 1xb0
 1340 1542 l 1
 1330 1448 l 1
 284 116 l 1
 544 128 l 1
 722 138 874 152 996 172 c 1
 1034 262 1066 352 1092 440 c 0
 1104 480 1114 520 1122 560 c 1
 1236 544 l 1
 1236 534 1236 522 1238 506 c 1
 1238 488 1238 476 1238 468 c 0
 1236 292 1216 122 1200 52 c 2
 1188 0 l 1
 10 0 l 1
 16 128 l 1
 1048 1424 l 1xb0
 400 1404 l 1xd0
 306 1080 l 1
 180 1112 l 1
 200 1542 l 1xb0
EndSplineSet
Validated: 1
EndChar

StartChar: Zacute
Encoding: 377 377 121
Width: 1350
VWidth: 0
Flags: HW
HStem: 0 116<284 918.174> 1404 136<400 864.486> 1424 116<583.514 1048>
VStem: 1122 116<394.458 544>
DStem2: 16 128 284 116 0.617613 0.786482<156.082 1656.66>
LayerCount: 2
Fore
SplineSet
200 1540 m 1xb0
 1340 1540 l 1
 1330 1448 l 1
 284 116 l 1
 544 128 l 1
 724 138 874 152 996 172 c 1
 1034 262 1066 352 1092 440 c 0
 1104 480 1114 520 1122 560 c 1
 1238 544 l 1
 1238 468 l 1
 1236 292 1216 122 1200 52 c 2
 1188 0 l 1
 10 0 l 1
 16 128 l 1
 1048 1424 l 1xb0
 400 1404 l 1xd0
 308 1080 l 1
 180 1112 l 1
 200 1540 l 1xb0
948 2054 m 1
 726 1670 l 1
 664 1708 l 1
 812 2102 l 1
 948 2054 l 1
EndSplineSet
Validated: 1
EndChar

StartChar: Zcaron
Encoding: 381 381 122
Width: 1350
VWidth: 0
Flags: HW
HStem: 0 116<284 918.174> 1404 136<400 864.486> 1424 116<583.514 1048>
VStem: 1122 116<394.458 544>
DStem2: 16 128 284 116 0.617613 0.786482<156.082 1656.66> 528 1954 430 1880 0.736873 -0.676031<0 250.267> 720 1780 714 1696 0.690318 0.723506<0 226.544>
LayerCount: 2
Fore
SplineSet
200 1540 m 1xb0
 1340 1540 l 1
 1330 1448 l 1
 284 116 l 1
 544 128 l 1
 724 138 874 152 996 172 c 1
 1034 262 1066 352 1092 440 c 0
 1104 480 1114 520 1122 560 c 1
 1238 544 l 1
 1238 468 l 1
 1236 292 1216 122 1200 52 c 2
 1188 0 l 1
 10 0 l 1
 16 128 l 1
 1048 1424 l 1xb0
 400 1404 l 1xd0
 308 1080 l 1
 180 1112 l 1
 200 1540 l 1xb0
648 1680 m 1
 430 1880 l 1
 528 1954 l 1
 708 1780 l 1
 720 1780 l 1
 870 1950 l 1
 922 1914 l 1
 714 1696 l 1
 648 1680 l 1
EndSplineSet
Validated: 1
EndChar

StartChar: Zdotaccent
Encoding: 379 379 123
Width: 1350
VWidth: 0
Flags: HW
HStem: 0 116<284 918.174> 1404 136<400 864.486> 1424 116<583.514 1048> 1678 286<572.75 778>
VStem: 530 292<1722.25 1922.95> 1122 116<394.458 544>
DStem2: 16 128 284 116 0.617613 0.786482<156.082 1656.66>
LayerCount: 2
Fore
SplineSet
200 1540 m 1xbc
 1340 1540 l 1
 1330 1448 l 1
 284 116 l 1
 544 128 l 1
 724 138 874 152 996 172 c 1
 1034 262 1066 352 1092 440 c 0
 1104 480 1114 520 1122 560 c 1
 1238 544 l 1
 1238 468 l 1
 1236 292 1216 122 1200 52 c 2
 1188 0 l 1
 10 0 l 1
 16 128 l 1
 1048 1424 l 1xbc
 400 1404 l 1xdc
 308 1080 l 1
 180 1112 l 1
 200 1540 l 1xbc
822 1826 m 0
 822 1744 754 1678 674 1678 c 0
 594 1678 530 1746 530 1828 c 0
 530 1906 596 1964 674 1964 c 0
 754 1964 822 1904 822 1826 c 0
EndSplineSet
Validated: 1
EndChar

StartChar: a
Encoding: 97 97 124
Width: 1040
VWidth: 0
Flags: HW
HStem: -38 182<631 835.531> -26 190<120 321.018> 952 154<380.224 581.118>
VStem: 10 190<190.168 541.935> 544 194<79 459.614>
DStem2: 652 816 784 606 0.179604 0.983739<-372.67 49.7903 202.683 307.09>
LayerCount: 2
Fore
SplineSet
726 1134 m 1x78
 872 1088 l 1
 784 606 l 1
 746 312 l 2
 740 258 738 228 738 220 c 0
 738 162 754 144 792 144 c 0
 838 144 928 246 982 340 c 1
 1032 296 l 1
 946 74 848 -38 672 -38 c 0xb8
 590 -38 544 26 544 132 c 0
 544 194 558 268 588 354 c 1
 572 354 l 1
 492 160 340 -26 188 -26 c 0
 52 -26 10 88 10 270 c 0
 10 480 108 766 270 960 c 1
 350 1058 432 1106 516 1106 c 0
 586 1106 642 1076 684 1014 c 1
 696 1014 l 1
 712 1124 l 1
 726 1134 l 1x78
216 204 m 0
 226 178 246 164 280 164 c 0x78
 340 164 408 226 486 352 c 0
 562 476 618 630 652 816 c 1
 628 886 540 952 474 952 c 0
 380 952 304 862 264 736 c 1
 222 610 200 474 200 356 c 0
 200 280 206 230 216 204 c 0
EndSplineSet
Validated: 1
EndChar

StartChar: aacute
Encoding: 225 225 125
Width: 1040
VWidth: 0
Flags: HW
HStem: -38 182<631 835.531> -26 192<120 321.018> 952 154<380.224 581.118>
VStem: 10 192<190.168 541.935> 544 194<79 459.614>
DStem2: 652 816 784 606 0.179604 0.983739<-372.67 49.7903 202.683 307.09>
LayerCount: 2
Fore
SplineSet
726 1134 m 1x78
 872 1088 l 1
 784 606 l 1
 746 312 l 2
 740 258 738 228 738 220 c 0
 738 162 754 144 792 144 c 0
 838 144 928 246 982 340 c 1
 1032 296 l 1
 946 74 848 -38 672 -38 c 0xb8
 590 -38 544 26 544 132 c 0
 544 194 558 268 588 354 c 1
 572 354 l 1
 492 160 340 -26 188 -26 c 0
 52 -26 10 88 10 270 c 0
 10 480 108 766 270 960 c 1
 350 1058 432 1106 516 1106 c 0
 586 1106 642 1076 684 1014 c 1
 696 1014 l 1
 712 1124 l 1
 726 1134 l 1x78
216 204 m 0
 226 178 246 166 280 166 c 0x78
 340 166 408 228 486 352 c 1
 562 476 618 630 652 816 c 1
 628 886 540 952 474 952 c 0
 380 952 304 862 264 736 c 0
 224 610 202 474 202 356 c 0
 202 280 206 230 216 204 c 0
872 1618 m 1
 650 1234 l 1
 588 1272 l 1
 736 1666 l 1
 872 1618 l 1
EndSplineSet
Validated: 1
EndChar

StartChar: abreve
Encoding: 259 259 126
Width: 1040
VWidth: 0
Flags: HW
HStem: -38 182<631 835.531> -26 192<120 321.018> 952 154<380.224 581.118> 1264 132<479.131 720.738>
VStem: 10 192<190.168 541.935> 368 66<1451.71 1489.73> 544 194<79 459.614>
DStem2: 652 816 784 606 0.179604 0.983739<-372.67 49.7903 202.683 307.09>
LayerCount: 2
Fore
SplineSet
726 1134 m 1x7e
 872 1088 l 1
 784 606 l 1
 746 312 l 2
 740 258 738 228 738 220 c 0
 738 162 754 144 792 144 c 0
 838 144 928 246 982 340 c 1
 1032 296 l 1
 946 74 848 -38 672 -38 c 0xbe
 590 -38 544 26 544 132 c 0
 544 194 558 268 588 354 c 1
 572 354 l 1
 492 160 340 -26 188 -26 c 0
 52 -26 10 88 10 270 c 0
 10 480 108 766 270 960 c 1
 350 1058 432 1106 516 1106 c 0
 586 1106 642 1076 684 1014 c 1
 696 1014 l 1
 712 1124 l 1
 726 1134 l 1x7e
216 204 m 0
 226 178 246 166 280 166 c 0x7e
 340 166 408 228 486 352 c 1
 562 476 618 630 652 816 c 1
 628 886 540 952 474 952 c 0
 380 952 304 862 264 736 c 0
 224 610 202 474 202 356 c 0
 202 280 206 230 216 204 c 0
368 1480 m 1
 424 1518 l 1
 434 1498 l 1
 460 1442 524 1396 598 1396 c 0
 670 1396 728 1430 770 1500 c 2
 782 1520 l 1
 832 1486 l 1
 824 1462 l 2
 786 1350 710 1264 598 1264 c 0
 480 1264 400 1350 374 1456 c 2
 368 1480 l 1
EndSplineSet
Validated: 1
EndChar

StartChar: acaron
Encoding: 462 462 127
Width: 1040
VWidth: 0
Flags: HW
HStem: -38 182<631 835.531> -26 192<120 321.018> 952 154<380.224 581.118>
VStem: 10 192<190.168 541.935> 544 194<79 459.614>
DStem2: 452 1518 354 1444 0.736873 -0.676031<0 250.267> 644 1344 638 1260 0.690318 0.723506<0 226.544> 652 816 784 606 0.179604 0.983739<-372.67 49.7903 202.683 307.09>
LayerCount: 2
Fore
SplineSet
726 1134 m 1x78
 872 1088 l 1
 784 606 l 1
 746 312 l 2
 740 258 738 228 738 220 c 0
 738 162 754 144 792 144 c 0
 838 144 928 246 982 340 c 1
 1032 296 l 1
 946 74 848 -38 672 -38 c 0xb8
 590 -38 544 26 544 132 c 0
 544 194 558 268 588 354 c 1
 572 354 l 1
 492 160 340 -26 188 -26 c 0
 52 -26 10 88 10 270 c 0
 10 480 108 766 270 960 c 1
 350 1058 432 1106 516 1106 c 0
 586 1106 642 1076 684 1014 c 1
 696 1014 l 1
 712 1124 l 1
 726 1134 l 1x78
216 204 m 0
 226 178 246 166 280 166 c 0x78
 340 166 408 228 486 352 c 1
 562 476 618 630 652 816 c 1
 628 886 540 952 474 952 c 0
 380 952 304 862 264 736 c 0
 224 610 202 474 202 356 c 0
 202 280 206 230 216 204 c 0
572 1244 m 1
 354 1444 l 1
 452 1518 l 1
 632 1344 l 1
 644 1344 l 1
 794 1514 l 1
 846 1478 l 1
 638 1260 l 1
 572 1244 l 1
EndSplineSet
Validated: 1
EndChar

StartChar: acircumflex
Encoding: 226 226 128
Width: 1040
VWidth: 0
Flags: HW
HStem: -38 182<631 835.531> -26 192<120 321.018> 952 154<380.224 581.118>
VStem: 10 192<190.168 541.935> 544 194<79 459.614>
DStem2: 652 816 784 606 0.179604 0.983739<-372.67 49.7903 202.683 307.09>
LayerCount: 2
Fore
SplineSet
726 1134 m 1x78
 872 1088 l 1
 784 606 l 1
 746 312 l 2
 740 258 738 228 738 220 c 0
 738 162 754 144 792 144 c 0
 838 144 928 246 982 340 c 1
 1032 296 l 1
 946 74 848 -38 672 -38 c 0xb8
 590 -38 544 26 544 132 c 0
 544 194 558 268 588 354 c 1
 572 354 l 1
 492 160 340 -26 188 -26 c 0
 52 -26 10 88 10 270 c 0
 10 480 108 766 270 960 c 1
 350 1058 432 1106 516 1106 c 0
 586 1106 642 1076 684 1014 c 1
 696 1014 l 1
 712 1124 l 1
 726 1134 l 1x78
216 204 m 0
 226 178 246 166 280 166 c 0x78
 340 166 408 228 486 352 c 1
 562 476 618 630 652 816 c 1
 628 886 540 952 474 952 c 0
 380 952 304 862 264 736 c 0
 224 610 202 474 202 356 c 0
 202 280 206 230 216 204 c 0
626 1514 m 1
 842 1290 l 1
 782 1246 l 1
 584 1378 l 1
 572 1378 l 1
 402 1244 l 1
 356 1280 l 1
 560 1498 l 1
 626 1514 l 1
EndSplineSet
Validated: 1
EndChar

StartChar: acute
Encoding: 180 180 129
Width: 750
VWidth: 0
Flags: HW
HStem: 1634 432
VStem: 278 284
LayerCount: 2
Fore
SplineSet
562 2018 m 1
 340 1634 l 1
 278 1672 l 1
 426 2066 l 1
 562 2018 l 1
EndSplineSet
Validated: 1
EndChar

StartChar: adieresis
Encoding: 228 228 130
Width: 1040
VWidth: 0
Flags: HW
HStem: -38 182<631 835.531> -26 192<120 321.018> 952 154<380.224 581.118> 1276 192<350.648 523.259 674.648 848.67>
VStem: 10 192<190.168 541.935> 334 206<1293 1450.53> 544 194<79 459.614> 658 208<1294.33 1449.94>
DStem2: 652 816 784 606 0.179604 0.983739<-372.67 49.7903 202.683 307.09>
LayerCount: 2
Fore
SplineSet
726 1134 m 1x7e
 872 1088 l 1
 784 606 l 1
 746 312 l 2
 740 258 738 228 738 220 c 0
 738 162 754 144 792 144 c 0
 838 144 928 246 982 340 c 1
 1032 296 l 1
 946 74 848 -38 672 -38 c 0xbe
 590 -38 544 26 544 132 c 0
 544 194 558 268 588 354 c 1
 572 354 l 1
 492 160 340 -26 188 -26 c 0
 52 -26 10 88 10 270 c 0
 10 480 108 766 270 960 c 1
 350 1058 432 1106 516 1106 c 0
 586 1106 642 1076 684 1014 c 1
 696 1014 l 1
 712 1124 l 1
 726 1134 l 1x7e
216 204 m 0
 226 178 246 166 280 166 c 0x7c
 340 166 408 228 486 352 c 1
 562 476 618 630 652 816 c 1
 628 886 540 952 474 952 c 0
 380 952 304 862 264 736 c 0
 224 610 202 474 202 356 c 0
 202 280 206 230 216 204 c 0
866 1374 m 0x3d
 866 1316 816 1276 760 1276 c 0
 706 1276 658 1316 658 1374 c 0
 658 1430 706 1468 760 1468 c 0
 816 1468 866 1428 866 1374 c 0x3d
540 1374 m 0
 540 1316 492 1276 436 1276 c 0
 382 1276 334 1316 334 1374 c 0
 334 1430 382 1468 436 1468 c 0
 492 1468 540 1428 540 1374 c 0
EndSplineSet
Validated: 1
EndChar

StartChar: ae
Encoding: 230 230 131
Width: 1400
VWidth: 0
Flags: HW
HStem: -38 168<845.795 1059.73> -26 192<177 363.664> 952 154<430.674 629.691> 978 130<939.896 1167.2>
VStem: 58 192<190.997 543.216> 1120 188<735.579 963.509>
LayerCount: 2
Fore
SplineSet
1102 1108 m 0x1c
 1228 1108 1308 1028 1308 890 c 0
 1308 740 1168 580 1014 484 c 0
 936 436 860 400 782 376 c 1
 784 200 844 130 982 130 c 0
 1080 130 1176 206 1238 304 c 1
 1282 264 l 1
 1232 114 1078 -38 886 -38 c 0x9c
 718 -38 602 82 588 290 c 1
 492 114 366 -26 236 -26 c 0
 118 -26 58 72 58 270 c 0
 58 480 156 766 318 960 c 0
 400 1058 482 1106 566 1106 c 0x6c
 654 1106 732 1016 762 898 c 1
 864 1038 978 1108 1102 1108 c 0x1c
264 204 m 0
 274 178 294 166 328 166 c 0
 388 166 456 228 534 352 c 1
 610 476 666 630 700 816 c 1
 676 886 588 952 522 952 c 0x6c
 400 952 308 784 276 610 c 1
 258 524 250 438 250 356 c 0
 250 280 254 230 264 204 c 0
1120 862 m 0
 1120 940 1088 978 1022 978 c 0x1c
 884 978 806 808 784 466 c 1
 992 544 1120 702 1120 862 c 0
EndSplineSet
Validated: 1
EndChar

StartChar: agrave
Encoding: 224 224 132
Width: 1040
VWidth: 0
Flags: HW
HStem: -38 182<631 835.531> -26 192<120 321.018> 952 154<380.224 581.118>
VStem: 10 192<190.168 541.935> 544 194<79 459.614>
DStem2: 652 816 784 606 0.179604 0.983739<-372.67 49.7903 202.683 307.09>
LayerCount: 2
Fore
SplineSet
726 1134 m 1x78
 872 1088 l 1
 784 606 l 1
 746 312 l 2
 740 258 738 228 738 220 c 0
 738 162 754 144 792 144 c 0
 838 144 928 246 982 340 c 1
 1032 296 l 1
 946 74 848 -38 672 -38 c 0xb8
 590 -38 544 26 544 132 c 0
 544 194 558 268 588 354 c 1
 572 354 l 1
 492 160 340 -26 188 -26 c 0
 52 -26 10 88 10 270 c 0
 10 480 108 766 270 960 c 1
 350 1058 432 1106 516 1106 c 0
 586 1106 642 1076 684 1014 c 1
 696 1014 l 1
 712 1124 l 1
 726 1134 l 1x78
216 204 m 0
 226 178 246 166 280 166 c 0x78
 340 166 408 228 486 352 c 1
 562 476 618 630 652 816 c 1
 628 886 540 952 474 952 c 0
 380 952 304 862 264 736 c 0
 224 610 202 474 202 356 c 0
 202 280 206 230 216 204 c 0
352 1610 m 1
 492 1656 l 1
 652 1252 l 1
 582 1210 l 1
 352 1610 l 1
EndSplineSet
Validated: 1
EndChar

StartChar: amacron
Encoding: 257 257 133
Width: 1040
VWidth: 0
Flags: HW
HStem: -38 182<631 835.531> -26 192<120 321.018> 952 154<380.224 581.118> 1270 122<350 868>
VStem: 10 192<190.168 541.935> 544 194<79 459.614>
DStem2: 652 816 784 606 0.179604 0.983739<-372.67 49.7903 202.683 307.09>
LayerCount: 2
Fore
SplineSet
726 1134 m 1x7c
 872 1088 l 1
 784 606 l 1
 746 312 l 2
 740 258 738 228 738 220 c 0
 738 162 754 144 792 144 c 0
 838 144 928 246 982 340 c 1
 1032 296 l 1
 946 74 848 -38 672 -38 c 0xbc
 590 -38 544 26 544 132 c 0
 544 194 558 268 588 354 c 1
 572 354 l 1
 492 160 340 -26 188 -26 c 0
 52 -26 10 88 10 270 c 0
 10 480 108 766 270 960 c 1
 350 1058 432 1106 516 1106 c 0
 586 1106 642 1076 684 1014 c 1
 696 1014 l 1
 712 1124 l 1
 726 1134 l 1x7c
216 204 m 0
 226 178 246 166 280 166 c 0x7c
 340 166 408 228 486 352 c 1
 562 476 618 630 652 816 c 1
 628 886 540 952 474 952 c 0
 380 952 304 862 264 736 c 0
 224 610 202 474 202 356 c 0
 202 280 206 230 216 204 c 0
350 1392 m 1
 884 1392 l 1
 868 1270 l 1
 334 1270 l 1
 350 1392 l 1
EndSplineSet
Validated: 1
EndChar

StartChar: ampersand
Encoding: 38 38 134
Width: 1714
VWidth: 0
Flags: HW
HStem: -434 44<880 928.736> -110 144<534.301 903.919> 1392 116<699.021 895>
VStem: 102 260<183.899 445.742> 388 210<1003.64 1237.59> 942 226<1075.36 1321.38> 1044 226<-328.976 -68.75> 1288 218<398.859 591.991>
DStem2: 1050 304 650 506 0.581238 -0.813733<-532.298 120.087>
LayerCount: 2
Fore
SplineSet
464 600 m 0xf9
 414 542 382 478 368 408 c 0
 364 388 362 366 362 344 c 0
 362 232 416 110 586 56 c 1
 626 42 672 34 726 34 c 0
 796 34 878 48 936 70 c 1
 896 148 850 222 800 296 c 1
 650 506 l 2
 624 542 590 598 544 672 c 1
 506 642 480 618 464 600 c 0xf9
938 1136 m 1
 940 1158 942 1174 942 1186 c 0xfd
 942 1212 940 1232 934 1250 c 1
 912 1330 846 1392 764 1392 c 0
 684 1392 614 1322 600 1224 c 0
 598 1216 598 1204 598 1188 c 0
 598 1162 602 1130 612 1092 c 0
 628 1026 666 944 724 846 c 1
 834 908 920 1016 938 1136 c 1
854 -390 m 1
 942 -372 1006 -334 1022 -304 c 1
 1032 -290 1040 -270 1042 -246 c 0
 1042 -244 1042 -242 1044 -238 c 1
 1044 -234 1044 -230 1044 -228 c 0xfb
 1044 -186 1018 -108 986 -36 c 1
 836 -98 706 -110 624 -110 c 1
 540 -106 l 1
 426 -96 332 -64 254 -10 c 1
 166 54 110 140 102 246 c 0
 102 248 102 254 102 260 c 1
 100 266 100 270 100 272 c 0
 100 430 218 584 380 690 c 1
 408 710 446 734 494 760 c 1
 460 828 l 1
 412 932 386 1006 386 1078 c 0
 386 1080 386 1086 388 1092 c 1
 388 1098 388 1102 388 1104 c 0
 396 1194 434 1258 504 1328 c 0
 594 1418 698 1476 812 1500 c 1
 846 1506 872 1508 890 1508 c 0
 900 1508 916 1506 940 1504 c 0
 1026 1494 1102 1436 1136 1372 c 0
 1156 1334 1166 1298 1168 1262 c 1
 1168 1242 l 2
 1168 1152 1122 1046 1056 972 c 1
 984 886 890 818 772 766 c 1
 942 476 l 2xfd
 966 434 1002 378 1050 304 c 0
 1098 230 1126 186 1136 170 c 1
 1206 216 1276 294 1286 400 c 0
 1286 402 1286 408 1288 414 c 1
 1288 420 1288 426 1288 428 c 0
 1288 496 1264 566 1216 640 c 1
 1172 702 1124 750 1072 788 c 1
 1110 842 1162 874 1232 880 c 1
 1252 880 l 2
 1366 880 1488 788 1504 636 c 0
 1506 626 1506 610 1506 588 c 0
 1506 430 1412 236 1190 78 c 1
 1196 66 l 1
 1246 -30 1270 -114 1270 -184 c 0xfb
 1270 -198 1270 -210 1268 -218 c 1
 1260 -306 1206 -386 1128 -418 c 0
 1082 -436 1032 -444 982 -444 c 1
 880 -434 l 1
 854 -390 l 1
EndSplineSet
Validated: 1
EndChar

StartChar: aogonek
Encoding: 261 261 135
Width: 1040
VWidth: 0
Flags: HW
HStem: -472 62<790.787 801.711> -26 192<120 321.018> 952 154<380.224 581.118>
VStem: 10 192<190.168 541.935> 504 180<-319.306 -133.285> 544 194<85 459.614>
DStem2: 652 816 784 606 0.179604 0.983739<-372.67 49.7903 202.683 307.09>
LayerCount: 2
Fore
SplineSet
216 204 m 0xf0
 226 178 246 166 280 166 c 0
 340 166 408 228 486 352 c 1
 562 476 618 630 652 816 c 1
 628 886 540 952 474 952 c 0
 380 952 304 862 264 736 c 0
 224 610 202 474 202 356 c 0
 202 280 206 230 216 204 c 0xf0
834 -410 m 1
 792 -472 l 1
 622 -454 504 -362 504 -256 c 0xf8
 504 -190 548 -116 636 -34 c 1
 574 -18 544 38 544 132 c 0xf4
 544 194 558 268 588 354 c 1
 572 354 l 1
 492 160 340 -26 188 -26 c 0
 52 -26 10 88 10 270 c 0
 10 480 108 766 270 960 c 1
 350 1058 432 1106 516 1106 c 0
 586 1106 642 1076 684 1014 c 1xf8
 696 1014 l 1
 712 1124 l 1
 726 1134 l 1
 872 1088 l 1
 784 606 l 1
 746 312 l 2
 740 258 738 228 738 220 c 0xf4
 738 162 754 144 792 144 c 0
 838 144 928 246 982 340 c 1
 1032 296 l 1
 958 106 874 -2 740 -32 c 1
 702 -98 684 -148 684 -184 c 0xf8
 684 -276 734 -352 834 -410 c 1
EndSplineSet
Validated: 1
EndChar

StartChar: approxequal
Encoding: 8776 8776 136
Width: 1200
VWidth: 0
Flags: HW
HStem: 372 178<679.047 879.28> 428 178<145.851 336.288> 682 178<679.047 879.28> 738 178<145.851 336.288>
LayerCount: 2
Fore
SplineSet
10 668 m 1x10
 12 674 16 684 22 696 c 1
 30 718 68 788 102 830 c 0
 136 872 198 916 260 916 c 0
 262 916 264 916 268 916 c 1x10
 272 914 276 914 278 914 c 2
 824 860 l 1
 830 860 l 2x20
 856 860 900 890 924 916 c 1x10
 942 934 l 1
 1022 934 l 1
 1020 928 1016 918 1012 908 c 0
 1002 884 964 814 926 770 c 0
 888 726 826 682 764 682 c 2
 744 682 l 1x20
 196 738 l 1
 190 738 l 1
 158 736 114 704 92 674 c 2
 76 652 l 1
 10 668 l 1x10
10 358 m 1
 12 364 16 374 22 386 c 1
 30 408 68 478 102 520 c 0
 136 562 198 606 260 606 c 0
 262 606 264 606 268 606 c 1x40
 272 604 276 604 278 604 c 2
 824 550 l 1
 830 550 l 2x80
 856 550 900 582 924 606 c 2x40
 942 624 l 1
 1022 624 l 1
 1020 618 1016 608 1012 598 c 0
 1002 574 964 504 926 460 c 0
 888 416 826 372 764 372 c 2
 744 372 l 1x80
 196 428 l 1
 190 428 l 2x40
 158 428 114 390 92 364 c 1
 76 342 l 1
 10 358 l 1
EndSplineSet
Validated: 1
EndChar

StartChar: aring
Encoding: 229 229 137
Width: 1040
VWidth: 0
Flags: HW
HStem: -38 182<631 835.531> -26 192<120 321.018> 952 154<380.224 581.118> 1250 58<537.65 679.136> 1600 58<528.486 662.704>
VStem: 10 192<190.168 541.935> 404 86<1341.86 1573.91> 544 194<79 459.614> 710 86<1331.6 1566.2>
DStem2: 652 816 784 606 0.179604 0.983739<-372.67 49.7903 202.683 307.09>
LayerCount: 2
Fore
SplineSet
726 1134 m 1x7f
 872 1088 l 1
 784 606 l 1
 746 312 l 2
 740 258 738 228 738 220 c 0
 738 162 754 144 792 144 c 0
 838 144 928 246 982 340 c 1
 1032 296 l 1
 946 74 848 -38 672 -38 c 0xbf
 590 -38 544 26 544 132 c 0
 544 194 558 268 588 354 c 1
 572 354 l 1
 492 160 340 -26 188 -26 c 0
 52 -26 10 88 10 270 c 0
 10 480 108 766 270 960 c 1
 350 1058 432 1106 516 1106 c 0
 586 1106 642 1076 684 1014 c 1
 696 1014 l 1
 712 1124 l 1
 726 1134 l 1x7f
216 204 m 0
 226 178 246 166 280 166 c 0x7e
 340 166 408 228 486 352 c 1
 562 476 618 630 652 816 c 1
 628 886 540 952 474 952 c 0
 380 952 304 862 264 736 c 0
 224 610 202 474 202 356 c 0
 202 280 206 230 216 204 c 0
490 1464 m 0
 490 1382 534 1308 606 1308 c 0
 676 1308 710 1354 710 1446 c 0x3e80
 710 1528 666 1600 594 1600 c 0
 528 1600 490 1538 490 1464 c 0
796 1462 m 0
 796 1348 712 1250 592 1250 c 0
 480 1250 404 1328 404 1450 c 0
 404 1562 496 1658 608 1658 c 0
 722 1658 796 1576 796 1462 c 0
EndSplineSet
Validated: 1
EndChar

StartChar: asciicircum
Encoding: 94 94 138
Width: 910
VWidth: 0
Flags: HW
HStem: 954 560
LayerCount: 2
Fore
SplineSet
702 1514 m 1
 1000 998 l 1
 924 954 l 1
 636 1300 l 1
 624 1300 l 1
 280 960 l 1
 224 1000 l 1
 634 1498 l 1
 702 1514 l 1
EndSplineSet
Validated: 1
EndChar

StartChar: asciitilde
Encoding: 126 126 139
Width: 1030
VWidth: 0
Flags: HW
HStem: 528 178<679.047 879.28> 584 178<145.851 336.288>
LayerCount: 2
Fore
SplineSet
10 514 m 1x40
 12 520 16 530 22 542 c 1
 30 564 68 634 102 676 c 0
 136 718 198 762 260 762 c 0
 262 762 264 762 268 762 c 1x40
 272 760 276 760 278 760 c 2
 824 706 l 1
 830 706 l 2x80
 856 706 900 738 924 762 c 2x40
 942 780 l 1
 1022 780 l 1
 1020 774 1016 764 1012 754 c 0
 1002 730 964 660 926 616 c 0
 888 572 826 528 764 528 c 2
 744 528 l 1x80
 196 584 l 1
 190 584 l 2
 158 584 114 546 92 520 c 1
 76 498 l 1
 10 514 l 1x40
EndSplineSet
Validated: 1
EndChar

StartChar: asterisk
Encoding: 42 42 140
Width: 908
VWidth: 0
Flags: HW
LayerCount: 2
Fore
SplineSet
816 860 m 1
 668 776 l 1
 484 1084 l 1
 548 1148 l 1
 816 860 l 1
286 738 m 1
 160 852 l 1
 396 1124 l 1
 476 1084 l 1
 286 738 l 1
10 1200 m 1
 80 1360 l 1
 410 1218 l 1
 396 1128 l 1
 10 1200 l 1
364 1610 m 1
 536 1592 l 1
 502 1236 l 1
 414 1222 l 1
 364 1610 l 1
862 1398 m 1
 900 1232 l 1
 548 1152 l 1
 506 1232 l 1
 862 1398 l 1
EndSplineSet
Validated: 1
EndChar

StartChar: at
Encoding: 64 64 141
Width: 1580
VWidth: 0
Flags: HW
HStem: -284 114<577.107 1074.59> -46 20G<1276 1301.33> 74 154<571.312 676.867> 856 120<698.558 886.743> 1188 112<647.063 1106.65>
VStem: 10 194<185.905 685.778> 390 172<228.793 543.722> 848 176<208.013 374.786> 1404 168<492.603 906.934>
DStem2: 868 316 1136 962 0.171899 0.985115<23.5634 60.5968 162.139 476.445 597.812 682.453>
LayerCount: 2
Fore
SplineSet
562 378 m 2
 562 348 564 318 568 286 c 1
 574 260 576 256 592 240 c 0
 594 238 596 238 598 236 c 0
 602 232 604 228 610 228 c 1
 620 226 628 224 634 224 c 0
 668 224 714 264 736 290 c 0
 802 370 912 574 944 744 c 1
 912 792 880 824 848 840 c 0
 826 850 808 856 792 856 c 2
 784 856 l 2
 734 856 678 820 652 772 c 1
 610 708 562 500 562 396 c 2
 562 378 l 2
1404 684 m 0
 1404 890 1314 1040 1146 1128 c 1
 1064 1168 976 1188 880 1188 c 0
 616 1188 394 1036 288 804 c 1
 232 688 204 566 204 436 c 0
 204 182 318 -4 500 -94 c 1
 596 -144 704 -170 822 -170 c 2
 848 -170 l 1
 960 -168 1100 -128 1180 -88 c 0
 1222 -66 1254 -50 1276 -36 c 1
 1288 -26 l 1
 1332 -92 l 1
 1322 -98 l 1
 1258 -160 1158 -220 1028 -254 c 1
 946 -274 870 -284 804 -284 c 2
 788 -284 l 2
 538 -284 276 -190 132 4 c 0
 50 116 10 250 10 404 c 0
 10 732 178 1023 448 1178 c 0
 590 1260 746 1300 912 1300 c 2
 924 1300 l 1
 1162 1294 1374 1198 1480 1032 c 0
 1538 942 1570 844 1572 734 c 1
 1572 722 l 2
 1572 506 1460 310 1284 180 c 1
 1186 110 1096 78 1000 64 c 1
 994 62 982 62 968 62 c 1
 928 66 l 1
 874 80 848 122 848 168 c 0
 848 222 852 242 868 316 c 1
 870 330 876 350 884 376 c 1
 870 378 l 1
 814 256 764 176 668 112 c 0
 630 86 594 74 560 74 c 0
 512 74 468 96 442 128 c 0
 412 166 396 206 392 252 c 1
 390 262 390 276 390 296 c 0
 390 334 396 384 408 444 c 1
 466 700 554 810 672 912 c 1
 726 954 764 976 812 976 c 0
 884 976 936 932 960 906 c 1
 976 904 l 1
 984 992 l 1
 1008 1000 l 1
 1136 962 l 1
 1062 572 l 1
 1044 442 1034 372 1032 366 c 1
 1028 312 l 2
 1026 280 1024 258 1024 246 c 2
 1024 232 l 2
 1024 226 1036 208 1052 208 c 0
 1054 208 1058 208 1062 210 c 1
 1066 210 1070 210 1072 210 c 0
 1162 226 1178 224 1248 288 c 0
 1352 382 1404 492 1404 684 c 0
EndSplineSet
Validated: 1
EndChar

StartChar: atilde
Encoding: 227 227 142
Width: 1040
VWidth: 0
Flags: HW
HStem: -38 182<631 835.531> -26 192<120 321.018> 952 154<380.224 581.118> 1280 126<644.48 814.905> 1318 126<379.826 498.598>
VStem: 10 192<190.168 541.935> 544 194<79 459.614>
DStem2: 652 816 784 606 0.179604 0.983739<-372.67 49.7903 202.683 307.09>
LayerCount: 2
Fore
SplineSet
726 1134 m 1x66
 872 1088 l 1
 784 606 l 1
 746 312 l 2
 740 258 738 228 738 220 c 0
 738 162 754 144 792 144 c 0
 838 144 928 246 982 340 c 1
 1032 296 l 1
 946 74 848 -38 672 -38 c 0xa6
 590 -38 544 26 544 132 c 0
 544 194 558 268 588 354 c 1
 572 354 l 1
 492 160 340 -26 188 -26 c 0
 52 -26 10 88 10 270 c 0
 10 480 108 766 270 960 c 1
 350 1058 432 1106 516 1106 c 0
 586 1106 642 1076 684 1014 c 1
 696 1014 l 1
 712 1124 l 1
 726 1134 l 1x66
216 204 m 0
 226 178 246 166 280 166 c 0x66
 340 166 408 228 486 352 c 1
 562 476 618 630 652 816 c 1
 628 886 540 952 474 952 c 0
 380 952 304 862 264 736 c 0
 224 610 202 474 202 356 c 0
 202 280 206 230 216 204 c 0
318 1270 m 1
 320 1276 322 1282 324 1290 c 0
 328 1304 348 1352 368 1384 c 1
 388 1414 426 1444 466 1444 c 0
 468 1444 470 1444 474 1444 c 1x2e
 478 1442 480 1442 482 1442 c 2
 752 1406 l 1
 756 1406 l 2x36
 774 1406 800 1428 814 1444 c 2x2e
 824 1456 l 1
 882 1454 l 1
 880 1448 878 1442 876 1436 c 0
 870 1420 852 1372 830 1342 c 0
 806 1310 766 1280 724 1280 c 2
 710 1280 l 1x36
 440 1318 l 1
 436 1318 l 2x2e
 414 1318 388 1292 374 1274 c 2
 364 1260 l 1
 318 1270 l 1
EndSplineSet
Validated: 1
EndChar

StartChar: b
Encoding: 98 98 143
Width: 910
VWidth: 0
Flags: HW
HStem: -30 138<257.218 521.109> 942 162<482.647 626.646> 1446 90<24 80.8367> 1544 20G<122.286 383.385>
VStem: 692 208<387 866.415>
DStem2: 2.94939 -30 192.987 -30 0.121869 0.992546<210.485 745.526 789.597 1452.58>
LayerCount: 2
Fore
SplineSet
540 942 m 0
 482 942 424 882 362 764 c 0
 300 646 258 494 236 308 c 1
 220 190 l 1
 258 136 324 108 422 108 c 0
 492 108 556 148 610 228 c 1
 664 306 692 438 692 624 c 0
 692 802 646 942 540 942 c 0
388 1538 m 1
 326 1044 l 1
 264 732 l 1
 276 732 l 1
 324 940 468 1104 620 1104 c 0
 788 1104 900 916 900 662 c 0
 900 270 654 -30 304 -30 c 0
 178 -30 82 0 14 60 c 1
 178 1412 l 1
 10 1446 l 1
 24 1536 l 1
 368 1564 l 1
 388 1538 l 1
EndSplineSet
Validated: 1
EndChar

StartChar: backslash
Encoding: 92 92 144
Width: 506
VWidth: 0
Flags: HW
HStem: -470 21G<340 496.813>
VStem: 10 490
DStem2: 174 1576 10 1586 0.159232 -0.987241<0 2036.46>
LayerCount: 2
Fore
SplineSet
174 1576 m 1
 500 -470 l 1
 340 -460 l 1
 10 1586 l 1
 174 1576 l 1
EndSplineSet
Validated: 1
EndChar

StartChar: bar
Encoding: 124 124 145
Width: 690
VWidth: 0
Flags: HW
VStem: 214 376
DStem2: 212.035 -440 352 -440 0.121869 0.992546<17.0574 1974.63>
LayerCount: 2
Fore
SplineSet
352 -440 m 1
 214 -424 l 1
 452 1520 l 1
 590 1506 l 1
 352 -440 l 1
EndSplineSet
Validated: 1
EndChar

StartChar: braceleft
Encoding: 123 123 146
Width: 802
VWidth: 0
Flags: HW
HStem: -472 126<462 548> 486 122<26 74> 1440 124<666 766>
VStem: 176 208<-327.261 238.825> 206 212<-182.058 423.888>
LayerCount: 2
Fore
SplineSet
554 -346 m 1xf0
 548 -472 l 1
 420 -472 l 2
 236 -472 176 -362 176 -172 c 0xf0
 176 -126 182 -56 192 40 c 0
 202 136 206 204 206 246 c 0
 206 384 162 462 74 476 c 2
 10 486 l 1
 26 608 l 1
 88 618 l 2
 202 636 272 754 292 892 c 0
 312 1030 340 1202 374 1334 c 0
 408 1466 508 1564 668 1564 c 2
 792 1564 l 1
 766 1440 l 1
 666 1432 l 2
 588 1426 556 1302 540 1144 c 1
 522 986 510 818 426 684 c 0
 384 618 326 574 256 554 c 1
 254 546 l 1
 364 512 418 410 418 236 c 0xe8
 418 186 412 110 402 10 c 1
 390 -92 384 -160 384 -196 c 0
 384 -288 410 -336 462 -340 c 2
 554 -346 l 1xf0
EndSplineSet
Validated: 1
EndChar

StartChar: braceright
Encoding: 125 125 147
Width: 808
VWidth: 0
Flags: HW
HStem: -472 126<36 130> 486 122<740 784> 1440 124<266 362>
VStem: 392 212<675.583 1265.92> 430 204<809.892 1425>
LayerCount: 2
Fore
SplineSet
130 -340 m 2xf0
 212 -334 252 -210 270 -50 c 0
 288 108 304 280 388 416 c 1
 430 482 486 526 556 546 c 1
 556 554 l 1
 446 584 392 682 392 848 c 2
 392 860 l 1
 392 872 l 2xf0
 392 926 398 1002 412 1102 c 1
 424 1200 430 1268 430 1302 c 0xe8
 430 1384 408 1428 362 1432 c 2
 260 1440 l 1
 266 1564 l 1
 392 1564 l 2xf0
 574 1564 634 1452 634 1268 c 0xe8
 634 1224 630 1154 620 1060 c 0
 610 966 604 898 604 856 c 0
 604 714 650 634 740 618 c 2
 798 608 l 1
 784 486 l 1
 718 476 l 1
 606 458 542 342 522 204 c 0
 502 66 474 -106 438 -240 c 0
 402 -374 300 -472 138 -472 c 2
 10 -472 l 1
 36 -346 l 1
 130 -340 l 2xf0
EndSplineSet
Validated: 1
EndChar

StartChar: bracketleft
Encoding: 91 91 148
Width: 710
VWidth: 0
Flags: HW
HStem: -468 120<323.915 456> 1452 112<552.229 700>
DStem2: 10 -470 198.073 -470 0.121869 0.992546<170.017 1933.3>
LayerCount: 2
Fore
SplineSet
456 -468 m 1
 10 -470 l 1
 260 1564 l 1
 700 1564 l 1
 700 1452 l 1
 432 1426 l 1
 216 -324 l 1
 484 -348 l 1
 456 -468 l 1
EndSplineSet
Validated: 1
EndChar

StartChar: bracketright
Encoding: 93 93 149
Width: 712
VWidth: 0
Flags: HW
HStem: -468 120<12 174.475> 1452 112<264 381.566>
DStem2: 266.073 -470 456 -470 0.121869 0.992546<147.096 1910.38>
LayerCount: 2
Fore
SplineSet
10 -468 m 1
 12 -348 l 1
 284 -324 l 1
 500 1426 l 1
 236 1452 l 1
 264 1564 l 1
 704 1564 l 1
 456 -470 l 1
 10 -468 l 1
EndSplineSet
Validated: 1
EndChar

StartChar: breve
Encoding: 728 728 150
Width: 764
VWidth: 0
Flags: HW
HStem: 1664 132<257.131 498.737>
VStem: 146 66<1851.71 1889.73>
LayerCount: 2
Fore
SplineSet
146 1880 m 1
 202 1918 l 1
 212 1898 l 1
 238 1842 302 1796 376 1796 c 0
 448 1796 506 1830 548 1900 c 2
 560 1920 l 1
 610 1886 l 1
 602 1862 l 2
 564 1750 488 1664 376 1664 c 0
 258 1664 178 1750 152 1856 c 2
 146 1880 l 1
EndSplineSet
Validated: 1
EndChar

StartChar: brokenbar
Encoding: 166 166 151
Width: 690
VWidth: 0
Flags: HW
VStem: 214 370
DStem2: 212.035 -440 346 -440 0.121869 0.992546<16.3262 969.206 1103.39 1974.63>
LayerCount: 2
Fore
SplineSet
214 -424 m 1
 330 522 l 1
 462 508 l 1
 346 -440 l 1
 214 -424 l 1
344 654 m 1
 452 1520 l 1
 584 1506 l 1
 470 640 l 1
 344 654 l 1
EndSplineSet
Validated: 1
EndChar

StartChar: bullet
Encoding: 8226 8226 152
Width: 338
VWidth: 0
Flags: HW
HStem: 208 450<111.181 295.876>
VStem: 0 402<330.777 538.837>
LayerCount: 2
Fore
SplineSet
368 594 m 1
 384 572 396 544 402 508 c 0
 404 498 406 488 406 480 c 0
 406 470 404 458 402 444 c 1
 398 430 396 420 396 416 c 0
 370 302 282 208 170 208 c 1
 66 214 16 298 6 354 c 0
 2 382 0 398 0 400 c 0
 0 404 2 420 6 448 c 1
 30 554 120 656 222 658 c 1
 300 658 326 642 368 594 c 1
EndSplineSet
Validated: 1
EndChar

StartChar: c
Encoding: 99 99 153
Width: 746
VWidth: 0
Flags: HW
HStem: -38 158<308.084 496.819> 984 120<354.193 587>
VStem: 10 198<230.031 677.136> 564 172<824.761 925.746> 656 44<246.137 253.033>
LayerCount: 2
Fore
SplineSet
552 816 m 0xf0
 548 838 540 886 528 910 c 0
 516 934 500 964 478 976 c 0
 466 982 452 984 438 984 c 0
 286 984 208 780 208 484 c 0
 208 338 224 242 296 172 c 0
 330 138 378 120 436 120 c 2
 440 120 l 2
 520 120 602 186 656 280 c 1
 700 240 l 1xe8
 668 98 496 -38 328 -38 c 0
 112 -38 10 148 10 412 c 0
 10 788 266 1104 516 1104 c 0
 658 1104 736 1010 736 912 c 0
 736 786 678 746 564 732 c 1
 564 740 556 794 552 816 c 0xf0
EndSplineSet
Validated: 1
EndChar

StartChar: cacute
Encoding: 263 263 154
Width: 746
VWidth: 0
Flags: HW
HStem: -38 160<308.084 496.819> 984 120<354.3 587>
VStem: 10 200<230.282 677.136> 564 172<824.761 925.746> 656 44<246.223 253.033>
LayerCount: 2
Fore
SplineSet
552 816 m 0xf0
 548 838 540 886 528 910 c 0
 516 934 500 964 478 976 c 0
 466 982 452 984 438 984 c 0
 286 984 210 780 210 484 c 0
 210 258 266 122 436 122 c 2
 440 122 l 2
 520 122 602 186 656 280 c 1
 700 240 l 1xe8
 668 98 496 -38 328 -38 c 0
 112 -38 10 148 10 412 c 0
 10 788 266 1104 516 1104 c 0
 658 1104 736 1010 736 912 c 0
 736 786 678 746 564 732 c 1
 564 740 556 794 552 816 c 0xf0
836 1612 m 1
 614 1228 l 1
 552 1266 l 1
 700 1660 l 1
 836 1612 l 1
EndSplineSet
Validated: 1
EndChar

StartChar: caron
Encoding: 711 711 155
Width: 792
VWidth: 0
Flags: HW
HStem: 1644 274
VStem: 150 492
DStem2: 248 1918 150 1844 0.736873 -0.676031<0 250.267> 440 1744 434 1660 0.690318 0.723506<0 226.544>
LayerCount: 2
Fore
SplineSet
368 1644 m 1
 150 1844 l 1
 248 1918 l 1
 428 1744 l 1
 440 1744 l 1
 590 1914 l 1
 642 1878 l 1
 434 1660 l 1
 368 1644 l 1
EndSplineSet
Validated: 1
EndChar

StartChar: ccaron
Encoding: 269 269 156
Width: 746
VWidth: 0
Flags: HW
HStem: -38 160<308.084 496.819> 984 120<354.3 587>
VStem: 10 200<230.282 677.136> 564 172<824.761 925.746> 656 44<246.223 253.033>
DStem2: 416 1512 318 1438 0.736873 -0.676031<0 250.267> 608 1338 602 1254 0.690318 0.723506<0 226.544>
LayerCount: 2
Fore
SplineSet
552 816 m 0xf0
 548 838 540 886 528 910 c 0
 516 934 500 964 478 976 c 0
 466 982 452 984 438 984 c 0
 286 984 210 780 210 484 c 0
 210 258 266 122 436 122 c 2
 440 122 l 2
 520 122 602 186 656 280 c 1
 700 240 l 1xe8
 668 98 496 -38 328 -38 c 0
 112 -38 10 148 10 412 c 0
 10 788 266 1104 516 1104 c 0
 658 1104 736 1010 736 912 c 0
 736 786 678 746 564 732 c 1
 564 740 556 794 552 816 c 0xf0
536 1238 m 1
 318 1438 l 1
 416 1512 l 1
 596 1338 l 1
 608 1338 l 1
 758 1508 l 1
 810 1472 l 1
 602 1254 l 1
 536 1238 l 1
EndSplineSet
Validated: 1
EndChar

StartChar: ccedilla
Encoding: 231 231 157
Width: 746
VWidth: 0
Flags: HW
HStem: -472 21G<217.333 305> 984 120<354.3 587>
VStem: 10 200<227.838 677.136> 304 162<-371.244 -212.843> 564 172<824.761 925.746> 656 44<246.137 253.033>
LayerCount: 2
Fore
SplineSet
358 -92 m 1xf4
 430 -154 466 -216 466 -274 c 0
 466 -358 386 -424 224 -472 c 1
 200 -400 l 1
 270 -376 304 -342 304 -300 c 0
 304 -266 274 -222 216 -166 c 1
 306 -38 l 1
 224 -32 190 -28 138 -6 c 0
 86 16 64 50 40 116 c 0
 16 180 10 276 10 412 c 0
 10 788 266 1104 516 1104 c 0
 658 1104 736 1010 736 912 c 0
 736 786 678 746 564 732 c 1xf8
 564 740 556 794 552 816 c 0
 548 838 540 886 528 910 c 0
 516 934 500 964 478 976 c 0
 466 982 452 984 438 984 c 0
 286 984 210 780 210 484 c 0
 210 254 266 120 436 120 c 2
 440 120 l 2
 520 120 602 186 656 280 c 1
 700 240 l 1
 670 122 542 2 400 -30 c 1
 358 -92 l 1xf4
EndSplineSet
Validated: 1
EndChar

StartChar: cdotaccent
Encoding: 267 267 158
Width: 746
VWidth: 0
Flags: HW
HStem: -38 160<308.084 496.819> 984 120<354.3 587> 1236 286<460.75 666>
VStem: 10 200<230.282 677.136> 418 292<1280.25 1480.95> 564 172<824.761 925.746> 656 44<246.223 253.033>
LayerCount: 2
Fore
SplineSet
552 816 m 0xf4
 548 838 540 886 528 910 c 0
 516 934 500 964 478 976 c 0
 466 982 452 984 438 984 c 0
 286 984 210 780 210 484 c 0
 210 258 266 122 436 122 c 2
 440 122 l 2
 520 122 602 186 656 280 c 1
 700 240 l 1xf2
 668 98 496 -38 328 -38 c 0
 112 -38 10 148 10 412 c 0
 10 788 266 1104 516 1104 c 0
 658 1104 736 1010 736 912 c 0
 736 786 678 746 564 732 c 1
 564 740 556 794 552 816 c 0xf4
710 1384 m 0xf8
 710 1302 642 1236 562 1236 c 0
 482 1236 418 1304 418 1386 c 0
 418 1464 484 1522 562 1522 c 0
 642 1522 710 1462 710 1384 c 0xf8
EndSplineSet
Validated: 1
EndChar

StartChar: cedilla
Encoding: 184 184 159
Width: 466
VWidth: 0
Flags: HW
HStem: -472 476<234 241.273>
VStem: 204 162<-371.244 -212.843>
LayerCount: 2
Fore
SplineSet
258 -92 m 1
 330 -154 366 -216 366 -274 c 0
 366 -358 286 -424 124 -472 c 1
 100 -400 l 1
 170 -376 204 -342 204 -300 c 0
 204 -266 174 -222 116 -166 c 1
 234 4 l 1
 324 4 l 1
 258 -92 l 1
EndSplineSet
Validated: 1
EndChar

StartChar: cent
Encoding: 162 162 160
Width: 746
VWidth: 0
Flags: HW
HStem: -38 160<307.417 496.819> 984 114<343.649 460>
VStem: 10 200<238.388 674.161> 564 172<824.761 913.156> 656 44<246.223 253.033>
DStem2: 86 -192 248 -180 0.278276 0.960501<56.6067 215.026 1366.39 1559.6> 250 234 306 160 0.277749 0.960654<0 729.348>
LayerCount: 2
Fore
SplineSet
466 978 m 1xe0
 458 982 448 984 438 984 c 0
 286 984 210 780 210 484 c 0
 210 374 224 292 250 234 c 1
 466 978 l 1xe0
616 1086 m 1
 694 1054 736 984 736 912 c 0
 736 786 678 746 564 732 c 1xf0
 564 740 552 814 544 856 c 1
 538 878 532 896 524 914 c 1
 306 160 l 1
 336 134 380 122 436 122 c 2
 440 122 l 2
 520 122 602 186 656 280 c 1
 700 240 l 1xe8
 668 98 496 -38 328 -38 c 0
 310 -38 296 -38 288 -36 c 1
 248 -180 l 1
 86 -192 l 1
 148 22 l 1
 56 96 10 226 10 412 c 0
 10 756 226 1056 460 1098 c 1
 520 1306 l 1
 684 1316 l 1
 616 1086 l 1
EndSplineSet
Validated: 1
EndChar

StartChar: circumflex
Encoding: 710 710 161
Width: 786
VWidth: 0
Flags: HW
HStem: 1646 268
VStem: 146 486
LayerCount: 2
Fore
SplineSet
416 1914 m 1
 632 1690 l 1
 572 1646 l 1
 374 1778 l 1
 362 1778 l 1
 192 1644 l 1
 146 1680 l 1
 350 1898 l 1
 416 1914 l 1
EndSplineSet
Validated: 1
EndChar

StartChar: colon
Encoding: 58 58 162
Width: 374
VWidth: 0
Flags: HW
HStem: -34 278<58.7677 207.95> 772 276<169.266 320.53>
VStem: 8 250<16.8168 193.639> 118 248<819.189 997.639>
LayerCount: 2
Fore
SplineSet
344 1008 m 0xd0
 352 998 358 980 364 956 c 0
 366 952 366 944 366 934 c 0
 366 926 364 914 362 898 c 1
 344 826 294 772 220 772 c 0
 156 772 128 820 120 860 c 1
 118 864 118 872 118 882 c 0
 118 890 120 902 122 918 c 1
 136 984 196 1046 254 1048 c 1
 292 1048 318 1040 344 1008 c 0xd0
234 204 m 1
 244 190 250 174 256 152 c 0
 258 148 258 140 258 130 c 0
 258 122 256 110 254 94 c 1
 246 60 230 32 204 6 c 0
 172 -26 146 -34 112 -34 c 1
 48 -28 20 16 12 56 c 0
 10 66 8 76 8 84 c 0xe0
 8 94 10 104 12 114 c 0
 26 180 84 242 146 244 c 1
 184 244 204 238 234 204 c 1
EndSplineSet
Validated: 1
EndChar

StartChar: comma
Encoding: 44 44 163
Width: 428
VWidth: 0
Flags: HW
HStem: -374 654
VStem: 212 206<-104.521 68.1819>
LayerCount: 2
Fore
SplineSet
244 280 m 2
 262 280 l 1
 332 272 376 222 400 158 c 0
 412 128 418 96 418 58 c 0
 418 38 416 18 412 0 c 0
 390 -106 328 -186 234 -258 c 1
 180 -302 120 -340 50 -374 c 1
 10 -310 l 1
 52 -288 130 -236 168 -178 c 1
 202 -128 212 -74 212 -48 c 0
 212 -42 210 -30 208 -14 c 1
 192 58 132 114 78 144 c 1
 104 240 186 280 244 280 c 2
EndSplineSet
Validated: 1
EndChar

StartChar: commaaccent
Encoding: 806 806 164
Width: 500
VWidth: 0
Flags: HW
HStem: -438 406
VStem: 208 128<-296.418 -147.792>
LayerCount: 2
Fore
SplineSet
228 -32 m 2
 238 -32 l 1
 280 -38 308 -68 324 -108 c 0
 332 -126 336 -148 336 -170 c 0
 336 -178 334 -190 332 -206 c 1
 318 -272 280 -320 222 -366 c 1
 192 -392 154 -416 108 -438 c 1
 82 -398 l 1
 120 -376 156 -354 180 -316 c 1
 202 -284 208 -238 208 -236 c 0
 208 -232 206 -224 204 -214 c 0
 196 -172 148 -130 124 -116 c 1
 140 -60 194 -32 228 -32 c 2
EndSplineSet
Validated: 1
EndChar

StartChar: copyright
Encoding: 169 169 165
Width: 1570
VWidth: 0
Flags: HW
HStem: -34 130<552.619 1006.79> 308 110<679.023 1005.58> 1196 86<648.764 960.007> 1464 124<567.393 1024.57>
VStem: 10 150<523.616 1032.32> 336 178<598.243 988.463> 1012 64<972 1053.92> 1412 148<514.016 1041.13>
LayerCount: 2
Fore
SplineSet
852 418 m 0
 950 418 1036 446 1108 504 c 1
 1118 494 1130 476 1144 446 c 1
 1048 354 930 308 792 308 c 0
 544 308 336 484 336 770 c 0
 336 930 396 1088 550 1200 c 1
 628 1254 720 1282 828 1282 c 0
 942 1282 1030 1256 1096 1206 c 1
 1076 964 l 1
 1012 972 l 1
 984 1132 l 1
 950 1174 882 1196 784 1196 c 0
 622 1196 514 1058 514 820 c 0
 514 548 654 418 852 418 c 0
766 -34 m 0
 320 -34 10 312 10 768 c 0
 10 1232 368 1588 778 1588 c 0
 1026 1588 1232 1494 1360 1344 c 1
 1488 1192 1560 994 1560 772 c 0
 1560 338 1212 -34 766 -34 c 0
160 782 m 0
 160 384 416 96 776 96 c 0
 1126 96 1412 378 1412 760 c 0
 1412 944 1362 1110 1262 1246 c 1
 1162 1380 988 1464 778 1464 c 0
 428 1464 160 1152 160 782 c 0
EndSplineSet
Validated: 1
EndChar

StartChar: currency
Encoding: 164 164 166
Width: 942
VWidth: 0
Flags: HW
HStem: 262 118<410.781 656.263> 812 118<450.852 695.306>
VStem: 232 130<428.75 717.64> 746 130<473.062 760.28>
LayerCount: 2
Fore
SplineSet
746 632 m 0
 746 742 682 812 576 812 c 0
 464 812 380 726 364 598 c 0
 362 590 362 578 362 560 c 0
 362 450 424 380 526 380 c 0
 640 380 728 464 744 590 c 0
 746 600 746 614 746 632 c 0
152 308 m 1
 264 402 l 1
 242 444 232 494 232 552 c 0
 232 570 232 582 234 592 c 0
 244 660 266 716 302 760 c 1
 208 864 l 1
 322 964 l 1
 400 858 l 1
 466 906 532 930 598 930 c 0
 668 930 728 910 778 870 c 1
 886 966 l 1
 964 860 l 1
 850 770 l 1
 868 732 876 686 876 636 c 0
 876 618 876 604 874 594 c 0
 864 522 840 462 798 414 c 1
 902 310 l 1
 782 210 l 1
 700 320 l 1
 632 282 566 262 504 262 c 0
 454 262 402 278 348 312 c 1
 242 204 l 1
 152 308 l 1
EndSplineSet
Validated: 1
EndChar

StartChar: d
Encoding: 100 100 167
Width: 1036
VWidth: 0
Flags: HW
HStem: -32 168<139 355.053> -30 182<625 832.959> 958 132<385.299 588.235> 1446 90<540 597.993> 1548 20G<667.5 896>
VStem: 10 198<143.409 536.862> 556 184<70 319.23> 976 50<296.797 309.748>
DStem2: 533.177 -32 705.096 -32 0.121869 0.992546<481.712 929.733 1096.56 1452.84>
LayerCount: 2
Fore
SplineSet
208 354 m 2xbf
 208 276 212 222 220 188 c 0
 228 154 246 136 276 136 c 0
 430 136 600 464 640 838 c 1
 602 918 548 958 476 958 c 0
 370 958 280 824 240 650 c 1
 218 562 208 470 208 376 c 2
 208 354 l 2xbf
752 350 m 1
 744 298 740 258 740 230 c 0
 740 166 758 152 792 152 c 0
 834 152 926 246 976 334 c 1
 1026 300 l 1
 962 80 840 -30 660 -30 c 0x7f
 590 -30 556 20 556 120 c 0
 556 178 566 244 588 320 c 1
 572 324 l 1
 494 106 368 -32 208 -32 c 0
 70 -32 10 96 10 272 c 0
 10 464 98 740 266 940 c 0
 350 1040 440 1090 536 1090 c 0
 600 1090 638 1078 652 1052 c 1
 670 1056 l 1
 694 1412 l 1
 528 1446 l 1
 540 1536 l 1
 880 1568 l 1
 904 1538 l 1
 752 350 l 1
EndSplineSet
Validated: 1
EndChar

StartChar: dagger
Encoding: 8224 8224 168
Width: 1118
VWidth: 0
Flags: HW
DStem2: 470.035 -440 646 -440 0.121869 0.992546<21.4447 21.4447 1462.03 1975.61>
LayerCount: 2
Fore
SplineSet
804 992 m 1
 1176 1002 l 1
 1148 854 l 1
 788 868 l 1
 646 -440 l 1
 472 -424 l 1
 648 870 l 1
 280 862 l 1
 306 1002 l 1
 664 992 l 1
 718 1520 l 1
 878 1506 l 1
 804 992 l 1
EndSplineSet
Validated: 1
EndChar

StartChar: daggerdbl
Encoding: 8225 8225 169
Width: 1118
VWidth: 0
Flags: HW
HStem: 78 148<222 544> 88 124<262.174 544 700 1054> 854 148<802 1144> 862 140<306 646 802 1069.54>
DStem2: 468.281 -440 630 -440 0.121869 0.992546<19.7086 533.292 673.394 755.681 874.721 1138.35 1256.17 1321.89 1462 1975.58>
LayerCount: 2
Fore
SplineSet
734 520 m 1x20
 700 210 l 1
 1078 218 l 1
 1054 78 l 1xa0
 684 88 l 1
 630 -440 l 1
 470 -426 l 1
 544 88 l 1x40
 196 78 l 1
 222 226 l 1x80
 560 212 l 1
 618 604 l 1
 646 870 l 1
 280 862 l 1
 306 1002 l 1
 662 992 l 1
 716 1520 l 1
 876 1506 l 1
 802 992 l 1
 1172 1002 l 1x50
 1144 854 l 1
 786 868 l 1
 734 520 l 1x20
EndSplineSet
Validated: 1
EndChar

StartChar: dcaron
Encoding: 271 271 170
Width: 1036
VWidth: 0
Flags: HW
HStem: -32 168<139 355.053> -30 182<625 830.777> 958 132<385.365 588.235> 1446 90<540 597.993> 1548 20G<667.5 896>
VStem: 10 196<143.409 536.862> 308 170<1268.31 1436.59> 556 186<70 319.067> 976 48<296.797 310.155>
DStem2: 533.177 -32 705.096 -32 0.121869 0.992546<481.712 929.733 1096.56 1452.84>
LayerCount: 2
Fore
SplineSet
206 364 m 2xbf80
 206 282 210 224 218 190 c 0
 226 154 246 136 276 136 c 0
 430 136 600 464 640 838 c 1
 602 918 548 958 476 958 c 0
 370 958 281 824 238 650 c 0
 216 562 206 470 206 376 c 2
 206 364 l 2xbf80
752 350 m 1
 746 292 742 252 742 230 c 0
 742 166 758 152 792 152 c 0
 834 152 926 246 976 334 c 1
 1024 300 l 1
 960 80 838 -30 660 -30 c 0x7f80
 590 -30 556 20 556 120 c 0
 556 178 566 244 588 320 c 1
 572 324 l 1
 494 106 368 -32 208 -32 c 0
 70 -32 10 96 10 272 c 0
 10 464 98 740 266 940 c 0
 350 1040 440 1090 536 1090 c 0
 600 1090 638 1078 652 1052 c 1
 670 1056 l 1
 694 1412 l 1
 528 1446 l 1
 540 1536 l 1
 880 1568 l 1
 904 1538 l 1
 752 350 l 1
334 1602 m 2
 350 1602 l 1
 406 1594 442 1554 464 1500 c 0
 474 1478 478 1450 478 1418 c 0
 478 1396 476 1380 474 1370 c 0
 458 1284 404 1214 326 1156 c 1
 282 1120 232 1088 174 1060 c 1
 140 1112 l 1
 178 1130 246 1182 272 1222 c 1
 296 1256 308 1308 308 1330 c 0
 308 1336 306 1344 304 1358 c 0
 294 1420 250 1456 196 1488 c 1
 218 1568 284 1602 334 1602 c 2
EndSplineSet
Validated: 1
EndChar

StartChar: dcroat
Encoding: 273 273 171
Width: 1036
VWidth: 0
Flags: HW
HStem: -32 168<139 355.053> -30 182<625 830.777> 958 132<385.365 588.235> 1206 102<466 680 875 982> 1446 90<540 597.993> 1548 20G<667.5 896>
VStem: 10 196<143.409 536.862> 556 186<70 319.067> 976 48<296.797 310.155>
DStem2: 533.177 -32 705.096 -32 0.121869 0.992546<481.712 929.733 1096.56 1246.67 1371.67 1452.84>
LayerCount: 2
Fore
SplineSet
206 364 m 2xbf80
 206 282 210 224 218 190 c 0
 226 154 246 136 276 136 c 0
 430 136 600 464 640 838 c 1
 602 918 548 958 476 958 c 0
 370 958 281 824 238 650 c 0
 216 562 206 470 206 376 c 2
 206 364 l 2xbf80
752 350 m 1
 746 292 742 252 742 230 c 0
 742 166 758 152 792 152 c 0
 834 152 926 246 976 334 c 1
 1024 300 l 1
 960 80 838 -30 660 -30 c 0x7f80
 590 -30 556 20 556 120 c 0
 556 178 566 244 588 320 c 1
 572 324 l 1
 494 106 368 -32 208 -32 c 0
 70 -32 10 96 10 272 c 0
 10 464 98 740 266 940 c 0
 350 1040 440 1090 536 1090 c 0
 600 1090 638 1078 652 1052 c 1
 670 1056 l 1
 680 1206 l 1
 450 1206 l 1
 466 1308 l 1
 687 1308 l 1
 694 1412 l 1
 528 1446 l 1
 540 1536 l 1
 880 1568 l 1
 904 1538 l 1
 875 1308 l 1
 1000 1308 l 1
 982 1206 l 1
 862 1206 l 1
 752 350 l 1
EndSplineSet
Validated: 1
EndChar

StartChar: degree
Encoding: 176 176 172
Width: 420
VWidth: 0
Flags: HW
HStem: 1176 60<146.598 292.181> 1534 58<134.069 273.232>
VStem: 10 88<1268.39 1508.14> 324 88<1258.18 1499.48>
LayerCount: 2
Fore
SplineSet
412 1392 m 0
 412 1274 326 1176 204 1176 c 0
 86 1176 10 1254 10 1380 c 0
 10 1498 106 1592 220 1592 c 0
 338 1592 412 1510 412 1392 c 0
98 1396 m 0
 98 1310 142 1236 216 1236 c 0
 288 1236 324 1282 324 1376 c 0
 324 1462 278 1534 204 1534 c 0
 134 1534 98 1474 98 1396 c 0
EndSplineSet
Validated: 1
EndChar

StartChar: dieresis
Encoding: 168 168 173
Width: 832
VWidth: 0
Flags: HW
HStem: 1676 192<166.648 339.259 490.648 664.67>
VStem: 150 206<1693 1850.53> 474 208<1694.33 1849.94>
LayerCount: 2
Fore
SplineSet
682 1774 m 0
 682 1716 632 1676 576 1676 c 0
 522 1676 474 1716 474 1774 c 0
 474 1830 522 1868 576 1868 c 0
 632 1868 682 1828 682 1774 c 0
356 1774 m 0
 356 1716 308 1676 252 1676 c 0
 198 1676 150 1716 150 1774 c 0
 150 1830 198 1868 252 1868 c 0
 308 1868 356 1828 356 1774 c 0
EndSplineSet
Validated: 1
EndChar

StartChar: divide
Encoding: 247 247 174
Width: 1198
VWidth: 0
Flags: HW
HStem: 126 286<521.183 699.75> 550 128<202 1152> 808 286<629.183 807.75>
VStem: 468 294<188.211 358.612> 576 294<870.211 1040.61>
LayerCount: 2
Fore
SplineSet
870 976 m 0xe8
 870 968 870 962 868 956 c 0
 854 874 778 808 698 808 c 0
 626 808 576 860 576 932 c 0
 576 944 576 952 578 958 c 1
 588 1036 664 1094 744 1094 c 0
 816 1094 870 1042 870 976 c 0xe8
762 294 m 0xf0
 762 286 762 280 760 274 c 0
 746 192 670 126 590 126 c 0
 518 126 468 178 468 250 c 0
 468 262 468 270 470 276 c 1
 480 354 556 412 636 412 c 0
 708 412 762 360 762 294 c 0xf0
202 678 m 1
 1186 678 l 1
 1152 550 l 1
 168 550 l 1
 202 678 l 1
EndSplineSet
Validated: 1
EndChar

StartChar: dollar
Encoding: 36 36 175
Width: 1062
VWidth: 0
Flags: HW
HStem: -24 132<359.514 378 536 666.164>
VStem: 10 282<174.669 419.051> 196 236<1093.73 1289.99> 756 250<250.533 477.425> 868 108<1052 1104.7>
DStem2: 348 -206 508 -194 0.164236 0.986421<38.1147 184.456 1827.42 1984.95> 440 108 516 98 0.164399 0.986394<2.63038 503.719 877.891 1371.75>
LayerCount: 2
Fore
SplineSet
666 1464 m 1xa0
 660 1464 l 2
 562 1464 440 1392 432 1256 c 1
 432 1240 l 2
 432 1120 502 1048 584 974 c 1
 666 1464 l 1xa0
516 98 m 1
 614 104 710 158 744 254 c 0
 752 276 756 302 756 334 c 0x90
 756 388 740 456 676 522 c 1
 654 548 628 570 600 592 c 1
 516 98 l 1
976 1028 m 1xa8
 868 1052 l 1xa8
 858 1360 l 1
 830 1400 792 1430 744 1448 c 1
 654 916 l 1
 860 742 880 726 938 640 c 0
 974 588 996 530 1004 464 c 1
 1006 456 1006 444 1006 428 c 0
 1006 338 974 236 888 148 c 1
 826 82 746 32 648 0 c 0
 612 -12 574 -20 536 -24 c 1
 508 -194 l 1
 348 -206 l 1
 378 -24 l 1
 300 -16 210 12 140 60 c 0
 62 114 20 194 12 256 c 1
 10 262 10 274 10 288 c 0
 10 306 14 328 20 352 c 1
 42 418 84 462 148 488 c 1
 178 502 212 508 248 508 c 0
 274 508 302 504 328 496 c 1
 312 450 302 410 296 376 c 1
 294 350 292 330 292 316 c 0xd0
 292 238 322 178 372 140 c 1
 390 128 412 118 440 108 c 1
 530 650 l 1
 424 736 348 810 300 868 c 1
 226 962 196 1038 196 1120 c 2
 196 1148 l 1
 200 1194 214 1242 238 1290 c 1
 326 1456 486 1550 644 1574 c 1
 674 1752 l 1
 838 1762 l 1
 806 1572 l 1
 904 1554 988 1516 1056 1456 c 1
 976 1028 l 1xa8
EndSplineSet
Validated: 1
EndChar

StartChar: dotaccent
Encoding: 729 729 176
Width: 592
VWidth: 0
Flags: HW
HStem: 1642 286<192.75 398>
VStem: 150 292<1686.25 1886.95>
LayerCount: 2
Fore
SplineSet
442 1790 m 0
 442 1708 374 1642 294 1642 c 0
 214 1642 150 1710 150 1792 c 0
 150 1870 216 1928 294 1928 c 0
 374 1928 442 1868 442 1790 c 0
EndSplineSet
Validated: 1
EndChar

StartChar: dotlessi
Encoding: 305 305 177
Width: 724
VWidth: 0
Flags: HW
HStem: -28 180<307 530.225> 932 188<238.518 410>
VStem: 220 204<152.103 620.312> 284 202<443.594 1005>
DStem2: 187.623 -28 388.008 -28 0.121869 0.992546<280.05 867.821>
LayerCount: 2
Fore
SplineSet
430 314 m 2xd0
 426 278 424 248 424 224 c 0
 424 176 438 152 464 152 c 0
 518 152 610 208 664 304 c 1
 716 268 l 1
 642 70 522 -28 360 -28 c 0
 254 -28 220 36 220 164 c 0xe0
 220 198 226 264 236 366 c 1
 280 756 l 2
 282 778 284 804 284 836 c 0
 284 900 270 932 242 932 c 0
 212 932 154 868 68 740 c 1
 10 780 l 1
 80 964 234 1120 372 1120 c 0
 448 1120 486 1062 486 948 c 0
 486 932 478 850 464 704 c 1
 430 314 l 2xd0
EndSplineSet
Validated: 1
EndChar

StartChar: e
Encoding: 101 101 178
Width: 742
VWidth: 0
Flags: HW
HStem: -38 166<285.189 487.957> 976 132<363.746 591.197>
VStem: 10 198<218.691 436.93> 544 188<736.393 961.637>
LayerCount: 2
Fore
SplineSet
732 888 m 0
 732 776 658 668 548 590 c 0
 438 512 326 460 208 422 c 1
 212 226 278 128 408 128 c 0
 502 128 588 186 662 304 c 1
 708 264 l 1
 654 112 506 -38 312 -38 c 0
 120 -38 10 110 10 376 c 0
 10 602 114 850 276 998 c 0
 356 1072 440 1108 526 1108 c 0
 652 1108 732 1026 732 888 c 0
544 862 m 0
 544 938 512 976 446 976 c 0
 308 976 228 822 208 512 c 1
 432 594 544 712 544 862 c 0
EndSplineSet
Validated: 1
EndChar

StartChar: eacute
Encoding: 233 233 179
Width: 742
VWidth: 0
Flags: HW
HStem: -38 168<284.85 487.595> 976 132<363.746 591.197>
VStem: 10 196<218.691 436.93> 544 188<736.393 961.637>
LayerCount: 2
Fore
SplineSet
732 888 m 0
 732 776 658 668 548 590 c 1
 436 512 324 460 206 422 c 1
 210 228 278 130 408 130 c 0
 506 130 598 206 662 304 c 1
 708 264 l 1
 654 112 506 -38 312 -38 c 0
 120 -38 10 110 10 376 c 0
 10 602 114 850 276 998 c 0
 356 1072 440 1108 526 1108 c 0
 652 1108 732 1026 732 888 c 0
544 862 m 0
 544 938 512 976 446 976 c 0
 308 976 228 822 208 512 c 1
 432 594 544 712 544 862 c 0
818 1632 m 1
 596 1248 l 1
 534 1286 l 1
 682 1680 l 1
 818 1632 l 1
EndSplineSet
Validated: 1
EndChar

StartChar: ecaron
Encoding: 283 283 180
Width: 742
VWidth: 0
Flags: HW
HStem: -38 168<284.85 487.595> 976 132<363.746 591.197>
VStem: 10 196<218.691 436.93> 544 188<736.393 961.637>
DStem2: 398 1532 300 1458 0.736873 -0.676031<0 250.267> 590 1358 584 1274 0.690318 0.723506<0 226.544>
LayerCount: 2
Fore
SplineSet
732 888 m 0
 732 776 658 668 548 590 c 1
 436 512 324 460 206 422 c 1
 210 228 278 130 408 130 c 0
 506 130 598 206 662 304 c 1
 708 264 l 1
 654 112 506 -38 312 -38 c 0
 120 -38 10 110 10 376 c 0
 10 602 114 850 276 998 c 0
 356 1072 440 1108 526 1108 c 0
 652 1108 732 1026 732 888 c 0
544 862 m 0
 544 938 512 976 446 976 c 0
 308 976 228 822 208 512 c 1
 432 594 544 712 544 862 c 0
518 1258 m 1
 300 1458 l 1
 398 1532 l 1
 578 1358 l 1
 590 1358 l 1
 740 1528 l 1
 792 1492 l 1
 584 1274 l 1
 518 1258 l 1
EndSplineSet
Validated: 1
EndChar

StartChar: ecircumflex
Encoding: 234 234 181
Width: 742
VWidth: 0
Flags: HW
HStem: -38 168<284.85 487.595> 976 132<363.746 591.197>
VStem: 10 196<218.691 436.93> 544 188<736.393 961.637>
LayerCount: 2
Fore
SplineSet
732 888 m 0
 732 776 658 668 548 590 c 1
 436 512 324 460 206 422 c 1
 210 228 278 130 408 130 c 0
 506 130 598 206 662 304 c 1
 708 264 l 1
 654 112 506 -38 312 -38 c 0
 120 -38 10 110 10 376 c 0
 10 602 114 850 276 998 c 0
 356 1072 440 1108 526 1108 c 0
 652 1108 732 1026 732 888 c 0
544 862 m 0
 544 938 512 976 446 976 c 0
 308 976 228 822 208 512 c 1
 432 594 544 712 544 862 c 0
572 1528 m 1
 788 1304 l 1
 728 1260 l 1
 530 1392 l 1
 518 1392 l 1
 348 1258 l 1
 302 1294 l 1
 506 1512 l 1
 572 1528 l 1
EndSplineSet
Validated: 1
EndChar

StartChar: edieresis
Encoding: 235 235 182
Width: 742
VWidth: 0
Flags: HW
HStem: -38 168<284.85 487.595> 976 132<363.746 591.197> 1290 192<296.648 469.259 620.648 794.67>
VStem: 10 196<218.691 436.93> 280 206<1307 1464.53> 544 188<736.393 961.637> 604 208<1308.33 1463.94>
LayerCount: 2
Fore
SplineSet
732 888 m 0xfc
 732 776 658 668 548 590 c 1
 436 512 324 460 206 422 c 1
 210 228 278 130 408 130 c 0
 506 130 598 206 662 304 c 1
 708 264 l 1
 654 112 506 -38 312 -38 c 0
 120 -38 10 110 10 376 c 0
 10 602 114 850 276 998 c 0
 356 1072 440 1108 526 1108 c 0
 652 1108 732 1026 732 888 c 0xfc
544 862 m 0
 544 938 512 976 446 976 c 0
 308 976 228 822 208 512 c 1
 432 594 544 712 544 862 c 0
812 1388 m 0xfa
 812 1330 762 1290 706 1290 c 0
 652 1290 604 1330 604 1388 c 0
 604 1444 652 1482 706 1482 c 0
 762 1482 812 1442 812 1388 c 0xfa
486 1388 m 0
 486 1330 438 1290 382 1290 c 0
 328 1290 280 1330 280 1388 c 0
 280 1444 328 1482 382 1482 c 0
 438 1482 486 1442 486 1388 c 0
EndSplineSet
Validated: 1
EndChar

StartChar: edotaccent
Encoding: 279 279 183
Width: 742
VWidth: 0
Flags: HW
HStem: -38 168<284.85 487.595> 976 132<363.746 591.197> 1256 286<442.75 648>
VStem: 10 196<218.691 436.93> 400 292<1300.25 1500.95> 544 188<736.393 961.637>
LayerCount: 2
Fore
SplineSet
732 888 m 0xf4
 732 776 658 668 548 590 c 1
 436 512 324 460 206 422 c 1
 210 228 278 130 408 130 c 0
 506 130 598 206 662 304 c 1
 708 264 l 1
 654 112 506 -38 312 -38 c 0
 120 -38 10 110 10 376 c 0
 10 602 114 850 276 998 c 0
 356 1072 440 1108 526 1108 c 0
 652 1108 732 1026 732 888 c 0xf4
544 862 m 0
 544 938 512 976 446 976 c 0
 308 976 228 822 208 512 c 1
 432 594 544 712 544 862 c 0
692 1404 m 0xf8
 692 1322 624 1256 544 1256 c 0xf4
 464 1256 400 1324 400 1406 c 0xf8
 400 1484 466 1542 544 1542 c 0xf4
 624 1542 692 1482 692 1404 c 0xf8
EndSplineSet
Validated: 1
EndChar

StartChar: egrave
Encoding: 232 232 184
Width: 742
VWidth: 0
Flags: HW
HStem: -38 168<284.85 487.595> 976 132<363.746 591.197>
VStem: 10 196<218.691 436.93> 544 188<736.393 961.637>
LayerCount: 2
Fore
SplineSet
732 888 m 0
 732 776 658 668 548 590 c 1
 436 512 324 460 206 422 c 1
 210 228 278 130 408 130 c 0
 506 130 598 206 662 304 c 1
 708 264 l 1
 654 112 506 -38 312 -38 c 0
 120 -38 10 110 10 376 c 0
 10 602 114 850 276 998 c 0
 356 1072 440 1108 526 1108 c 0
 652 1108 732 1026 732 888 c 0
544 862 m 0
 544 938 512 976 446 976 c 0
 308 976 228 822 208 512 c 1
 432 594 544 712 544 862 c 0
298 1624 m 1
 438 1670 l 1
 598 1266 l 1
 528 1224 l 1
 298 1624 l 1
EndSplineSet
Validated: 1
EndChar

StartChar: eight
Encoding: 56 56 185
Width: 904
VWidth: 0
Flags: HW
HStem: -32 108<318.81 564.976> 1348 104<492 623>
VStem: 10 214<170.765 438.749> 168 192<1017.71 1230.03> 640 206<200.983 444.587> 694 200<983.875 1268.76>
DStem2: 582 808 378 688 0.718602 -0.695421<-319.361 -136.673 -63.1443 -0.0952352 80.6225 314.948>
LayerCount: 2
Fore
SplineSet
694 1090 m 0xd4
 694 1112 694 1130 692 1140 c 0
 684 1220 648 1304 576 1336 c 0
 556 1344 536 1348 518 1348 c 1
 492 1346 l 1
 434 1338 388 1290 372 1236 c 1
 364 1204 360 1180 360 1164 c 2
 360 1152 l 1
 368 1016 496 890 582 808 c 1
 638 858 694 952 694 1090 c 0xd4
304 764 m 1
 206 876 168 970 168 1068 c 0
 168 1082 168 1094 170 1100 c 1
 184 1218 248 1306 360 1380 c 1
 436 1428 512 1452 590 1452 c 0
 680 1452 754 1422 812 1364 c 0
 874 1302 894 1230 894 1164 c 0xd4
 894 1146 894 1134 892 1126 c 1
 878 968 750 824 640 752 c 1
 644 748 l 2
 794 598 846 484 846 366 c 0
 846 348 846 336 844 328 c 1
 836 238 782 150 708 92 c 1
 640 36 556 -2 456 -22 c 0
 426 -28 390 -32 348 -32 c 0
 222 -32 114 12 48 122 c 0
 22 164 10 212 10 266 c 0xe8
 10 282 10 294 12 300 c 1
 22 418 82 498 180 608 c 1
 230 658 278 702 326 740 c 1
 304 764 l 1
224 352 m 1xe8
 224 332 l 2
 224 218 268 150 332 110 c 0
 366 88 400 78 434 76 c 1
 440 76 l 2
 554 76 640 164 640 294 c 0
 640 380 596 460 526 540 c 0
 504 566 454 616 378 688 c 1
 284 582 226 458 224 352 c 1xe8
EndSplineSet
Validated: 1
EndChar

StartChar: ellipsis
Encoding: 8230 8230 186
Width: 1056
VWidth: 0
Flags: HW
HStem: -44 308<70.0325 225.25 524.033 679.25 976.033 1131.25>
VStem: 10 276<18.2956 203.021> 462 278<18.2956 200.299> 914 278<18.2956 200.299>
LayerCount: 2
Fore
SplineSet
168 264 m 2
 208 264 234 252 260 220 c 0
 272 204 280 184 284 162 c 0
 286 156 286 148 286 138 c 0
 286 124 284 110 280 98 c 1
 264 24 202 -44 124 -44 c 1
 52 -38 20 16 12 56 c 0
 10 62 10 70 10 84 c 0
 10 100 10 112 12 120 c 0
 28 190 88 258 160 264 c 1
 168 264 l 2
714 220 m 1
 726 204 734 184 738 162 c 1
 740 158 740 152 740 142 c 0
 740 140 738 126 734 98 c 1
 718 24 656 -44 578 -44 c 1
 506 -38 474 16 466 56 c 0
 464 70 462 80 462 88 c 0
 462 96 464 106 466 120 c 1
 482 190 542 258 614 264 c 1
 668 264 684 252 714 220 c 1
1166 220 m 1
 1178 204 1186 184 1190 162 c 1
 1192 158 1192 152 1192 142 c 0
 1192 140 1190 126 1186 98 c 1
 1170 24 1108 -44 1030 -44 c 1
 958 -38 926 16 918 56 c 0
 916 70 914 80 914 88 c 0
 914 96 916 106 918 120 c 1
 934 190 994 258 1066 264 c 1
 1120 264 1136 252 1166 220 c 1
EndSplineSet
Validated: 1
EndChar

StartChar: emacron
Encoding: 275 275 187
Width: 742
VWidth: 0
Flags: HW
HStem: -38 168<284.85 487.595> 976 132<363.746 591.197> 1284 122<296 814>
VStem: 10 196<218.691 436.93> 544 188<736.393 961.637>
LayerCount: 2
Fore
SplineSet
732 888 m 0
 732 776 658 668 548 590 c 1
 436 512 324 460 206 422 c 1
 210 228 278 130 408 130 c 0
 506 130 598 206 662 304 c 1
 708 264 l 1
 654 112 506 -38 312 -38 c 0
 120 -38 10 110 10 376 c 0
 10 602 114 850 276 998 c 0
 356 1072 440 1108 526 1108 c 0
 652 1108 732 1026 732 888 c 0
544 862 m 0
 544 938 512 976 446 976 c 0
 308 976 228 822 208 512 c 1
 432 594 544 712 544 862 c 0
296 1406 m 1
 830 1406 l 1
 814 1284 l 1
 280 1284 l 1
 296 1406 l 1
EndSplineSet
Validated: 1
EndChar

StartChar: emdash
Encoding: 8212 8212 188
Width: 1576
VWidth: 0
Flags: HW
HStem: 496 126<120 1456>
LayerCount: 2
Fore
SplineSet
120 622 m 1
 1476 630 l 1
 1456 504 l 1
 100 496 l 1
 120 622 l 1
EndSplineSet
Validated: 1
EndChar

StartChar: emptyset
Encoding: 8709 8709 189
Width: 1200
VWidth: 0
Flags: HW
HStem: -46 126<429.902 802.01> 996 130<566.156 926.463>
VStem: 112 154<319.876 657.618> 1080 158<406.778 777.101>
DStem2: 26 116 78 6 0.786229 0.617935<0 151.526 326.098 1222.03 1393.31 1529.71>
LayerCount: 2
Fore
SplineSet
336 210 m 1
 400 124 490 80 606 80 c 0
 844 80 1024 242 1072 538 c 0
 1078 570 1080 604 1080 640 c 0
 1080 694 1074 740 1060 778 c 1
 336 210 l 1
266 442 m 0
 266 400 272 358 282 318 c 1
 1004 884 l 1
 944 958 860 996 750 996 c 0
 518 996 316 810 274 536 c 1
 268 508 266 476 266 442 c 0
586 -46 m 0
 428 -46 304 8 216 114 c 1
 78 6 l 1
 26 116 l 1
 154 216 l 1
 126 282 112 354 112 428 c 0
 112 468 114 504 120 538 c 0
 170 844 484 1126 770 1126 c 0
 922 1126 1040 1078 1124 980 c 1
 1250 1078 l 1
 1302 968 l 1
 1190 880 l 1
 1222 812 1238 734 1238 648 c 0
 1238 616 1234 578 1228 536 c 0
 1178 214 912 -46 586 -46 c 0
EndSplineSet
Validated: 1
EndChar

StartChar: endash
Encoding: 8211 8211 190
Width: 960
VWidth: 0
Flags: HW
HStem: 496 126<120 840>
LayerCount: 2
Fore
SplineSet
120 622 m 1
 860 630 l 1
 840 504 l 1
 100 496 l 1
 120 622 l 1
EndSplineSet
Validated: 1
EndChar

StartChar: eng
Encoding: 331 331 191
Width: 1364
VWidth: 0
Flags: HW
HStem: -466 21G<364 536> -30 21G<217 258> 896 216<690.741 883> 952 188<237.231 412>
VStem: 284 192<733.854 951.978> 804 206<487.75 983>
DStem2: 656.16 -466 848.788 -466 0.121869 0.992546<339.972 1271.91>
LayerCount: 2
Fore
SplineSet
442 706 m 1xdc
 514 930 674 1112 824 1112 c 0
 942 1112 1010 1044 1010 922 c 0
 1010 878 1005 826 998 764 c 2
 934 228 l 1
 916 86 896 -18 874 -88 c 1
 838 -182 800 -250 762 -294 c 1
 744 -322 712 -352 668 -382 c 1
 616 -414 572 -436 536 -446 c 1
 418 -466 l 1
 404 -466 l 1
 324 -460 268 -430 242 -360 c 0
 236 -346 234 -330 234 -314 c 0
 234 -292 242 -264 258 -230 c 1
 280 -196 298 -172 312 -158 c 1
 354 -198 426 -256 504 -272 c 1
 552 -276 l 1
 578 -276 610 -272 620 -264 c 1
 630 -260 638 -254 648 -244 c 1
 660 -228 670 -206 676 -180 c 0
 702 -66 731 126 762 396 c 2
 786 606 l 1
 798 720 804 784 804 798 c 0
 804 876 784 896 738 896 c 0xec
 674 896 616 860 566 790 c 1
 516 718 470 598 432 430 c 1
 428 260 410 142 378 74 c 0
 346 4 294 -30 222 -30 c 0
 212 -30 194 -28 170 -26 c 1
 152 8 l 1
 254 482 l 1
 280 768 l 1
 282 818 284 850 284 862 c 0
 284 922 268 952 238 952 c 0
 206 952 122 850 68 760 c 1
 10 804 l 1
 76 978 226 1140 380 1140 c 0
 444 1140 476 1098 476 1014 c 0
 476 976 468 918 452 840 c 0
 436 760 428 716 426 708 c 1
 442 706 l 1xdc
EndSplineSet
Validated: 1
EndChar

StartChar: eogonek
Encoding: 281 281 192
Width: 742
VWidth: 0
Flags: HW
HStem: -472 62<504.787 515.711> -38 168<284.85 446.206> 976 132<363.746 591.197>
VStem: 10 196<218.691 436.93> 218 180<-319.306 -129.723> 544 188<736.393 961.637>
LayerCount: 2
Fore
SplineSet
544 862 m 0
 544 938 512 976 446 976 c 0
 308 976 228 822 208 512 c 1
 432 594 544 712 544 862 c 0
548 -410 m 1
 506 -472 l 1
 336 -454 218 -362 218 -256 c 0
 218 -190 244 -132 346 -36 c 1
 338 -38 326 -38 312 -38 c 0
 120 -38 10 110 10 376 c 0
 10 602 114 850 276 998 c 0
 356 1072 440 1108 526 1108 c 0
 652 1108 732 1026 732 888 c 0
 732 776 658 668 548 590 c 1
 436 512 324 460 206 422 c 1
 210 228 278 130 408 130 c 0
 506 130 598 206 662 304 c 1
 708 264 l 1
 674 162 584 52 470 -2 c 1
 422 -82 398 -142 398 -184 c 0
 398 -276 448 -352 548 -410 c 1
EndSplineSet
Validated: 1
EndChar

StartChar: equal
Encoding: 61 61 193
Width: 962
VWidth: 0
Flags: HW
HStem: 386 128<134 844> 676 128<184 894>
LayerCount: 2
Fore
SplineSet
134 514 m 1
 878 514 l 1
 844 386 l 1
 100 386 l 1
 134 514 l 1
184 804 m 1
 928 804 l 1
 894 676 l 1
 150 676 l 1
 184 804 l 1
EndSplineSet
Validated: 1
EndChar

StartChar: eth
Encoding: 240 240 194
Width: 1156
VWidth: 0
Flags: HW
HStem: -32 118<478.407 722.924> 976 112<525.268 773.602> 1434 20G<974.421 1060.89>
VStem: 164 210<216.985 709.465> 878 210<417.924 852.562>
DStem2: 540 1340 516 1246 0.97731 0.211812<0 201.98 388.97 494.846>
LayerCount: 2
Fore
SplineSet
938 1340 m 1
 1038 1174 1088 978 1088 752 c 0
 1088 694 1084 630 1076 564 c 0
 1030 198 806 -32 550 -32 c 0
 292 -32 164 164 164 436 c 0
 164 472 166 508 170 546 c 0
 212 888 442 1088 700 1088 c 0
 764 1088 848 1058 866 978 c 1
 874 978 l 1
 860 1054 826 1160 772 1296 c 1
 516 1246 l 1
 540 1340 l 1
 738 1380 l 1
 708 1442 662 1508 604 1578 c 1
 738 1578 l 1
 798 1526 850 1472 892 1416 c 1
 1066 1454 l 1
 1042 1360 l 1
 938 1340 l 1
666 976 m 2
 504 976 414 860 382 604 c 0
 376 560 374 514 374 466 c 0
 374 226 456 86 590 86 c 0
 758 86 838 236 872 514 c 0
 876 550 878 586 878 620 c 0
 878 836 792 970 674 976 c 1
 666 976 l 2
EndSplineSet
Validated: 1
EndChar

StartChar: exclam
Encoding: 33 33 195
Width: 396
VWidth: 0
Flags: HW
HStem: -44 308<70.0325 225.25>
VStem: 8 278<18.2956 200.299> 140 88<418 487.498> 164 224<986.449 1390.99>
LayerCount: 2
Fore
SplineSet
198 1594 m 0x90
 292 1594 362 1536 380 1424 c 1
 386 1398 388 1372 388 1342 c 0x90
 388 1308 384 1260 376 1196 c 0
 362 1082 342 972 320 864 c 2
 228 418 l 1
 140 402 l 1xa0
 154 612 l 2
 160 708 164 834 164 1002 c 2
 164 1080 l 1
 158 1224 138 1386 60 1554 c 1
 98 1580 144 1594 198 1594 c 0x90
260 220 m 0
 272 204 280 184 284 162 c 1
 286 158 286 152 286 142 c 0
 286 140 284 126 280 98 c 1
 264 24 202 -44 124 -44 c 1
 52 -38 20 16 12 56 c 0
 10 70 8 80 8 88 c 0xc0
 8 96 10 106 12 120 c 1
 28 190 88 258 160 264 c 1
 214 264 234 252 260 220 c 0
EndSplineSet
Validated: 1
EndChar

StartChar: exclamdown
Encoding: 161 161 196
Width: 614
VWidth: 0
Flags: HW
HStem: 924 308<282.75 437.967>
VStem: 120 224<-202.987 201.551> 222 278<987.701 1169.7> 280 74<700.502 770>
LayerCount: 2
Fore
SplineSet
310 -406 m 0xc0
 216 -406 146 -348 128 -236 c 1
 122 -210 120 -184 120 -154 c 0xc0
 120 -120 124 -72 132 -8 c 0
 146 106 166 216 188 324 c 2
 280 770 l 1
 368 786 l 1
 354 576 l 2x90
 348 480 344 354 344 186 c 2
 344 108 l 1
 350 -36 370 -198 448 -366 c 1
 410 -392 364 -406 310 -406 c 0xc0
248 968 m 0
 236 984 228 1004 224 1026 c 1
 222 1030 222 1036 222 1046 c 0
 222 1048 224 1062 228 1090 c 1
 244 1164 306 1232 384 1232 c 1
 456 1226 488 1172 496 1132 c 0
 498 1118 500 1108 500 1100 c 0xa0
 500 1092 498 1082 496 1068 c 1
 480 998 420 930 348 924 c 1
 294 924 274 936 248 968 c 0
EndSplineSet
Validated: 1
EndChar

StartChar: f
Encoding: 102 102 197
Width: 638
VWidth: 0
Flags: HW
HStem: -472 190<-112.887 87.125> 940 136<579.407 714.53> 1424 166<553.643 695.678>
DStem2: 196 212 392 220 0.0753991 0.997153<-377.068 747.646>
LayerCount: 2
Fore
SplineSet
444 954 m 1
 392 220 l 1
 370 -50 330 -198 248 -300 c 0
 190 -372 106 -428 28 -452 c 0
 -16 -466 -54 -472 -88 -472 c 2
 -102 -472 l 1
 -180 -466 -246 -430 -270 -366 c 0
 -276 -348 -280 -330 -280 -312 c 2
 -280 -300 l 1
 -278 -262 -250 -204 -208 -164 c 1
 -150 -220 -90 -262 -10 -278 c 1
 12 -280 28 -282 40 -282 c 0
 64 -282 86 -278 100 -270 c 1
 118 -262 136 -246 146 -220 c 1
 152 -208 154 -196 156 -186 c 0
 174 -72 186 30 196 212 c 1
 202 302 204 362 206 388 c 2
 246 958 l 1
 112 948 l 1
 128 1076 l 1
 260 1056 l 1
 266 1096 270 1126 274 1144 c 0
 294 1238 330 1322 380 1396 c 1
 438 1472 508 1528 592 1564 c 1
 638 1582 680 1590 716 1590 c 2
 726 1590 l 1
 830 1584 882 1520 898 1458 c 0
 902 1442 904 1428 904 1414 c 0
 904 1396 902 1378 896 1364 c 1
 882 1320 854 1286 812 1260 c 1
 748 1334 698 1386 656 1408 c 0
 636 1418 612 1424 586 1424 c 0
 536 1424 500 1384 484 1336 c 0
 484 1334 480 1314 472 1278 c 1
 470 1264 452 1106 452 1050 c 1
 736 1076 l 1
 712 940 l 1
 444 954 l 1
EndSplineSet
Validated: 1
EndChar

